<svg width="49" height="22" viewBox="0 0 49 22" fill="none" xmlns="http://www.w3.org/2000/svg">
<path d="M1 1C0.916446 1.49297 0.916431 1.49297 0.916419 1.49296C0.916419 1.49296 0.91641 1.49296 0.916411 1.49296C0.916413 1.49296 0.916427 1.49297 0.916455 1.49297C0.916512 1.49298 0.91662 1.493 0.916782 1.49303C0.917105 1.49308 0.917639 1.49317 0.918383 1.4933C0.919871 1.49355 0.9222 1.49395 0.925363 1.4945C0.931689 1.49558 0.941352 1.49725 0.954303 1.49951C0.980207 1.50404 1.01926 1.51092 1.07109 1.52023C1.17473 1.53886 1.32943 1.56721 1.53208 1.60584C1.93739 1.68309 2.53444 1.80144 3.29837 1.96527L3.50806 0.987497C2.73624 0.821974 2.13168 0.702124 1.71932 0.623526C1.51313 0.584225 1.35498 0.555236 1.24799 0.536005C1.19449 0.526389 1.15378 0.519213 1.12624 0.514407C1.11248 0.512004 1.102 0.510194 1.09487 0.508967C1.09131 0.508354 1.08858 0.507887 1.08669 0.507564C1.08574 0.507403 1.08501 0.507278 1.08449 0.507189C1.08423 0.507145 1.08402 0.507109 1.08386 0.507083C1.08378 0.50707 1.08372 0.507059 1.08367 0.50705C1.08364 0.507046 1.08361 0.507041 1.0836 0.507039C1.08358 0.507034 1.08355 0.507031 1 1ZM8.08748 3.10412C9.51053 3.47314 11.1039 3.91229 12.8292 4.42839L13.1158 3.47033C11.3778 2.95044 9.77253 2.508 8.33849 2.13614L8.08748 3.10412ZM17.506 5.92056C18.9952 6.42586 20.5436 6.98077 22.1334 7.58842L22.4904 6.65433C20.888 6.04187 19.3277 5.48269 17.8274 4.97359L17.506 5.92056ZM26.6863 9.4336C28.1619 10.0671 29.6571 10.7449 31.159 11.4694L31.5935 10.5687C30.0775 9.83745 28.569 9.15356 27.0808 8.51469L26.6863 9.4336ZM35.5312 13.7078C36.9565 14.4823 38.3766 15.3005 39.7807 16.1643L40.3047 15.3125C38.8843 14.4387 37.4487 13.6116 36.0087 12.8291L35.5312 13.7078ZM43.8803 18.8564C45.2145 19.7925 46.523 20.7741 47.7957 21.8027L48.4243 21.025C47.1329 19.9812 45.8062 18.9861 44.4546 18.0378L43.8803 18.8564Z" fill="#424A60"/>
</svg>
