<?xml version="1.0" encoding="utf-8"?>
<!-- Generator: Adobe Illustrator 21.0.0, SVG Export Plug-In . SVG Version: 6.00 Build 0)  -->
<svg version="1.1" id="Calque_1" xmlns="http://www.w3.org/2000/svg" xmlns:xlink="http://www.w3.org/1999/xlink" x="0px" y="0px"
	 viewBox="0 0 20 21" style="enable-background:new 0 0 20 21;" xml:space="preserve">
<style type="text/css">
	.st0{fill:#67CABC;}
	.st1{fill:#67CABC;stroke:#FCFCFC;stroke-width:2;stroke-linecap:round;stroke-linejoin:round;stroke-miterlimit:10;}
</style>
<path class="st0" d="M19.4,10.9l0.3,0.4c0.5,0.6,0.3,1.6-0.4,1.9l-0.5,0.3c-0.5,0.3-0.8,0.8-0.7,1.4l0.1,0.5
	c0.1,0.8-0.4,1.5-1.2,1.6l-0.5,0c-0.6,0-1.1,0.4-1.2,1l-0.1,0.5c-0.2,0.8-1,1.2-1.8,0.9l-0.5-0.2c-0.5-0.2-1.1-0.1-1.5,0.4l-0.3,0.4
	c-0.5,0.6-1.5,0.6-2,0l-0.3-0.4c-0.4-0.4-1-0.6-1.5-0.3l-0.5,0.2C6,19.7,5.2,19.3,5,18.6l-0.1-0.5c-0.2-0.5-0.6-0.9-1.2-1l-0.5,0
	c-0.8,0-1.4-0.8-1.3-1.5L1.9,15c0.1-0.6-0.2-1.1-0.7-1.4l-0.5-0.2c-0.7-0.4-0.9-1.3-0.5-1.9L0.6,11c0.3-0.5,0.3-1.1,0-1.5L0.3,9.1
	C-0.2,8.4,0,7.5,0.7,7.1l0.5-0.3C1.7,6.6,1.9,6,1.8,5.5L1.7,5C1.6,4.2,2.2,3.4,3,3.4l0.5,0c0.6,0,1.1-0.4,1.2-1l0.1-0.5
	C5,1.1,5.9,0.7,6.6,1l0.5,0.2c0.5,0.2,1.1,0.1,1.5-0.4l0.3-0.4c0.5-0.6,1.5-0.6,2,0l0.3,0.4c0.4,0.4,1,0.6,1.5,0.3L13.3,1
	C14,0.6,14.9,1,15.1,1.8l0.1,0.5c0.2,0.5,0.6,0.9,1.2,1l0.5,0c0.8,0,1.4,0.8,1.3,1.5l-0.1,0.5c-0.1,0.6,0.2,1.1,0.7,1.4L19.3,7
	c0.7,0.4,0.9,1.3,0.5,1.9l-0.3,0.4C19.1,9.8,19.1,10.4,19.4,10.9z M11,14.5c0.6-0.2,1.1-0.5,1.4-0.9c1-1.3,0.6-3.1-0.8-3.9
	c-0.4-0.2-0.8-0.4-1.2-0.6c-0.1,0-0.1-0.1-0.2-0.1C9.9,8.9,9.7,8.7,9.4,8.6C9,8.2,9.1,7.6,9.6,7.3c0.2-0.1,0.3-0.1,0.5-0.1
	c0.6,0,1.2,0.1,1.8,0.4c0.3,0.1,0.4,0.1,0.5-0.2c0.1-0.2,0.2-0.5,0.2-0.7c0-0.1,0-0.1,0.1-0.2c0.1-0.2,0-0.4-0.2-0.4
	c-0.4-0.2-0.7-0.3-1.1-0.3c-0.5-0.1-0.5-0.1-0.5-0.6l0,0c0-0.4,0-0.6-0.1-0.6c-0.1-0.1-0.3-0.1-0.6-0.1c0,0-0.1,0-0.1,0
	c-0.1,0-0.1,0-0.2,0c-0.3,0-0.4,0.1-0.4,0.4v0.5c0,0.5,0,0.5-0.4,0.6c0,0,0,0,0,0C7.8,6.2,7.1,6.9,7.1,8.1c-0.1,1,0.5,1.7,1.3,2.2
	c0.4,0.2,0.7,0.4,1.1,0.5c0.2,0.1,0.3,0.1,0.5,0.2c0.2,0.1,0.4,0.2,0.6,0.4c0.5,0.4,0.4,1.2-0.2,1.4C10.1,13,9.7,13.1,9.4,13
	c-0.6-0.1-1.1-0.2-1.6-0.5c-0.3-0.2-0.4-0.1-0.5,0.2c-0.1,0.2-0.1,0.4-0.2,0.7c0,0.1,0,0.1-0.1,0.2C6.9,14,7,14,7.3,14.2
	c0.5,0.2,0.9,0.3,1.5,0.4c0.4,0.1,0.4,0.1,0.4,0.5v0c0,0.2,0,0.4,0,0.6c0,0.2,0.1,0.4,0.4,0.4c0.3,0,0.5,0,0.8,0
	c0.2,0,0.3-0.1,0.3-0.4c0-0.1,0-0.2,0-0.3c0-0.2,0-0.3,0-0.5C10.7,14.7,10.8,14.5,11,14.5z"/>
<rect x="5.6" y="3.5" class="st0" width="8.6" height="13.7"/>
<polyline class="st1" points="5.1,10.3 8.6,13.9 16.4,6.6 "/>
</svg>
