<svg width="600" height="488" viewBox="0 0 600 488" fill="none" xmlns="http://www.w3.org/2000/svg">
<path fill-rule="evenodd" clip-rule="evenodd" d="M514.454 475.333C514.454 481.866 404.983 487.16 269.943 487.16C134.901 487.16 25.4307 481.866 25.4307 475.333C25.4307 468.8 134.901 463.504 269.943 463.504C404.983 463.504 514.454 468.8 514.454 475.333Z" fill="#AFD4E2"/>
<path fill-rule="evenodd" clip-rule="evenodd" d="M167.693 434.876C167.693 434.876 31.9528 412.26 2.83356 301.15C-7.75418 260.755 12.0441 218.324 50.282 201.535C74.3355 190.974 109.353 184.04 160.334 186.301C160.334 186.301 281.28 200.657 302.68 108.82C310.015 77.3353 325.936 53.5904 346.475 36.6575C395.819 -4.02364 465.066 -11.9754 521.289 18.4962C550.537 34.3479 574.161 62.2925 586.44 107.889C621.793 239.174 583.649 348.842 505.842 400.939C441.014 444.348 342.517 466.948 167.693 434.876Z" fill="#E6FFF9"/>
<path fill-rule="evenodd" clip-rule="evenodd" d="M464.558 375.912H141.731V409.312L171.964 418.499L156.106 479.295C155.797 480.483 156.695 481.646 157.923 481.646C158.618 481.646 159.258 481.26 159.583 480.645L191.851 419.546H212.784L205.168 468.219C204.952 469.592 206.013 470.83 207.402 470.83C208.331 470.83 209.167 470.26 209.508 469.393L229.092 419.284H302.709H303.581H377.196L396.782 469.393C397.119 470.26 397.957 470.83 398.887 470.83C400.276 470.83 401.336 469.592 401.122 468.219L393.506 419.546H414.439L446.705 480.645C447.031 481.26 447.671 481.646 448.367 481.646C449.595 481.646 450.491 480.483 450.182 479.295L434.326 418.499L464.558 409.312V375.912Z" fill="#309797"/>
<path fill-rule="evenodd" clip-rule="evenodd" d="M185.32 409.312H148.016C141.684 409.312 136.389 404.499 135.787 398.197L123.667 270.934C122.751 261.328 130.307 253.019 139.957 253.019H172.275C180.853 253.019 187.712 260.145 187.384 268.715L184.068 355.591L185.32 409.312Z" fill="#5DAFA0"/>
<path fill-rule="evenodd" clip-rule="evenodd" d="M179.035 409.312H141.731C135.399 409.312 130.104 404.499 129.502 398.197L117.382 270.934C116.466 261.328 124.022 253.019 133.672 253.019H165.99C174.567 253.019 181.427 260.145 181.099 268.715L177.783 355.591L179.035 409.312Z" fill="#309797"/>
<path fill-rule="evenodd" clip-rule="evenodd" d="M161.005 397.606L166.573 280.158C166.849 271.675 160.049 264.647 151.562 264.647H130.675C124.934 264.647 120.004 267.911 117.544 272.638L129.502 398.197C130.104 404.5 135.399 409.313 141.731 409.313H148.729C155.29 409.313 160.694 404.16 161.005 397.606Z" fill="#67CABC"/>
<path fill-rule="evenodd" clip-rule="evenodd" d="M420.968 409.312H458.272C464.604 409.312 469.899 404.499 470.501 398.197L482.621 270.934C483.537 261.328 475.981 253.019 466.331 253.019H434.013C425.435 253.019 418.575 260.145 418.904 268.715L422.22 355.591L420.968 409.312Z" fill="#5DAFA0"/>
<path fill-rule="evenodd" clip-rule="evenodd" d="M413.172 193.479H303.145H193.117C186.644 193.479 181.467 198.853 181.707 205.319L188.942 356.285H303.145H417.347L424.582 205.319C424.823 198.853 419.643 193.479 413.172 193.479Z" fill="#67CABC"/>
<path fill-rule="evenodd" clip-rule="evenodd" d="M427.254 409.312H464.558C470.89 409.312 476.185 404.499 476.787 398.197L488.907 270.934C489.821 261.328 482.267 253.019 472.615 253.019H440.299C431.721 253.019 424.862 260.145 425.19 268.715L428.506 355.591L427.254 409.312Z" fill="#309797"/>
<path fill-rule="evenodd" clip-rule="evenodd" d="M445.284 397.606L439.715 280.158C439.438 271.675 446.24 264.647 454.727 264.647H475.613C481.354 264.647 486.285 267.911 488.745 272.638L476.787 398.197C476.185 404.5 470.89 409.313 464.558 409.313H457.56C450.998 409.313 445.595 404.16 445.284 397.606Z" fill="#67CABC"/>
<path fill-rule="evenodd" clip-rule="evenodd" d="M437.582 368.379C437.582 368.379 427.813 344.191 398.739 343.028C369.665 341.865 303.145 343.028 303.145 343.028C303.145 343.028 236.623 341.865 207.549 343.028C178.475 344.191 168.706 368.379 168.706 368.379C163.198 382.435 162.887 391.838 164.446 398.043C166.119 404.698 172.173 409.312 179.035 409.312H303.145H427.253C434.115 409.312 440.169 404.698 441.842 398.043C443.401 391.838 443.09 382.435 437.582 368.379Z" fill="#5DAFA0"/>
<path fill-rule="evenodd" clip-rule="evenodd" d="M420.224 367.445C414.677 367.184 407.606 366.872 398.739 366.518C369.665 365.356 303.144 366.518 303.144 366.518C303.144 366.518 236.624 365.356 207.55 366.518C198.682 366.872 191.611 367.184 186.065 367.445C173.719 368.028 163.82 378.061 163.638 390.418C163.593 393.381 163.909 395.901 164.447 398.044C166.12 404.699 172.173 409.313 179.034 409.313H303.144H427.254C434.116 409.313 440.17 404.699 441.842 398.044C442.381 395.901 442.695 393.381 442.651 390.418C442.469 378.061 432.57 368.028 420.224 367.445Z" fill="#67CABC"/>
<path fill-rule="evenodd" clip-rule="evenodd" d="M346.755 285.232C346.755 285.232 344.283 315.906 344.823 335.654C344.927 339.493 348.047 342.558 351.888 342.558C353.783 342.558 355.647 343.046 357.301 343.976L381.457 357.551C385.351 359.742 390.239 358.973 393.274 355.694L419.902 326.934C426.201 320.129 431.123 312.169 434.397 303.492C437.902 294.203 439.513 284.307 439.139 274.389L437.466 230.111L346.755 285.232Z" fill="#BFE1EF"/>
<path fill-rule="evenodd" clip-rule="evenodd" d="M104.28 233.948H87.998L92.6493 183.246C92.6493 183.246 94.5095 170.221 101.024 178.129C106.048 184.231 106.454 200.468 106.59 208.631C106.626 210.868 108.345 212.717 110.574 212.931L123.594 214.179L122.19 233.948H104.28Z" fill="#E8AFAE"/>
<path fill-rule="evenodd" clip-rule="evenodd" d="M103.35 236.506H89.6265C89.6265 236.506 92.4176 207.898 86.6015 201.619C83.2789 198.031 80.0332 205.151 77.8605 211.912C76.2928 216.792 75.2031 221.805 74.4862 226.88C73.4884 233.964 71.7653 246.576 71.421 251.549C71.1402 255.587 74.4427 258.964 78.4873 258.801C86.1619 258.49 98.0265 257.978 101.256 257.671L103.35 236.506Z" fill="#F2BFBE"/>
<path fill-rule="evenodd" clip-rule="evenodd" d="M120.147 209.11C118.668 208.782 117.256 209.873 117.204 211.386C116.992 217.852 116.58 233.112 117.307 236.389C118.233 240.576 216.62 243.019 216.62 243.019L282.21 319.769L272.641 253.407C271.701 246.883 266.821 241.622 260.385 240.196L120.147 209.11Z" fill="#5C7CB9"/>
<path fill-rule="evenodd" clip-rule="evenodd" d="M97.5035 233.658L93.9286 256.716C93.6361 258.605 95.2155 260.258 97.1175 260.049L191.968 249.361C194.117 249.119 196.151 250.361 196.911 252.386C200.623 262.285 211.328 291.085 218.015 303.954C225.691 318.723 241.243 338.276 257.428 352.538C265.925 360.027 278.114 361.799 288.302 356.847C295.336 353.427 303.676 348.375 311.286 341.167L294.539 303.257L278.891 296.744C278.891 296.744 243.268 251.93 224.906 229.131C219.36 222.247 210.706 218.656 201.92 219.59C181.151 221.798 140.424 226.104 101.219 230.129C99.3203 230.324 97.796 231.773 97.5035 233.658Z" fill="#99B0D9"/>
<path fill-rule="evenodd" clip-rule="evenodd" d="M353.383 244.879C353.383 244.879 371.757 194.409 387.807 174.873C403.855 155.336 424.589 192.549 424.589 192.549L388.987 255.81L353.383 244.879Z" fill="#FFC011"/>
<path fill-rule="evenodd" clip-rule="evenodd" d="M278.891 296.744C278.891 296.744 332.683 263.951 353.383 238.833C374.085 213.714 427.346 255.811 427.346 255.811C427.346 255.811 369.198 321.991 309.832 342.511C309.832 342.511 291.883 313.074 278.891 296.744Z" fill="#FFDB3E"/>
<path fill-rule="evenodd" clip-rule="evenodd" d="M391.969 226.622L387.754 233.756C387.754 233.756 374.562 229.455 374.549 238.367C374.545 241.004 377.691 244.016 381.064 245.268C387.881 247.796 395.654 245.642 402.231 242.539L404.415 241.509C412.795 237.553 420.635 232.526 427.618 226.436C434.074 220.806 440.515 213.84 441.827 207.608C444.618 194.35 420.582 186.302 420.582 186.302C420.582 186.302 381.535 207.085 391.969 226.622Z" fill="#F2BFBE"/>
<path fill-rule="evenodd" clip-rule="evenodd" d="M394.203 206.611L375.836 193.727C374.149 196.881 372.498 200.153 370.9 203.454C375.374 206.887 383.91 213.513 394.203 218.248C400.018 220.923 394.203 206.611 394.203 206.611Z" fill="#FFDB3E"/>
<path fill-rule="evenodd" clip-rule="evenodd" d="M395.948 209.527C395.948 209.527 408.442 210.05 408.302 225.4C408.302 225.4 417.753 230.11 426.3 223.308L430.661 216.387C430.661 216.387 423.858 207.784 435.372 204.294C435.372 204.294 411.648 195.572 415.661 177.257C418.174 165.777 426.548 165 432.447 166.02C437.363 166.87 441.583 170.268 443.052 175.036C443.157 175.383 443.201 175.741 443.195 176.105C443.068 182.19 444.347 188.193 447.862 193.162C453.924 201.725 460.007 213.351 452.816 218.249C440.779 226.448 427.358 235.344 418.893 235.692C410.426 236.041 398.759 238.64 386.702 225.053C376.642 213.713 389.582 212.791 400.876 200.517C400.876 200.517 396.384 206.126 395.948 209.527Z" fill="#412635"/>
<path fill-rule="evenodd" clip-rule="evenodd" d="M493.781 123.937C493.781 123.937 481.029 119.587 483.437 149.673C483.437 149.673 487.347 154.907 493.051 151.633C498.753 148.359 503.985 140.101 503.985 140.101L503.405 127.891L493.781 123.937Z" fill="#F2BFBE"/>
<path fill-rule="evenodd" clip-rule="evenodd" d="M396.578 277.76C390.098 278.776 384.087 274.003 382.529 267.632C381.067 261.661 382.041 252.962 394.897 245.31C417.114 232.087 435.257 228.365 453.862 196.501C470.295 168.363 480.19 153.283 482.28 150.143C482.535 149.762 482.988 149.582 483.438 149.672L493.051 151.632C493.603 151.746 493.922 152.319 493.721 152.844C490.658 160.856 469.761 214.836 457.105 230.11C453.341 234.819 418.748 274.281 396.578 277.76Z" fill="#FFC011"/>
<path fill-rule="evenodd" clip-rule="evenodd" d="M445.009 243.425C444.988 243.405 435.961 235.016 427.698 226.518C424.531 228.8 421.319 230.794 418.041 232.668C417.929 233.405 417.886 233.884 417.886 233.884C417.886 233.884 427.153 246.168 436.494 251.832C439.563 248.932 442.432 246.079 445.009 243.425Z" fill="#FFDB3E"/>
<path fill-rule="evenodd" clip-rule="evenodd" d="M487.856 125.395C487.856 125.395 487.958 130.25 487.913 135.019C487.892 137.275 489.142 139.346 491.152 140.369C493.437 141.53 496.833 142.705 501.095 142.59C503.361 142.526 505.275 140.805 505.617 138.562C506.039 135.793 506.055 131.784 503.985 127.774C496.85 126.264 492.822 120.799 487.856 125.395Z" fill="#E8AFAE"/>
<path fill-rule="evenodd" clip-rule="evenodd" d="M55.6604 411.638C54.9986 410.266 28.7958 374.602 10.3529 373.019C7.49664 372.772 5.00974 375.068 4.94455 377.934C4.85598 381.772 6.60082 388.072 14.7317 397.219C14.7317 397.219 23.6749 409.546 31.5301 426.756C39.3869 443.968 58.4599 437.223 58.4599 437.223C58.4599 437.223 65.4844 432.046 55.6604 411.638Z" fill="#225F5F"/>
<path fill-rule="evenodd" clip-rule="evenodd" d="M36.1753 333.774C33.8939 334.406 32.124 336.308 31.7212 338.639C31.1664 341.858 31.5909 347.41 36.1302 356.286C37.4405 358.849 38.6037 361.455 39.6332 364.03C44.3547 375.844 46.3719 388.537 46.1146 401.253C45.8538 414.079 47.0037 436.475 60.7853 440.013C69.3909 442.224 75.9658 435.405 78.2655 426.177C80.4499 417.408 80.2243 408.221 77.9764 399.467C72.3875 377.721 57.1719 327.958 36.1753 333.774Z" fill="#3C8587"/>
<path fill-rule="evenodd" clip-rule="evenodd" d="M64.7026 426.702C62.4045 417.163 65.1455 397.787 100.789 366.001C100.789 366.001 109.026 360.132 115.97 361.544C119.44 362.249 121.323 366.077 119.911 369.324C118.709 372.086 116.157 376.107 111.023 381.87C111.023 381.87 101.256 394.427 98.697 406.754C96.5862 416.924 89.4095 435.485 77.0352 436.183C71.2357 436.511 66.063 432.351 64.7026 426.702Z" fill="#65C8BA"/>
<path fill-rule="evenodd" clip-rule="evenodd" d="M62.1816 444.665C62.1565 444.665 62.1297 444.665 62.1047 444.661C61.7219 444.619 61.4445 444.275 61.4863 443.891C69.4969 371.109 36.1593 337.465 35.8217 337.132C35.5459 336.863 35.5426 336.421 35.8116 336.145C36.0807 335.872 36.5219 335.866 36.7977 336.138C37.142 336.474 70.9576 370.596 62.8751 444.045C62.835 444.401 62.5325 444.665 62.1816 444.665Z" fill="#499FA1"/>
<path fill-rule="evenodd" clip-rule="evenodd" d="M57.8769 444.665C57.6011 444.665 57.3404 444.499 57.2301 444.228C36.6245 393.403 8.84566 376.51 8.56656 376.345C8.23564 376.149 8.12533 375.72 8.32254 375.389C8.51809 375.058 8.94594 374.949 9.27686 375.143C9.55931 375.312 37.7426 392.449 58.5237 443.707C58.6691 444.063 58.4969 444.469 58.1393 444.614C58.054 444.648 57.9638 444.665 57.8769 444.665Z" fill="#2F8B8B"/>
<path fill-rule="evenodd" clip-rule="evenodd" d="M69.391 444.665C69.3492 444.665 69.3074 444.661 69.264 444.655C68.8863 444.584 68.6339 444.22 68.7041 443.842C77.0239 398.432 114.715 363.855 115.096 363.511C115.382 363.252 115.823 363.276 116.082 363.56C116.34 363.847 116.318 364.287 116.032 364.546C115.656 364.888 78.3091 399.157 70.0763 444.093C70.0161 444.429 69.7219 444.665 69.391 444.665Z" fill="#A3E9DE"/>
<path fill-rule="evenodd" clip-rule="evenodd" d="M44.7363 441.874H81.9514L79.3391 471.157C78.9731 475.252 75.5452 478.39 71.4355 478.39H55.1319C50.5943 478.39 46.8372 474.864 46.5497 470.335L44.7363 441.874Z" fill="#E4F4FC"/>
</svg>
