<svg width="151" height="46" viewBox="0 0 151 46" fill="none" xmlns="http://www.w3.org/2000/svg">
<path fill-rule="evenodd" clip-rule="evenodd" d="M28.4595 21.2985L25.509 16.1501L25.5087 16.1503C25.4142 15.9852 25.2634 15.851 25.0707 15.7804L17.9689 13.1784L17.969 13.1252L19.6082 10.9169C19.7684 10.701 19.8152 10.4214 19.7338 10.1651C19.6524 9.9088 19.453 9.70729 19.1975 9.62333L16.5845 8.76433L14.9903 6.52343C14.8344 6.30435 14.5827 6.17348 14.3139 6.17164C14.0451 6.16818 13.7916 6.29721 13.6327 6.51417L12.0081 8.7332L9.3837 9.55656C9.12713 9.63706 8.92485 9.83588 8.84003 10.091C8.75522 10.3461 8.79813 10.6264 8.95543 10.8445L10.5643 13.0749L10.5626 13.2471L3.50489 15.7785C3.30981 15.8485 3.1572 15.9837 3.06172 16.1504L3.06133 16.1501L0.110793 21.2985C-0.0104631 21.51 -0.0333973 21.7638 0.0479607 21.9936C0.129319 22.2234 0.306822 22.4063 0.534155 22.4945L2.95051 23.4322V29.8315C2.95051 30.1843 3.17187 30.4992 3.50389 30.6188L14.0926 34.4316C14.1843 34.4645 14.2802 34.481 14.3762 34.481C14.4722 34.481 14.5682 34.4645 14.6599 34.4316L25.2486 30.6188C25.5806 30.4992 25.8019 30.1843 25.8019 29.8315V23.3616L28.0361 22.4945C28.2634 22.4063 28.4409 22.2234 28.5222 21.9936C28.6036 21.7638 28.5807 21.5099 28.4595 21.2985ZM12.7717 10.2477C12.9421 10.1943 13.091 10.0876 13.1965 9.94349L14.2983 8.43842L15.3796 9.95833C15.4832 10.1039 15.6306 10.2125 15.8003 10.2683L17.5726 10.8509L16.4608 12.3487C16.3544 12.4921 16.2966 12.6658 16.296 12.8444L16.2894 14.7095L14.521 14.1153C14.4345 14.0863 14.3445 14.0717 14.2544 14.0717C14.168 14.0717 14.0817 14.0851 13.9985 14.1118L12.2222 14.6819L12.241 12.8168C12.2428 12.6383 12.1874 12.4638 12.0829 12.319L10.9917 10.8062L12.7717 10.2477ZM11.6293 16.6299C11.3733 16.7119 11.0934 16.6662 10.8769 16.5068C10.6604 16.3472 10.5338 16.0935 10.5365 15.8247L10.5445 15.0315L6.25516 16.57L14.3621 19.507L22.3543 16.5677L17.9626 14.9586L17.9593 15.8752C17.9584 16.1441 17.8282 16.3961 17.6097 16.5526C17.4657 16.6557 17.2949 16.7091 17.1223 16.7091C17.0327 16.7091 16.9427 16.6947 16.8556 16.6655L14.2483 15.7893L11.6293 16.6299ZM4.16396 17.5925L13.1374 20.8434L10.8868 24.717L2.04703 21.2863L4.16396 17.5925ZM10.9481 26.536L4.62454 24.0819V29.2435L13.5273 32.4491V23.5043L11.9748 26.1762C11.8212 26.4406 11.5417 26.5928 11.2508 26.5928C11.1496 26.5928 11.0472 26.5744 10.9481 26.536ZM24.1279 29.2435L15.2013 32.4578V23.6488L16.5862 26.16C16.7886 26.527 17.2311 26.6877 17.622 26.5361L24.1279 24.0113V29.2435ZM24.6247 22.0232C24.6492 22.0122 24.6743 22.0025 24.6999 21.994L26.5232 21.2864L24.408 17.5956L15.5677 20.8469L17.6987 24.711L24.6247 22.0232Z" fill="#67CABC"/>
<path d="M37.9394 30.079C37.1844 30.079 36.5875 29.8595 36.1485 29.4206C35.7096 28.9817 35.4902 28.3847 35.4902 27.6298V14.0141C35.6833 13.979 35.9905 13.9351 36.4119 13.8824C36.8333 13.8122 37.2371 13.7771 37.6234 13.7771C38.0272 13.7771 38.3783 13.8122 38.6768 13.8824C38.9928 13.9351 39.2562 14.0405 39.4669 14.1985C39.6776 14.3565 39.8356 14.576 39.9409 14.8569C40.0463 15.1378 40.0989 15.5065 40.0989 15.963V26.3656H46.1298C46.2527 26.5588 46.3669 26.8221 46.4722 27.1557C46.5776 27.4718 46.6302 27.8053 46.6302 28.1565C46.6302 28.8588 46.481 29.3592 46.1825 29.6576C45.884 29.9385 45.489 30.079 44.9974 30.079H37.9394ZM61.6398 23.6004C61.6398 24.6889 61.473 25.6634 61.1394 26.5237C60.8059 27.3664 60.3318 28.0775 59.7173 28.6569C59.1204 29.2363 58.4005 29.6752 57.5578 29.9737C56.715 30.2721 55.7757 30.4214 54.7398 30.4214C53.704 30.4214 52.7646 30.2634 51.9219 29.9473C51.0791 29.6313 50.3505 29.1836 49.736 28.6042C49.1391 28.0073 48.6738 27.2874 48.3402 26.4447C48.0066 25.6019 47.8398 24.6538 47.8398 23.6004C47.8398 22.5645 48.0066 21.6252 48.3402 20.7824C48.6738 19.9397 49.1391 19.2286 49.736 18.6492C50.3505 18.0523 51.0791 17.5958 51.9219 17.2798C52.7646 16.9637 53.704 16.8057 54.7398 16.8057C55.7757 16.8057 56.715 16.9725 57.5578 17.3061C58.4005 17.6221 59.1204 18.0786 59.7173 18.6756C60.3318 19.255 60.8059 19.966 61.1394 20.8088C61.473 21.6515 61.6398 22.5821 61.6398 23.6004ZM52.4223 23.6004C52.4223 24.6714 52.6242 25.4966 53.028 26.076C53.4494 26.6378 54.0288 26.9187 54.7662 26.9187C55.5036 26.9187 56.0654 26.629 56.4517 26.0496C56.8555 25.4702 57.0574 24.6538 57.0574 23.6004C57.0574 22.5469 56.8555 21.7393 56.4517 21.1775C56.0478 20.5981 55.4772 20.3084 54.7398 20.3084C54.0024 20.3084 53.4318 20.5981 53.028 21.1775C52.6242 21.7393 52.4223 22.5469 52.4223 23.6004ZM74.6218 26.1813C74.6218 27.5156 74.1214 28.5603 73.1206 29.3153C72.1199 30.0702 70.6451 30.4477 68.6962 30.4477C67.9588 30.4477 67.2741 30.395 66.642 30.2897C66.0099 30.1844 65.4657 30.0263 65.0092 29.8156C64.5702 29.5874 64.2191 29.3065 63.9557 28.9729C63.7099 28.6393 63.587 28.2443 63.587 27.7878C63.587 27.3664 63.6748 27.0153 63.8504 26.7344C64.026 26.4359 64.2367 26.1901 64.4825 25.9969C64.9916 26.2779 65.571 26.5324 66.2206 26.7607C66.8878 26.9714 67.6515 27.0767 68.5118 27.0767C69.0561 27.0767 69.4687 26.9977 69.7496 26.8397C70.0481 26.6817 70.1973 26.471 70.1973 26.2076C70.1973 25.9618 70.092 25.7687 69.8813 25.6282C69.6706 25.4878 69.3195 25.3737 68.8279 25.2859L68.0378 25.1279C66.5103 24.8294 65.3691 24.3641 64.6141 23.7321C63.8767 23.0824 63.508 22.1607 63.508 20.9668C63.508 20.3172 63.6485 19.729 63.9294 19.2023C64.2103 18.6756 64.6054 18.2366 65.1145 17.8855C65.6237 17.5344 66.2294 17.2622 66.9317 17.0691C67.6515 16.876 68.4416 16.7794 69.3019 16.7794C69.9515 16.7794 70.5573 16.8321 71.1191 16.9374C71.6985 17.0252 72.1989 17.1656 72.6202 17.3588C73.0416 17.5519 73.3752 17.8065 73.621 18.1225C73.8668 18.421 73.9897 18.7809 73.9897 19.2023C73.9897 19.6061 73.9107 19.9573 73.7527 20.2557C73.6122 20.5366 73.4279 20.7737 73.1996 20.9668C73.0592 20.879 72.8485 20.7912 72.5676 20.7034C72.2867 20.5981 71.9794 20.5103 71.6458 20.4401C71.3122 20.3523 70.9699 20.2821 70.6187 20.2294C70.2851 20.1767 69.9779 20.1504 69.697 20.1504C69.1176 20.1504 68.6699 20.2206 68.3538 20.3611C68.0378 20.484 67.8798 20.6859 67.8798 20.9668C67.8798 21.1599 67.9676 21.3179 68.1431 21.4408C68.3187 21.5637 68.6523 21.6779 69.1439 21.7832L69.9603 21.9676C71.6458 22.3538 72.8397 22.8893 73.542 23.574C74.2618 24.2412 74.6218 25.1103 74.6218 26.1813ZM81.2634 25.6019C81.2634 26.0584 81.4038 26.3832 81.6847 26.5763C81.9832 26.7695 82.3958 26.866 82.9225 26.866C83.1859 26.866 83.458 26.8485 83.7389 26.8134C84.0198 26.7607 84.2656 26.6992 84.4763 26.629C84.6343 26.8221 84.766 27.0416 84.8714 27.2874C84.9943 27.5156 85.0557 27.7966 85.0557 28.1302C85.0557 28.7973 84.8011 29.3416 84.292 29.763C83.8004 30.1844 82.9225 30.395 81.6584 30.395C80.1134 30.395 78.9195 30.0439 78.0767 29.3416C77.2515 28.6393 76.8389 27.4981 76.8389 25.9179V14.6462C77.0321 14.5935 77.3042 14.5408 77.6553 14.4882C78.024 14.4179 78.4103 14.3828 78.8141 14.3828C79.5866 14.3828 80.1836 14.5233 80.605 14.8042C81.0439 15.0676 81.2634 15.6382 81.2634 16.516V18.2015H84.7134C84.8187 18.3947 84.9153 18.6405 85.003 18.9389C85.1084 19.2198 85.1611 19.5359 85.1611 19.887C85.1611 20.5015 85.0206 20.9492 84.7397 21.2302C84.4763 21.4935 84.1164 21.6252 83.6599 21.6252H81.2634V25.6019ZM87.2519 25.1015C87.129 24.9084 87.0149 24.6538 86.9095 24.3378C86.8042 24.0218 86.7515 23.6882 86.7515 23.337C86.7515 22.6874 86.9007 22.2221 87.1992 21.9412C87.4977 21.6427 87.8839 21.4935 88.358 21.4935H93.9939C94.0992 21.6866 94.2046 21.9412 94.3099 22.2573C94.4328 22.5733 94.4942 22.9069 94.4942 23.258C94.4942 23.9076 94.345 24.3817 94.0465 24.6802C93.7481 24.9611 93.3618 25.1015 92.8878 25.1015H87.2519ZM96.5357 13.6454C96.5357 12.9782 96.7552 12.4164 97.1941 11.9599C97.6506 11.5034 98.2475 11.2752 98.9849 11.2752C99.7223 11.2752 100.31 11.5034 100.749 11.9599C101.206 12.4164 101.434 12.9782 101.434 13.6454C101.434 14.3126 101.206 14.8744 100.749 15.3309C100.31 15.7874 99.7223 16.0156 98.9849 16.0156C98.2475 16.0156 97.6506 15.7874 97.1941 15.3309C96.7552 14.8744 96.5357 14.3126 96.5357 13.6454ZM101.223 29.9737C101.03 30.0088 100.741 30.0527 100.354 30.1053C99.9857 30.1756 99.6082 30.2107 99.222 30.2107C98.8357 30.2107 98.4845 30.1844 98.1685 30.1317C97.87 30.079 97.6155 29.9737 97.4048 29.8156C97.1941 29.6576 97.0273 29.4469 96.9044 29.1836C96.799 28.9027 96.7464 28.5427 96.7464 28.1038V17.3851C96.9395 17.35 97.2204 17.3061 97.5891 17.2534C97.9754 17.1832 98.3616 17.1481 98.7479 17.1481C99.1342 17.1481 99.4765 17.1744 99.775 17.2271C100.091 17.2798 100.354 17.3851 100.565 17.5431C100.776 17.7011 100.934 17.9206 101.039 18.2015C101.162 18.4649 101.223 18.816 101.223 19.255V29.9737ZM108.551 25.6019C108.551 26.0584 108.691 26.3832 108.972 26.5763C109.271 26.7695 109.683 26.866 110.21 26.866C110.473 26.866 110.745 26.8485 111.026 26.8134C111.307 26.7607 111.553 26.6992 111.764 26.629C111.922 26.8221 112.053 27.0416 112.159 27.2874C112.282 27.5156 112.343 27.7966 112.343 28.1302C112.343 28.7973 112.089 29.3416 111.579 29.763C111.088 30.1844 110.21 30.395 108.946 30.395C107.401 30.395 106.207 30.0439 105.364 29.3416C104.539 28.6393 104.126 27.4981 104.126 25.9179V14.6462C104.32 14.5935 104.592 14.5408 104.943 14.4882C105.312 14.4179 105.698 14.3828 106.102 14.3828C106.874 14.3828 107.471 14.5233 107.892 14.8042C108.331 15.0676 108.551 15.6382 108.551 16.516V18.2015H112.001C112.106 18.3947 112.203 18.6405 112.291 18.9389C112.396 19.2198 112.449 19.5359 112.449 19.887C112.449 20.5015 112.308 20.9492 112.027 21.2302C111.764 21.4935 111.404 21.6252 110.947 21.6252H108.551V25.6019ZM121.232 30.4214C120.196 30.4214 119.231 30.2809 118.335 30C117.458 29.7015 116.685 29.2626 116.018 28.6832C115.368 28.1038 114.85 27.3752 114.464 26.4973C114.095 25.6195 113.911 24.5924 113.911 23.416C113.911 22.2573 114.095 21.2653 114.464 20.4401C114.85 19.5973 115.351 18.9126 115.965 18.3859C116.58 17.8416 117.282 17.4466 118.072 17.2008C118.862 16.9374 119.67 16.8057 120.495 16.8057C121.425 16.8057 122.268 16.9462 123.023 17.2271C123.796 17.508 124.454 17.8943 124.998 18.3859C125.56 18.8775 125.99 19.4656 126.289 20.1504C126.605 20.8351 126.763 21.5813 126.763 22.3889C126.763 22.9859 126.596 23.4424 126.263 23.7584C125.929 24.0744 125.464 24.2763 124.867 24.3641L118.362 25.3385C118.555 25.9179 118.95 26.3569 119.547 26.6553C120.144 26.9363 120.829 27.0767 121.601 27.0767C122.321 27.0767 122.997 26.9889 123.629 26.8134C124.279 26.6202 124.805 26.4008 125.209 26.155C125.49 26.3305 125.727 26.5763 125.92 26.8924C126.113 27.2084 126.21 27.542 126.21 27.8931C126.21 28.6832 125.841 29.2714 125.104 29.6576C124.542 29.9561 123.91 30.158 123.208 30.2634C122.505 30.3687 121.847 30.4214 121.232 30.4214ZM120.495 20.0714C120.074 20.0714 119.705 20.1416 119.389 20.2821C119.09 20.4225 118.845 20.6069 118.651 20.8351C118.458 21.0458 118.309 21.2916 118.204 21.5725C118.116 21.8359 118.063 22.108 118.046 22.3889L122.549 21.6515C122.496 21.3004 122.303 20.9492 121.97 20.5981C121.636 20.2469 121.145 20.0714 120.495 20.0714ZM135.054 16.8057C135.774 16.8057 136.476 16.9111 137.161 17.1218C137.863 17.3149 138.469 17.6134 138.978 18.0172C139.505 17.666 140.093 17.3763 140.743 17.1481C141.41 16.9198 142.209 16.8057 143.139 16.8057C143.806 16.8057 144.456 16.8935 145.088 17.0691C145.738 17.2447 146.308 17.5256 146.8 17.9118C147.309 18.2805 147.713 18.7809 148.011 19.413C148.31 20.0275 148.459 20.7824 148.459 21.6779V29.9737C148.284 30.0263 148.003 30.079 147.616 30.1317C147.248 30.1844 146.861 30.2107 146.458 30.2107C146.071 30.2107 145.72 30.1844 145.404 30.1317C145.106 30.079 144.851 29.9737 144.64 29.8156C144.43 29.6576 144.263 29.4469 144.14 29.1836C144.035 28.9027 143.982 28.5427 143.982 28.1038V21.8095C143.982 21.2828 143.833 20.9053 143.534 20.6771C143.236 20.4313 142.832 20.3084 142.323 20.3084C142.077 20.3084 141.814 20.3698 141.533 20.4927C141.252 20.5981 141.041 20.7122 140.901 20.8351C140.918 20.9053 140.927 20.9756 140.927 21.0458C140.927 21.0985 140.927 21.1511 140.927 21.2038V29.9737C140.734 30.0263 140.444 30.079 140.058 30.1317C139.689 30.1844 139.312 30.2107 138.926 30.2107C138.539 30.2107 138.188 30.1844 137.872 30.1317C137.574 30.079 137.319 29.9737 137.108 29.8156C136.898 29.6576 136.731 29.4469 136.608 29.1836C136.503 28.9027 136.45 28.5427 136.45 28.1038V21.8095C136.45 21.2828 136.283 20.9053 135.95 20.6771C135.634 20.4313 135.247 20.3084 134.791 20.3084C134.475 20.3084 134.203 20.3611 133.974 20.4664C133.746 20.5542 133.553 20.642 133.395 20.7298V29.9737C133.219 30.0263 132.939 30.079 132.552 30.1317C132.184 30.1844 131.797 30.2107 131.393 30.2107C131.007 30.2107 130.656 30.1844 130.34 30.1317C130.042 30.079 129.787 29.9737 129.576 29.8156C129.366 29.6576 129.199 29.4469 129.076 29.1836C128.971 28.9027 128.918 28.5427 128.918 28.1038V20.1504C128.918 19.6763 129.014 19.2989 129.208 19.0179C129.418 18.737 129.699 18.4737 130.05 18.2279C130.647 17.8065 131.385 17.4641 132.263 17.2008C133.158 16.9374 134.089 16.8057 135.054 16.8057Z" fill="#4A4A4A"/>
</svg>
