<svg width="90" height="90" viewBox="0 0 90 90" fill="none" xmlns="http://www.w3.org/2000/svg">
<circle opacity="0.0585938" cx="45" cy="45" r="45" fill="#67CABC"/>
<path d="M24.2969 37.3392C24.5616 37.9228 25.25 38.1809 25.8446 37.9228C26.4347 37.66 26.6969 36.9719 26.4324 36.386L23.7584 30.4829C23.4937 29.8992 23.7584 29.2087 24.3437 28.9461L35.0231 24.1774C35.3111 24.0496 35.6295 24.0402 35.9175 24.1495C36.2102 24.2589 36.442 24.4774 36.5684 24.7587L42.2652 37.3369C42.4642 37.7693 42.8904 38.0251 43.3376 38.0251C43.4969 38.0251 43.6608 37.9925 43.8176 37.9228C44.4077 37.66 44.6699 36.9719 44.4054 36.386L38.7086 23.8077C38.3222 22.959 37.6291 22.308 36.7511 21.9779C35.873 21.6478 34.92 21.678 34.0655 22.0593L23.3861 26.8278C21.6206 27.616 20.8315 29.6853 21.6253 31.4383L24.2969 37.3392Z" fill="#67CABC"/>
<path d="M49.1831 37.1903C49.3283 37.6855 49.7872 38.025 50.3047 38.025H69.5866C70.1064 38.025 70.563 37.6855 70.7082 37.1903L72.7734 30.2153C72.942 29.6433 72.6493 29.0365 72.0943 28.811C71.5371 28.5901 70.9002 28.8133 70.6192 29.3388C70.1696 30.1804 68.2403 31.05 65.8004 31.05C63.1194 31.05 61.1174 29.8224 61.1174 28.725V21.75C61.1175 19.1855 59.0172 17.1 56.4346 17.1C53.8519 17.1 51.7516 19.1855 51.7516 21.75V22.9126C51.7516 23.5542 52.2761 24.075 52.9224 24.075C53.5686 24.075 54.0931 23.5542 54.0931 22.9125V21.75C54.0931 20.4689 55.1445 19.4251 56.4346 19.4251C57.7246 19.4251 58.776 20.469 58.776 21.75V28.725C58.776 29.8224 56.774 31.05 54.093 31.05C51.6533 31.05 49.7239 30.1804 49.272 29.3388C48.991 28.8134 48.3471 28.5948 47.7969 28.811C47.2419 29.0365 46.9492 29.6433 47.1178 30.2153L49.1831 37.1903Z" fill="#67CABC"/>
<path fill-rule="evenodd" clip-rule="evenodd" d="M71.6557 40.35H20.1434C19.4972 40.35 18.9727 40.8708 18.9727 41.5125V62.4375C18.9727 68.2058 23.7001 72.9 29.5092 72.9H62.2898C68.0989 72.9 72.8264 68.2058 72.8264 62.4375V41.5125C72.8264 40.8708 72.3019 40.35 71.6557 40.35ZM46.7191 65.5763C46.5084 65.8087 46.204 65.925 45.8996 65.925C45.5952 65.925 45.2907 65.8087 45.08 65.5763C44.8459 65.367 44.7288 65.0648 44.7288 64.7625C44.7288 64.4603 44.8459 64.1579 45.08 63.9487C45.5249 63.507 46.2742 63.507 46.719 63.9487C46.9531 64.1579 47.0702 64.4602 47.0702 64.7625C47.0703 65.0648 46.9532 65.367 46.7191 65.5763ZM47.0726 60.1125L47.0749 58.1107C50.1821 57.2272 51.7556 55.4602 51.7556 52.8469C51.7556 49.8011 49.1285 47.325 45.8996 47.325C42.8182 47.325 40.2472 49.5941 40.0482 52.4935C40.0038 53.1352 40.4931 53.6886 41.137 53.7327C41.8184 53.7723 42.3406 53.2933 42.3851 52.6516C42.4998 50.9683 44.0428 49.6523 45.8973 49.6523C47.836 49.6523 49.4118 51.0868 49.4118 52.8492C49.4118 54.9301 47.6228 55.6206 45.8715 56.0205L45.6116 56.0833C45.0941 56.2135 44.7335 56.6762 44.7335 57.2063L44.7311 60.1125C44.7311 60.752 45.2556 61.2751 45.9019 61.2751C46.5481 61.2751 47.0726 60.7542 47.0726 60.1125Z" fill="#67CABC"/>
<path d="M26.4207 29.4271C25.7745 29.4271 25.2617 29.948 25.2617 30.5897C25.2617 31.2314 25.7979 31.7522 26.4441 31.7522C27.0904 31.7522 27.6149 31.2314 27.6149 30.5897C27.6149 29.948 27.0904 29.4271 26.4441 29.4271H26.4207V29.4271Z" fill="#67CABC"/>
</svg>
