<svg width="298" height="199" viewBox="0 0 298 199" fill="none" xmlns="http://www.w3.org/2000/svg">
<rect x="16.3125" y="146.33" width="34.7232" height="37.8444" rx="5.07192" fill="#F6FFFE" stroke="#D4D4D7" stroke-width="1.56059"/>
<path d="M14.9473 191.197C14.5163 191.197 14.167 190.848 14.167 190.417L14.167 185.735C14.167 185.304 14.5163 184.955 14.9473 184.955L52.5966 184.955C53.0275 184.955 53.3769 185.304 53.3769 185.735L53.3769 190.417C53.3769 190.848 53.0275 191.197 52.5966 191.197L14.9473 191.197Z" fill="#F6FFFE"/>
<path fill-rule="evenodd" clip-rule="evenodd" d="M15.7276 189.637L51.8163 189.637L51.8163 186.515L15.7276 186.515L15.7276 189.637ZM14.167 190.417C14.167 190.848 14.5163 191.197 14.9473 191.197L52.5966 191.197C53.0275 191.197 53.3769 190.848 53.3769 190.417L53.3769 185.735C53.3769 185.304 53.0275 184.955 52.5966 184.955L14.9473 184.955C14.5163 184.955 14.167 185.304 14.167 185.735L14.167 190.417Z" fill="#D4D4D7"/>
<path d="M31.334 169.349C31.334 168.918 31.6833 168.568 32.1143 168.568H36.7961C37.227 168.568 37.5764 168.918 37.5764 169.349V198.22C37.5764 198.651 37.227 199 36.7961 199H32.1143C31.6833 199 31.334 198.651 31.334 198.22V169.349Z" fill="#F6FFFE"/>
<path fill-rule="evenodd" clip-rule="evenodd" d="M32.8946 170.129V197.439H36.0158V170.129H32.8946ZM32.1143 168.568C31.6833 168.568 31.334 168.918 31.334 169.349V198.22C31.334 198.651 31.6833 199 32.1143 199H36.7961C37.227 199 37.5764 198.651 37.5764 198.22V169.349C37.5764 168.918 37.227 168.568 36.7961 168.568H32.1143Z" fill="#D4D4D7"/>
<path d="M9.48633 169.349C9.48633 168.918 9.83568 168.568 10.2666 168.568H14.9484C15.3793 168.568 15.7287 168.918 15.7287 169.349V198.22C15.7287 198.651 15.3793 199 14.9484 199H10.2666C9.83568 199 9.48633 198.651 9.48633 198.22V169.349Z" fill="#F6FFFE"/>
<path fill-rule="evenodd" clip-rule="evenodd" d="M11.0469 170.129V197.439H14.1681V170.129H11.0469ZM10.2666 168.568C9.83568 168.568 9.48633 168.918 9.48633 169.349V198.22C9.48633 198.651 9.83568 199 10.2666 199H14.9484C15.3793 199 15.7287 198.651 15.7287 198.22V169.349C15.7287 168.918 15.3793 168.568 14.9484 168.568H10.2666Z" fill="#D4D4D7"/>
<path d="M51.8164 169.349C51.8164 168.918 52.1658 168.568 52.5967 168.568H57.2785C57.7094 168.568 58.0588 168.918 58.0588 169.349V198.22C58.0588 198.651 57.7094 199 57.2785 199H52.5967C52.1658 199 51.8164 198.651 51.8164 198.22V169.349Z" fill="#F6FFFE"/>
<path fill-rule="evenodd" clip-rule="evenodd" d="M53.377 170.129V197.439H56.4982V170.129H53.377ZM52.5967 168.568C52.1658 168.568 51.8164 168.918 51.8164 169.349V198.22C51.8164 198.651 52.1658 199 52.5967 199H57.2785C57.7094 199 58.0588 198.651 58.0588 198.22V169.349C58.0588 168.918 57.7094 168.568 57.2785 168.568H52.5967Z" fill="#D4D4D7"/>
<path d="M31.8604 84.4915C26.9349 106.934 24.4246 119.536 28.5243 142.666L31.4792 143.457L34.5119 144.27C39.6549 120.909 37.3071 107.825 31.8604 84.4915Z" fill="#F6FFFE"/>
<path fill-rule="evenodd" clip-rule="evenodd" d="M31.0977 84.3243L32.6197 84.3142C38.0758 107.687 40.4538 120.907 35.2735 144.438L35.098 145.235L27.8421 143.291L27.7555 142.802C23.6282 119.517 26.1666 106.792 31.0977 84.3243ZM31.8819 88.0455C27.497 108.236 25.4602 120.552 29.2062 142.041L33.9229 143.305C38.5576 121.744 36.6891 109.008 31.8819 88.0455Z" fill="#D4D4D7"/>
<path d="M44.4795 100.527C35.5722 114.755 30.7992 122.849 29.8326 141.269L32.3189 143.051L34.8706 144.88C44.1568 130.076 44.6778 119.645 44.4795 100.527Z" fill="#F6FFFE"/>
<path fill-rule="evenodd" clip-rule="evenodd" d="M45.2324 97.8538L45.2601 100.518C45.3592 110.072 45.2812 117.531 43.9994 124.463C42.7132 131.419 40.221 137.819 35.532 145.295L35.0909 145.998L29.0314 141.654L29.0537 141.228C29.5405 131.95 30.9888 125.236 33.4535 119.038C35.9112 112.857 39.3699 107.219 43.8184 100.112L45.2324 97.8538ZM43.7221 103.214C39.9573 109.272 37.0398 114.242 34.9037 119.614C32.5507 125.531 31.1365 131.963 30.6353 140.884L34.6478 143.76C38.9614 136.735 41.2587 130.702 42.4648 124.179C43.5961 118.061 43.7722 111.491 43.7221 103.214Z" fill="#D4D4D7"/>
<path d="M57.5381 113.465C47.6584 121.324 38.1458 131.484 33.9673 146.232L39.5269 146.232L41.5752 146.232C51.8698 138.063 54.1805 129.293 57.5381 113.465Z" fill="#F6FFFE"/>
<path fill-rule="evenodd" clip-rule="evenodd" d="M58.7529 111.502L58.3022 113.627C54.9452 129.452 52.5952 138.484 42.061 146.844L41.848 147.013L32.936 147.013L33.2174 146.02C37.4588 131.049 47.1112 120.763 57.0532 112.854L58.7529 111.502ZM56.3134 115.464C47.3562 122.885 39.0111 132.294 35.0104 145.452L41.3028 145.452C50.7157 137.893 53.2125 129.817 56.3134 115.464Z" fill="#D4D4D7"/>
<path d="M12.6064 93.8552C13.8797 114.69 14.8935 126.915 26.9444 146.233H30.7483H34.3572C33.0504 124.541 26.2974 113.035 12.6064 93.8552Z" fill="#F6FFFE"/>
<path fill-rule="evenodd" clip-rule="evenodd" d="M11.6621 91.189L13.2419 93.4021C20.0885 102.993 25.241 110.72 28.8388 118.784C32.4447 126.865 34.4781 135.258 35.1364 146.186L35.1863 147.013H26.5118L26.2827 146.646C20.2197 136.927 16.9164 128.963 14.975 120.794C13.038 112.642 12.464 104.311 11.828 93.903L11.6621 91.189ZM13.555 96.5372C14.1346 105.691 14.7614 113.145 16.4933 120.433C18.3656 128.312 21.5366 136.022 27.3785 145.452H33.5258C32.8263 135.092 30.843 127.106 27.4137 119.42C24.1633 112.135 19.6046 105.098 13.555 96.5372Z" fill="#D4D4D7"/>
<path d="M28.2129 25.7745C28.2129 23.6198 29.9596 21.873 32.1144 21.873H84.0041C86.1588 21.873 87.9055 23.6198 87.9055 25.7745V64.009C87.9055 66.1638 86.1588 67.9105 84.004 67.9105H32.1144C29.9596 67.9105 28.2129 66.1638 28.2129 64.009V25.7745Z" fill="#F6FFFE"/>
<path fill-rule="evenodd" clip-rule="evenodd" d="M84.0041 23.2386H32.1144C30.7138 23.2386 29.5784 24.374 29.5784 25.7745V64.009C29.5784 65.4096 30.7138 66.545 32.1144 66.545H84.004C85.4046 66.545 86.54 65.4096 86.54 64.009V25.7745C86.54 24.374 85.4046 23.2386 84.0041 23.2386ZM32.1144 21.873C29.9596 21.873 28.2129 23.6198 28.2129 25.7745V64.009C28.2129 66.1638 29.9596 67.9105 32.1144 67.9105H84.004C86.1588 67.9105 87.9055 66.1638 87.9055 64.009V25.7745C87.9055 23.6198 86.1588 21.873 84.0041 21.873H32.1144Z" fill="#D4D4D7"/>
<path d="M35.8203 31.6267C35.8203 29.472 37.5671 27.7252 39.7218 27.7252H76.3957C78.5504 27.7252 80.2972 29.472 80.2972 31.6267V58.1568C80.2972 60.3115 78.5504 62.0582 76.3957 62.0582H39.7218C37.5671 62.0582 35.8203 60.3115 35.8203 58.1568V31.6267Z" fill="#F6FFFE"/>
<path fill-rule="evenodd" clip-rule="evenodd" d="M76.3957 29.0907H39.7218C38.3212 29.0907 37.1858 30.2261 37.1858 31.6267V58.1568C37.1858 59.5573 38.3212 60.6927 39.7218 60.6927H76.3957C77.7963 60.6927 78.9317 59.5573 78.9317 58.1568V31.6267C78.9317 30.2261 77.7963 29.0907 76.3957 29.0907ZM39.7218 27.7252C37.5671 27.7252 35.8203 29.472 35.8203 31.6267V58.1568C35.8203 60.3115 37.5671 62.0582 39.7218 62.0582H76.3957C78.5504 62.0582 80.2972 60.3115 80.2972 58.1568V31.6267C80.2972 29.472 78.5504 27.7252 76.3957 27.7252H39.7218Z" fill="#D4D4D7"/>
<rect x="210.802" y="117.069" width="48.9636" height="68.666" rx="7.80296" fill="#F6FFFE" stroke="#D4D4D7" stroke-width="1.56059"/>
<path d="M229.919 192.953C229.919 195.431 227.91 197.439 225.432 197.439C222.954 197.439 220.945 195.431 220.945 192.953C220.945 190.475 222.954 188.466 225.432 188.466C227.91 188.466 229.919 190.475 229.919 192.953Z" fill="#F6FFFE"/>
<path fill-rule="evenodd" clip-rule="evenodd" d="M225.432 195.879C227.048 195.879 228.358 194.569 228.358 192.953C228.358 191.337 227.048 190.027 225.432 190.027C223.816 190.027 222.506 191.337 222.506 192.953C222.506 194.569 223.816 195.879 225.432 195.879ZM225.432 197.439C227.91 197.439 229.919 195.431 229.919 192.953C229.919 190.475 227.91 188.466 225.432 188.466C222.954 188.466 220.945 190.475 220.945 192.953C220.945 195.431 222.954 197.439 225.432 197.439Z" fill="#D4D4D7"/>
<path d="M252.743 192.953C252.743 195.431 250.734 197.439 248.256 197.439C245.778 197.439 243.77 195.431 243.77 192.953C243.77 190.475 245.778 188.466 248.256 188.466C250.734 188.466 252.743 190.475 252.743 192.953Z" fill="#F6FFFE"/>
<path fill-rule="evenodd" clip-rule="evenodd" d="M248.256 195.879C249.872 195.879 251.182 194.569 251.182 192.953C251.182 191.337 249.872 190.027 248.256 190.027C246.64 190.027 245.33 191.337 245.33 192.953C245.33 194.569 246.64 195.879 248.256 195.879ZM248.256 197.439C250.734 197.439 252.743 195.431 252.743 192.953C252.743 190.475 250.734 188.466 248.256 188.466C245.778 188.466 243.77 190.475 243.77 192.953C243.77 195.431 245.778 197.439 248.256 197.439Z" fill="#D4D4D7"/>
<path d="M223.092 74.3478C223.092 72.4085 224.664 70.8364 226.603 70.8364H243.965C245.904 70.8364 247.476 72.4085 247.476 74.3478V78.4443H223.092V74.3478Z" fill="#F6FFFE"/>
<path fill-rule="evenodd" clip-rule="evenodd" d="M243.965 72.397H226.603C225.526 72.397 224.652 73.2704 224.652 74.3478V76.8837H245.915V74.3478C245.915 73.2704 245.042 72.397 243.965 72.397ZM226.603 70.8364C224.664 70.8364 223.092 72.4085 223.092 74.3478V78.4443H247.476V74.3478C247.476 72.4085 245.904 70.8364 243.965 70.8364H226.603Z" fill="#D4D4D7"/>
<path fill-rule="evenodd" clip-rule="evenodd" d="M50.9395 154.426H15.8262V152.865H50.9395V154.426Z" fill="#D4D4D7"/>
<path fill-rule="evenodd" clip-rule="evenodd" d="M259.57 172.665H210.606V171.104H259.57V172.665Z" fill="#D4D4D7"/>
<path fill-rule="evenodd" clip-rule="evenodd" d="M259.57 135.406H210.606V133.845H259.57V135.406Z" fill="#D4D4D7"/>
<path fill-rule="evenodd" clip-rule="evenodd" d="M259.57 168.959H210.606V167.398H259.57V168.959Z" fill="#D4D4D7"/>
<path fill-rule="evenodd" clip-rule="evenodd" d="M223.092 117.265L223.092 77.8604L224.652 77.8604L224.652 117.265L223.092 117.265Z" fill="#D4D4D7"/>
<path fill-rule="evenodd" clip-rule="evenodd" d="M245.916 117.264L245.916 77.8589L247.477 77.8589L247.477 117.264L245.916 117.264Z" fill="#D4D4D7"/>
<path fill-rule="evenodd" clip-rule="evenodd" d="M259.57 131.7H210.606V130.139H259.57V131.7Z" fill="#D4D4D7"/>
<path fill-rule="evenodd" clip-rule="evenodd" d="M50.9395 158.035H15.8262V156.474H50.9395V158.035Z" fill="#D4D4D7"/>
<rect x="21.2041" y="159.709" width="25.0805" height="7.57148" rx="1.95074" transform="rotate(-18.575 21.2041 159.709)" fill="#21CDB4"/>
<path d="M36.7116 157.326C36.2161 157.493 35.9495 158.03 36.116 158.525C36.2825 159.02 36.8191 159.287 37.3146 159.121L42.0993 157.513C42.5948 157.346 42.8614 156.81 42.6949 156.314C42.5284 155.819 41.9918 155.552 41.4963 155.719L36.7116 157.326Z" fill="white"/>
<path d="M32.5271 159.731C32.3606 159.235 32.6273 158.699 33.1227 158.532L33.4218 158.432C33.9173 158.265 34.4539 158.532 34.6204 159.027C34.7869 159.523 34.5202 160.059 34.0248 160.226L33.7257 160.326C33.2302 160.493 32.6936 160.226 32.5271 159.731Z" fill="white"/>
<path d="M24.3035 162.495C24.137 161.999 24.4036 161.463 24.8991 161.296L30.4314 159.437C30.9269 159.27 31.4635 159.537 31.63 160.033C31.7966 160.528 31.5299 161.065 31.0344 161.231L25.5021 163.09C25.0066 163.257 24.47 162.99 24.3035 162.495Z" fill="white"/>
<path d="M32.5795 160.379C32.635 160.544 32.5461 160.723 32.3809 160.779C32.2158 160.834 32.0369 160.745 31.9814 160.58C31.9259 160.415 32.0148 160.236 32.1799 160.18C32.3451 160.125 32.524 160.214 32.5795 160.379Z" fill="white"/>
<path d="M35.661 157.842C35.6686 157.734 35.5877 157.641 35.4802 157.633C35.3727 157.626 35.2794 157.707 35.2718 157.814L35.1272 159.86C35.1196 159.967 35.2006 160.061 35.308 160.068C35.4155 160.076 35.5088 159.995 35.5164 159.887L35.661 157.842Z" fill="white"/>
<rect x="216.817" y="136.464" width="35.2597" height="10.6444" rx="1.95074" transform="rotate(-18.575 216.817 136.464)" fill="#21CDB4"/>
<path d="M238.618 133.115C237.921 133.349 237.547 134.104 237.781 134.8C238.015 135.497 238.769 135.872 239.466 135.638L246.192 133.377C246.889 133.143 247.264 132.389 247.03 131.692C246.796 130.995 246.041 130.621 245.345 130.855L238.618 133.115Z" fill="white"/>
<path d="M232.736 136.496C232.502 135.799 232.877 135.045 233.573 134.811L233.994 134.67C234.69 134.436 235.445 134.81 235.679 135.507C235.913 136.204 235.538 136.958 234.841 137.192L234.421 137.333C233.724 137.567 232.97 137.193 232.736 136.496Z" fill="white"/>
<path d="M221.175 140.381C220.941 139.684 221.316 138.93 222.013 138.696L229.79 136.082C230.487 135.848 231.241 136.223 231.475 136.92C231.709 137.616 231.334 138.371 230.638 138.605L222.86 141.218C222.164 141.452 221.409 141.078 221.175 140.381Z" fill="white"/>
<path d="M232.809 137.407C232.887 137.639 232.762 137.891 232.529 137.969C232.297 138.047 232.046 137.922 231.968 137.69C231.89 137.458 232.015 137.206 232.247 137.128C232.479 137.05 232.731 137.175 232.809 137.407Z" fill="white"/>
<path d="M237.061 133.835C237.069 133.727 236.988 133.634 236.881 133.626C236.773 133.619 236.68 133.7 236.672 133.807L236.469 136.683C236.461 136.79 236.542 136.884 236.65 136.891C236.757 136.899 236.85 136.818 236.858 136.71L237.061 133.835Z" fill="white"/>
<rect x="45.6035" y="49.9529" width="25.0805" height="7.57148" rx="1.95074" transform="rotate(4.06093 45.6035 49.9529)" fill="#21CDB4"/>
<path d="M60.8338 53.7221C60.3124 53.6851 59.8597 54.0778 59.8227 54.5992C59.7857 55.1206 60.1784 55.5732 60.6998 55.6103L65.7347 55.9677C66.2561 56.0047 66.7088 55.6121 66.7458 55.0907C66.7828 54.5693 66.3902 54.1166 65.8688 54.0796L60.8338 53.7221Z" fill="white"/>
<path d="M56.0454 54.3314C56.0824 53.81 56.5351 53.4173 57.0565 53.4543L57.3712 53.4767C57.8925 53.5137 58.2852 53.9664 58.2482 54.4877C58.2112 55.0091 57.7585 55.4018 57.2371 55.3648L56.9224 55.3424C56.401 55.3054 56.0084 54.8527 56.0454 54.3314Z" fill="white"/>
<path d="M47.3921 53.7169C47.4291 53.1955 47.8818 52.8028 48.4031 52.8398L54.2248 53.2531C54.7462 53.2901 55.1389 53.7428 55.1019 54.2642C55.0649 54.7856 54.6122 55.1783 54.0908 55.1412L48.2691 54.7279C47.7477 54.6909 47.355 54.2382 47.3921 53.7169Z" fill="white"/>
<path d="M55.8435 54.9491C55.8311 55.1229 55.6802 55.2537 55.5064 55.2414C55.3326 55.2291 55.2018 55.0782 55.2141 54.9044C55.2264 54.7306 55.3773 54.5997 55.5511 54.612C55.7249 54.6244 55.8558 54.7753 55.8435 54.9491Z" fill="white"/>
<path d="M59.6644 53.7936C59.7128 53.6974 59.674 53.5801 59.5777 53.5317C59.4814 53.4834 59.3642 53.5222 59.3158 53.6185L58.395 55.4507C58.3467 55.547 58.3855 55.6642 58.4817 55.7126C58.578 55.761 58.6953 55.7222 58.7436 55.6259L59.6644 53.7936Z" fill="white"/>
<path fill-rule="evenodd" clip-rule="evenodd" d="M226.603 186.561H224.262V188.511H226.603V186.561ZM222.701 185V190.072H228.163V185H222.701Z" fill="#D4D4D7"/>
<path fill-rule="evenodd" clip-rule="evenodd" d="M249.427 186.561H247.086V188.511H249.427V186.561ZM245.525 185V190.072H250.987V185H245.525Z" fill="#D4D4D7"/>
<path fill-rule="evenodd" clip-rule="evenodd" d="M0.219727 198.22C0.219727 197.789 0.569077 197.439 1.00002 197.439H297.22C297.651 197.439 298 197.789 298 198.22C298 198.651 297.651 199 297.22 199H1.00002C0.569077 199 0.219727 198.651 0.219727 198.22Z" fill="#D4D4D7"/>
<path d="M117.236 197.44H118H121.13H140.965V192.368C136.861 169.727 135.796 157.014 137.613 133.9L113.887 132.035C112.024 155.732 112.544 170.192 116.337 192.368H109.558C108.158 192.368 107.022 193.503 107.022 194.904C107.022 196.304 108.158 197.44 109.558 197.44H117.236Z" fill="#21CDB4"/>
<path d="M155.479 197.44C155.486 197.46 155.493 197.48 155.5 197.5L155.771 197.44H186.612C188.013 197.44 189.148 196.304 189.148 194.904C189.148 193.503 188.013 192.368 186.612 192.368H178.553L179.298 192.202C171.286 169.561 167.011 151.133 163.585 125.72L139.999 128.901C143.577 155.436 146.806 172.745 155.206 196.665V197.44H155.479Z" fill="#21CDB4"/>
<path d="M77.4559 95.877C70.357 116.635 71.7406 129.982 73.5428 147.368C73.7611 149.474 73.9856 151.639 74.2018 153.884L74.2756 153.877L75.6199 164.882C75.8379 166.667 77.4616 167.937 79.2464 167.719C80.3064 167.589 81.1848 166.964 81.6779 166.104L81.7228 166.536C81.9088 168.325 83.5094 169.624 85.2979 169.438C87.0617 169.255 88.3495 167.695 88.2064 165.937C88.8584 166.897 90.0036 167.476 91.2383 167.348C93.0268 167.162 94.3259 165.561 94.14 163.772L93.2258 154.981C93.4238 154.492 93.7741 154.328 94.3104 154.334L96.3257 155.459C97.5891 156.164 99.1851 155.712 99.8904 154.448C100.596 153.185 100.143 151.589 98.8799 150.884L95.0628 148.753C94.9413 147.538 94.8218 146.363 94.7059 145.224C92.9549 128.014 92.0338 118.96 97.575 102.757L77.4559 95.877Z" fill="#21CDB4"/>
<path d="M81.5005 166.56C81.6993 168.471 83.4101 169.86 85.3217 169.661C85.4447 169.648 85.5341 169.538 85.5213 169.415C85.5085 169.292 85.3984 169.202 85.2753 169.215C83.6109 169.388 82.1212 168.18 81.9465 166.516L81.3195 158.331C81.3101 158.208 81.2024 158.116 81.079 158.125C80.9556 158.135 80.8633 158.242 80.8727 158.366L81.5 166.553L81.5005 166.56Z" fill="#242448"/>
<path d="M87.44 164.469C87.6388 166.381 89.3495 167.769 91.2611 167.57C91.3842 167.558 91.4736 167.448 91.4608 167.324C91.448 167.201 91.3378 167.112 91.2148 167.125C89.5496 167.298 88.0593 166.089 87.8858 164.424L87.298 158.375C87.286 158.252 87.1764 158.162 87.0533 158.174C86.9301 158.186 86.84 158.295 86.852 158.419L87.4398 164.468L87.44 164.469Z" fill="#242448"/>
<circle cx="112.647" cy="19.3147" r="8.33878" transform="rotate(-15 112.647 19.3147)" fill="#32C0AC"/>
<circle cx="130.903" cy="89.167" r="57.9545" transform="rotate(-15 130.903 89.167)" fill="#32C0AC"/>
<circle cx="111.734" cy="19.1279" r="8.33878" transform="rotate(-15 111.734 19.1279)" fill="#21CDB4"/>
<circle cx="129.344" cy="87.6079" r="57.9545" transform="rotate(-15 129.344 87.6079)" fill="#21CDB4"/>
<circle cx="130.904" cy="89.1671" r="44.6125" transform="rotate(-15 130.904 89.1671)" fill="#E1E8EB"/>
<circle cx="129.336" cy="87.5758" r="44.6125" transform="rotate(-15 129.336 87.5758)" fill="#F3F8FB"/>
<path d="M116.557 59.1975L119.108 54.1887C119.557 53.3062 120.672 53.0074 121.503 53.547L126.216 56.6094C127.427 57.3961 127.134 59.2451 125.739 59.6188L123.323 60.2663L136.539 109.59L141.277 112.325L143.759 121.588L137.375 117.903L133.69 124.286L131.208 115.023L134.075 110.058L120.906 60.9138L118.475 61.5652C117.08 61.9389 115.902 60.4842 116.557 59.1975Z" fill="#E1ECF1"/>
<path d="M131.752 86.5714C132.109 87.9059 131.317 89.2777 129.983 89.6353C128.648 89.9929 127.277 89.2009 126.919 87.8663C126.561 86.5318 127.353 85.1601 128.688 84.8025C130.022 84.4449 131.394 85.2369 131.752 86.5714Z" fill="#F3F8FB"/>
<path fill-rule="evenodd" clip-rule="evenodd" d="M129.551 88.0243C129.996 87.9051 130.26 87.4479 130.141 87.003C130.022 86.5582 129.564 86.2942 129.12 86.4134C128.675 86.5326 128.411 86.9899 128.53 87.4347C128.649 87.8795 129.106 88.1435 129.551 88.0243ZM129.983 89.6353C131.317 89.2777 132.109 87.9059 131.752 86.5714C131.394 85.2369 130.022 84.4449 128.688 84.8025C127.353 85.1601 126.561 86.5318 126.919 87.8663C127.277 89.2009 128.648 89.9929 129.983 89.6353Z" fill="#E1ECF1"/>
<path d="M101.253 68.0247C101.704 67.9298 101.992 67.4875 101.897 67.0369C101.802 66.5862 101.36 66.2978 100.909 66.3927C98.9293 66.8097 97.3378 67.3207 96.1716 68.4039C94.9848 69.5063 94.3592 71.0825 94.0035 73.3326C93.9316 73.7875 94.2421 74.2145 94.697 74.2864C95.1519 74.3583 95.5789 74.0479 95.6508 73.593C95.9826 71.4937 96.5202 70.3564 97.3066 69.6259C98.1136 68.8763 99.3054 68.4349 101.253 68.0247Z" fill="#242448"/>
<path d="M108.465 78.9577C109.33 82.1828 108.362 85.2442 106.305 85.7955C104.247 86.3467 101.879 84.1792 101.015 80.954C100.151 77.7289 101.118 74.6675 103.175 74.1162C105.233 73.5649 107.601 75.7325 108.465 78.9577Z" fill="#242448"/>
<path d="M150.753 67.6271C151.617 70.8522 150.649 73.9136 148.592 74.4649C146.535 75.0162 144.166 72.8486 143.302 69.6235C142.438 66.3983 143.405 63.3369 145.463 62.7857C147.52 62.2344 149.888 64.402 150.753 67.6271Z" fill="#242448"/>
<path d="M142.83 56.0691C142.973 56.5069 143.444 56.7457 143.881 56.6025C145.773 55.9839 147.026 55.7703 148.1 56.016C149.146 56.2554 150.18 56.9716 151.517 58.6237C151.807 58.9817 152.332 59.037 152.69 58.7473C153.048 58.4576 153.103 57.9325 152.814 57.5745C151.381 55.8037 150.051 54.7515 148.472 54.3902C146.92 54.0352 145.286 54.3885 143.363 55.0174C142.925 55.1605 142.687 55.6314 142.83 56.0691Z" fill="#242448"/>
<path d="M107 95.0258C106.736 94.6487 106.216 94.5573 105.839 94.8217C105.462 95.0861 105.37 95.6061 105.635 95.9832C111.659 104.576 122.802 106.893 132.924 104.333C143.061 101.768 152.429 94.2593 154.956 82.8706C155.056 82.421 154.772 81.9757 154.323 81.8759C153.873 81.7761 153.428 82.0597 153.328 82.5093C150.967 93.1496 142.186 100.269 132.515 102.716C122.829 105.166 112.504 102.876 107 95.0258Z" fill="#242448"/>
<path d="M187.482 4.61346C187.367 2.61778 185.656 1.09345 183.66 1.20877C181.692 1.32251 180.182 2.98873 180.251 4.94908C179.576 3.84968 178.334 3.14745 176.956 3.22708C174.96 3.3424 173.436 5.05369 173.551 7.04937L174.118 16.8605C173.873 17.3928 173.476 17.5565 172.881 17.5227L170.7 16.1701C169.333 15.3223 167.537 15.7434 166.69 17.1104C165.842 18.4775 166.263 20.273 167.63 21.1208L174.262 25.2332C174.366 26.5691 174.469 27.8461 174.568 29.0706C175.13 36.0266 175.554 41.2868 175.247 46.0089C174.874 51.7242 173.496 54.518 170.729 56.8036L184.271 73.1965C193.004 65.9821 195.854 56.7689 196.465 47.3911C196.881 40.9949 196.269 33.4441 195.652 25.8477C195.451 23.3647 195.249 20.8766 195.083 18.4226L195.06 18.4241L194.176 6.76184C194.025 4.76856 192.286 3.27517 190.293 3.42626C189.109 3.51601 188.101 4.16582 187.51 5.09645L187.482 4.61346Z" fill="#21CDB4"/>
<path d="M183.646 0.985274C185.765 0.862819 187.582 2.48151 187.705 4.60071L187.705 4.60679L187.984 13.7316C187.988 13.8553 187.89 13.9586 187.767 13.9624C187.643 13.9662 187.54 13.869 187.536 13.7453L187.257 4.62357C187.147 2.7529 185.543 1.32451 183.672 1.43263C183.548 1.43977 183.442 1.34541 183.435 1.22188C183.428 1.09834 183.522 0.992412 183.646 0.985274Z" fill="#242448"/>
<path d="M176.942 3.00358C179.061 2.88113 180.878 4.49982 181 6.61903L181.001 6.62053L181.345 13.3683C181.351 13.4919 181.256 13.5972 181.133 13.6035C181.009 13.6098 180.904 13.5147 180.897 13.3911L180.553 6.64488C180.445 4.7731 178.839 3.34277 176.967 3.45094C176.844 3.45808 176.738 3.36372 176.731 3.24019C176.724 3.11665 176.818 3.01072 176.942 3.00358Z" fill="#242448"/>
<path d="M176.919 18.9869C176.795 18.9801 176.69 19.0747 176.683 19.1983C176.676 19.3218 176.771 19.4275 176.894 19.4343C178.84 19.5418 180.204 19.8485 181.324 20.5939C182.445 21.34 183.35 22.5451 184.331 24.5135C184.386 24.6243 184.521 24.6693 184.632 24.6141C184.742 24.5589 184.787 24.4244 184.732 24.3137C183.739 22.3196 182.79 21.0314 181.572 20.2208C180.353 19.4095 178.893 19.096 176.919 18.9869Z" fill="#242448"/>
</svg>
