<svg xmlns="http://www.w3.org/2000/svg" xmlns:xlink="http://www.w3.org/1999/xlink" height="19.072" width="139.59"><defs><path id="a" d="M130.63 16.36c.15-.1.32-.22.51-.36-.42.29-.8.51-1.14.68"/><path id="b" d="M135.695 8.484c.365 0 .615.286.615.697 0 .28-.09.61-.33 1.03-.15-.15-.3-.27-.42-.39-.55-.49-.64-1.24.03-1.33a.742.742 0 0 1 .105-.007zM126.95 1.82c1.03 0 1.12 1.61 1.06 3.51-.15 3.79-1 6.13-1.79 7.43-.18.3-.45.61-.57.73-.03-.22-.03-.52-.03-.79v-8.3c.09-1.09.06-2.58 1.33-2.58zm-9.292 6.997c.934 0 1.834.342 2.542.943l-6.21 4.15c-.61-1.95.36-4.08 2.27-4.83a3.85 3.85 0 0 1 1.398-.263zm18.532 4.123c.24.21.55.49.85.76.76.7.94 1.51.39 2.21-.371.484-1.007.818-1.734.818-.507 0-1.058-.162-1.596-.548-.21-.15-.42-.3-.63-.39.9-.79 1.81-1.76 2.72-2.85zM126.99 0c-2.45 0-3.16 1.977-3.16 4.401v8.3c0 .88.07 1.65.21 2.31-1.03.75-1.71 1.2-2.97 1.51-.67.16-1.04.26-1.73.29-.24.01-.417.017-.581.017-.314 0-.577-.024-1.129-.097-1.03-.12-1.96-.45-2.8-1.31l7.8-5.27c.13-.09.05-.21.05-.21s-.13-.25-.37-.57c-1.144-1.472-2.884-2.366-4.696-2.366-.674 0-1.357.124-2.024.386-2.9 1.14-4.35 4.5-3.19 7.46.92 2.35 3.15 3.57 5.57 3.69.214.006.406.01.59.01.722 0 1.34-.067 2.78-.37 1.37-.29 2.48-.94 3.28-1.51.28.51.63.93 1.03 1.27.527.452 1.274.612 2.034.612 1.073 0 2.172-.318 2.716-.582.35-.17.7-.38 1.04-.62.01-.01.02-.01.03-.02.216-.113.392-.17.568-.17.29 0 .578.157 1.032.48.952.699 1.892.896 2.63.896.224 0 .429-.018.61-.046 1-.16 1.94-.67 2.55-1.46.42-.54.73-1.27.73-2.03 0-.91-.43-1.79-1.37-2.63-.36-.34-.91-.85-.94-.88.58-.79.82-1.58.82-2.31 0-1.45-1.06-2.48-2.51-2.48-1.31 0-2.37 1-2.37 2.27 0 .76.4 1.55 1.15 2.21.16.12.34.31.52.49-.91 1.15-1.58 1.91-2.73 3-.27.26-.53.49-.78.68-.09.08-.17.14-.25.19-.03.02-.06.05-.09.07-.19.14-.36.26-.51.36-.1.05-.33.18-.63.32-.06.03-.11.05-.16.07-.494.214-1.146.427-1.773.427-.753 0-1.47-.308-1.837-1.297 1.3-1.22 3.43-3.76 3.67-10.09.12-3.28-.55-5.34-2.7-5.4L126.99 0z"/><path id="c" d="M82.12 1.821c1.03 0 1.12 1.61 1.06 3.51-.15 3.79-1 6.13-1.78 7.43-.19.3-.46.61-.58.73-.03-.22-.03-.52-.03-.79v-8.3c.09-1.09.06-2.58 1.33-2.58zm10.03 6.88c2.12 0 3.82 1.7 3.91 3.82v.33c-.09 2.09-1.79 3.79-3.91 3.79-2.15 0-3.91-1.79-3.91-3.97s1.76-3.97 3.91-3.97zm13.49 0c2.18 0 3.91 1.79 3.91 3.97s-1.73 3.97-3.91 3.97c-2.15 0-3.91-1.79-3.91-3.97s1.76-3.97 3.91-3.97zM82.16 0C79.709 0 79 1.977 79 4.401v8.3c0 2.66.67 4.27 1.82 5.24.527.452 1.273.612 2.034.612 1.074 0 2.176-.318 2.726-.582.75-.36 1.51-.93 2.22-1.59a5.624 5.624 0 0 0 4.35 2.08c1.55 0 2.94-.61 3.97-1.64.216 1.187.908 1.5 1.53 1.5.154 0 .303-.02.44-.05.97-.23 2.13-1.02 3.13-1.97 1.04 1.31 2.64 2.16 4.42 2.16 3.15 0 5.72-2.61 5.72-5.79s-2.57-5.79-5.72-5.79c-1.52 0-2.88.61-3.91 1.61V.431c0-.15-.15-.15-.15-.15h-1.49s-.15 0-.15.15v12.24c0 .8.16 1.56.45 2.25v.01c-.55.5-1.03.81-1.36 1.04-.416.238-.692.348-.869.348-.21 0-.281-.155-.281-.438v-8.7c0-.15-.15-.15-.15-.15h-1.52s-.15 0-.15.15v1.28c-1.03-.97-2.42-1.58-3.91-1.58-3.12 0-5.69 2.61-5.69 5.79 0 .83.18 1.63.5 2.35-.51.45-.95.73-1.26.95-.257.143-1.449.817-2.562.817-.754 0-1.47-.308-1.838-1.297 1.31-1.22 3.43-3.76 3.67-10.09.12-3.28-.54-5.34-2.7-5.4L82.16 0z"/><path id="d" d="M66.669 8.484c.372 0 .623.286.623.697 0 .28-.09.61-.33 1.03-.16-.15-.31-.27-.43-.39-.54-.49-.64-1.24.03-1.33a.776.776 0 0 1 .107-.007zM54.952 1.82c1.03 0 1.12 1.61 1.06 3.51-.16 3.79-1 6.13-1.79 7.43-.18.3-.46.61-.58.73-.03-.22-.03-.52-.03-.79v-8.3c.09-1.09.06-2.58 1.34-2.58zm-9.303 6.997c.934 0 1.835.342 2.543.943l-6.21 4.15c-.6-1.95.36-4.08 2.27-4.83a3.85 3.85 0 0 1 1.397-.263zm21.523 4.123c.24.21.54.49.85.76.75.7.94 1.51.39 2.21-.378.484-1.016.818-1.742.818-.506 0-1.055-.162-1.588-.548-.22-.15-.43-.3-.64-.39.91-.79 1.82-1.76 2.73-2.85zM54.99 0c-2.46 0-3.17 1.977-3.17 4.401v8.3c0 .89.08 1.65.23 2.31-1.04.75-1.71 1.2-2.98 1.51-.68.16-1.04.26-1.74.29a13.5 13.5 0 0 1-.574.017c-.312 0-.577-.024-1.135-.097-1.02-.12-1.95-.45-2.8-1.31l7.81-5.27c.13-.09.04-.21.04-.21s-.12-.25-.37-.57c-1.138-1.472-2.876-2.366-4.687-2.366-.674 0-1.357.124-2.023.386-2.91 1.14-4.35 4.5-3.19 7.46.92 2.35 3.15 3.57 5.57 3.69.214.006.42.01.625.01.8 0 1.582-.067 2.745-.37 1.31-.34 2.51-1.03 3.29-1.54.28.52.62.94 1.01 1.3.907.833 2.093 1.131 3.298 1.131 1.676 0 3.389-.577 4.442-1.1 1.18-.59 1.428-.973 1.702-.973.195 0 .402.193.968.642a4.003 4.003 0 0 0 2.552.903c.254 0 .486-.022.688-.053 1-.16 1.94-.67 2.54-1.46.43-.54.73-1.27.73-2.03 0-.91-.42-1.79-1.36-2.63-.37-.34-.91-.85-.94-.88.57-.79.82-1.58.82-2.31 0-1.45-1.06-2.48-2.52-2.48-1.3 0-2.36 1-2.36 2.27 0 .76.39 1.55 1.15 2.21.15.12.33.31.51.49-.9 1.15-1.57 1.91-2.72 3l-.03.03c-.91.86-1.7 1.33-2.36 1.65-.623.271-2.21 1.151-3.742 1.151-1.124 0-2.218-.474-2.878-2.01 1.3-1.22 3.42-3.76 3.66-10.09.13-3.28-.54-5.34-2.69-5.4C55.064 0 55.027 0 54.99 0z"/><path id="e" d="M63.49 2.64c-.351 1.955-1.122 2.324-1.499 2.354-.126.011-.215-.002-.186-.185l.211-1.295a1.28 1.28 0 0 1-.999-1.463 1.237 1.237 0 0 1 1.436-1.034"/><path id="f" d="M20.21 8.42c2.13 0 3.82 1.7 3.91 3.82v.33c-.09 2.09-1.78 3.79-3.91 3.79-2.15 0-3.9-1.79-3.9-3.97s1.75-3.97 3.9-3.97zm13.49 0c2.18 0 3.91 1.79 3.91 3.97s-1.73 3.97-3.91 3.97c-2.15 0-3.91-1.79-3.91-3.97s1.76-3.97 3.91-3.97zM28.15 0S28 0 28 .15v12.24c0 .8.16 1.56.45 2.25.01 0 .01 0 0 .01-.55.5-1.02.81-1.36 1.04-.416.238-.692.348-.869.348-.21 0-.281-.156-.281-.438V6.9c0-.15-.15-.15-.15-.15h-1.51s-.16 0-.16.15v1.28c-1.03-.97-2.42-1.58-3.91-1.58-3.12 0-5.69 2.61-5.69 5.79 0 .85.18 1.65.51 2.38-.5.43-.92.7-1.26.91-.402.238-.67.348-.844.348-.205 0-.276-.156-.276-.438v-5.25c0-2-.88-3.76-3.04-3.76-1.06 0-2.15.46-2.85 1.18-.54-.75-1.39-1.18-2.4-1.18-.88 0-1.79.31-2.57.82v-.51c0-.16-.16-.16-.16-.16H.15s-.15 0-.15.16v10.98c0 .15.12.15.12.15h1.51s.16 0 .16-.15v-7.4c0-1.16 1.45-2.07 2.54-2.07 1.19 0 1.37 1.34 1.37 1.94v7.53c0 .15.15.15.15.15h1.49s.15 0 .15-.15v-7.53c0-1.18 1.03-1.94 2.12-1.94 1.13 0 1.22 1.12 1.22 1.94v5.31c0 1.932.825 2.392 1.575 2.392.158 0 .312-.02.455-.052.94-.23 2.02-.96 3.01-1.87 1.05 1.26 2.61 2.06 4.34 2.06 1.55 0 2.94-.61 3.97-1.64.224 1.186.912 1.499 1.53 1.499.154 0 .303-.02.44-.049.97-.23 2.13-1.02 3.13-1.97 1.04 1.31 2.64 2.16 4.42 2.16 3.15 0 5.73-2.61 5.73-5.79S36.85 6.6 33.7 6.6c-1.52 0-2.88.61-3.91 1.61V.15c0-.15-.15-.15-.15-.15h-1.49z"/></defs><use xlink:href="#a" fill="#ED2B74"/><use xlink:href="#b" fill="#ED2B74"/><use xlink:href="#c" fill="#ED2B74"/><use xlink:href="#d" fill="#ED2B74"/><use xlink:href="#e" fill="#ED2B74"/><use xlink:href="#f" fill="#ED2B74"/></svg>