<svg width="531" height="297" viewBox="0 0 531 207" fill="none" xmlns="http://www.w3.org/2000/svg">
<g filter="url(#filter0_d)">
<path d="M0 4C0 1.79086 1.79086 0 4 0H527C529.209 0 531 1.79086 531 4V222H0V4Z" fill="url(#paint0_radial)"/>
</g>
<mask id="mask0" mask-type="alpha" maskUnits="userSpaceOnUse" x="0" y="0" width="531" height="222">
<path d="M0 4C0 1.79086 1.79086 0 4 0H527C529.209 0 531 1.79086 531 4V222H0V4Z" fill="white"/>
</mask>
<g mask="url(#mask0)">
<circle cx="83.5" cy="69.5" r="152.5" fill="url(#paint1_radial)"/>
<circle opacity="0.142811" cx="426.5" cy="287.5" r="152.5" fill="url(#paint2_radial)"/>
<path d="M332.249 219.44L332.387 219.694H198.613L198.752 219.44C201.081 214.735 203.872 210.375 207.078 206.385L207.124 206.408C208.785 208.853 211.576 210.468 214.758 210.468C219.856 210.468 223.984 206.339 223.984 201.242C223.984 198.105 222.416 195.337 220.017 193.677C224.792 189.986 229.981 186.896 235.517 184.474V203.641C235.517 207.423 238.561 210.468 242.344 210.468H242.528C246.311 210.468 249.355 207.423 249.355 203.641C249.355 207.423 252.4 210.468 256.182 210.468H256.367C260.126 210.468 263.194 207.423 263.194 203.641V178.224C263.955 178.2 264.739 178.177 265.5 178.177C269.975 178.177 274.403 178.57 278.716 179.354L277.056 201.08C277.033 201.196 277.033 201.288 277.033 201.403C277.033 203.871 279.016 205.855 281.484 205.855H282.153C284.459 205.855 286.397 204.079 286.581 201.749L288.127 181.683C296.868 184.474 305.056 188.856 312.183 194.599C310.43 196.283 309.323 198.636 309.323 201.242C309.323 206.339 313.452 210.468 318.549 210.468C321.063 210.468 323.346 209.453 325.007 207.815C327.775 211.413 330.196 215.311 332.249 219.44Z" fill="#69D6F4"/>
<path d="M223.984 201.242C223.984 206.339 219.856 210.468 214.759 210.468C211.576 210.468 208.785 208.853 207.124 206.408L207.078 206.385C210.861 201.588 215.22 197.321 220.017 193.677C222.416 195.337 223.984 198.105 223.984 201.242Z" fill="#A0D468"/>
<path d="M325.006 207.815C323.345 209.453 321.062 210.468 318.548 210.468C313.451 210.468 309.322 206.339 309.322 201.242C309.322 198.636 310.429 196.283 312.182 194.599C316.957 198.405 321.27 202.833 325.006 207.815Z" fill="#A0D468"/>
<path d="M334.693 85.9194V118.21H292.992L295.46 86.0808C295.483 86.0116 295.483 85.9655 295.483 85.9194H334.693Z" fill="#E6E9ED"/>
<path d="M286.582 201.749C286.397 204.079 284.46 205.855 282.154 205.855H281.485C279.017 205.855 277.033 203.871 277.033 201.403C277.033 201.288 277.033 201.196 277.056 201.08L278.717 179.354L280.908 150.754L281.992 136.892L285.936 85.4119C286.121 83.0824 288.058 81.3065 290.364 81.3065H291.033C293.501 81.3065 295.485 83.29 295.485 85.7579V85.9194C295.485 85.9194 295.485 86.0116 295.462 86.0808L292.994 118.21L291.103 142.958L290.065 156.381L288.127 181.683L286.582 201.749Z" fill="#CF9E76"/>
<path d="M263.194 178.224V203.641C263.194 207.423 260.127 210.468 256.367 210.468H256.183C252.4 210.468 249.355 207.423 249.355 203.641V164.339V162.032H263.194V178.224Z" fill="#838F9B"/>
<path d="M249.354 162.032V164.339V203.641C249.354 207.423 246.31 210.468 242.527 210.468C242.481 210.468 242.412 210.468 242.343 210.468C238.56 210.468 235.516 207.423 235.516 203.641V184.474V162.032H249.354Z" fill="#838F9B"/>
<path d="M302.404 153.383V154.329C302.404 155.805 301.804 157.166 300.813 158.134C299.844 159.126 298.483 159.726 297.007 159.726C296.015 159.726 295.023 159.449 294.193 158.919L290.064 156.381L291.102 142.958L300.005 148.909C301.504 149.9 302.404 151.584 302.404 153.383Z" fill="#FCD770"/>
<path d="M281.991 136.892L280.907 150.754L265.5 141.274H263.194V162.032H249.355H235.516V146.487C235.516 141.805 233.141 137.422 229.197 134.885L198.775 115.188C197.229 114.196 196.307 112.49 196.307 110.668V109.768C196.307 106.793 198.728 104.371 201.704 104.371C202.696 104.371 203.687 104.648 204.518 105.178L227.651 119.409C231.296 121.646 235.47 122.823 239.737 122.823H246.472L244.742 141.274L249.355 148.194L253.968 141.274L252.238 122.823H253.899C258.466 122.823 262.917 124.16 266.7 126.697L281.991 136.892Z" fill="#FCD770"/>
<path d="M252.238 122.823L253.968 141.274L249.355 148.194L244.742 141.274L246.472 122.823H249.355H252.238Z" fill="#E6E9ED"/>
<circle cx="249.354" cy="106.677" r="16.1452" fill="#F0D0B4"/>
<path fill-rule="evenodd" clip-rule="evenodd" d="M337 83.6129H297.412C296.513 80.942 294.012 79 291.042 79H290.373C286.867 79 283.912 81.7378 283.645 85.2297L279.985 132.782L267.975 124.776C265.65 123.224 263.106 122.096 260.444 121.386C264.907 118.016 267.806 112.686 267.806 106.677C267.806 96.5037 259.529 88.2258 249.355 88.2258C239.181 88.2258 230.903 96.5037 230.903 106.677C230.903 112.088 233.258 116.948 236.981 120.325C234.111 119.94 231.344 118.964 228.857 117.437L205.733 103.206C204.522 102.459 203.127 102.065 201.699 102.065C197.455 102.065 194 105.517 194 109.763V110.663C194 113.285 195.315 115.703 197.515 117.13L227.942 136.816C231.24 138.947 233.21 142.568 233.21 146.498V182.993C217.413 190.305 204.471 202.817 196.678 218.407L194.881 222H336.119L334.322 218.404C325.359 200.478 309.47 186.614 290.553 180.087L292.073 160.335L292.974 160.891C294.188 161.638 295.583 162.032 297.011 162.032C301.255 162.032 304.71 158.579 304.71 154.333V153.385C304.71 150.807 303.427 148.41 301.282 146.98L293.5 141.793L295.136 120.516H337V83.6129ZM332.387 115.903H295.491L297.62 88.2258H332.387V115.903ZM290.373 83.6129C289.263 83.6129 288.327 84.4801 288.242 85.5826L279.346 201.249C279.339 202.591 280.296 203.548 281.474 203.548H282.143C283.253 203.548 284.189 202.681 284.275 201.579L293.17 85.9124C293.177 84.5701 292.218 83.6129 291.042 83.6129H290.373ZM276.608 176.699C272.934 176.162 269.209 175.889 265.498 175.894L265.5 143.982L278.508 151.988L276.608 176.699ZM251.661 164.339V203.65C251.661 206.139 253.684 208.161 256.17 208.161C258.86 208.161 260.882 206.139 260.882 203.652L260.885 164.339H251.661ZM247.048 203.65C247.048 206.136 245.026 208.159 242.332 208.159C239.845 208.159 237.823 206.136 237.823 203.65V164.339H247.048V203.65ZM249.355 144.035L251.594 140.675L250.137 125.129H249.355H248.573L247.115 140.675L249.355 144.035ZM235.516 106.677C235.516 99.0454 241.723 92.8387 249.355 92.8387C256.987 92.8387 263.194 99.0454 263.194 106.677C263.194 114.309 256.987 120.516 249.355 120.516C241.723 120.516 235.516 114.309 235.516 106.677ZM200.024 113.258L230.449 132.941C235.066 135.928 237.823 140.995 237.823 146.498V159.726H260.885L260.887 138.968H266.153L278.907 146.817L279.581 138.057L265.419 128.616C262.243 126.497 258.576 125.353 254.777 125.194L256.341 141.874L249.355 152.352L242.369 141.874L243.939 125.129H239.739C235.041 125.129 230.442 123.828 226.44 121.365L203.316 107.134C202.829 106.834 202.271 106.677 201.699 106.677C199.999 106.677 198.613 108.064 198.613 109.763V110.663C198.613 111.715 199.141 112.683 200.024 113.258ZM219.959 196.696C221.055 197.946 221.677 199.558 221.677 201.242C221.677 205.057 218.573 208.161 214.758 208.161C213.024 208.161 211.381 207.509 210.122 206.371C213.088 202.84 216.379 199.602 219.959 196.696ZM318.548 208.161C319.669 208.161 320.74 207.864 321.711 207.356C318.938 203.938 315.859 200.783 312.524 197.925C311.959 198.935 311.629 200.059 311.629 201.242C311.629 205.057 314.734 208.161 318.548 208.161ZM308.894 194.998C307.687 196.846 307.016 198.984 307.016 201.242C307.016 207.601 312.189 212.774 318.548 212.774C320.693 212.774 322.742 212.158 324.531 211.061C325.975 213.095 327.329 215.201 328.558 217.387H202.439C203.888 214.811 205.537 212.368 207.278 210.002C209.343 211.764 211.979 212.774 214.758 212.774C221.117 212.774 226.29 207.601 226.29 201.242C226.29 198.539 225.319 195.96 223.629 193.914C226.662 191.756 229.858 189.83 233.21 188.155V203.65C233.21 208.68 237.301 212.772 242.539 212.772C245.268 212.772 247.692 211.543 249.364 209.64C251.059 211.545 253.534 212.774 256.373 212.774C261.404 212.774 265.495 208.683 265.495 203.652L265.498 180.509C269.089 180.512 272.698 180.779 276.253 181.312L274.747 200.891C274.733 201.067 274.726 201.237 274.726 201.413C274.726 205.135 277.752 208.161 281.474 208.161H282.143C285.649 208.161 288.604 205.424 288.871 201.932L290.186 184.838C296.916 187.288 303.217 190.731 308.894 194.998ZM300.097 153.385C300.097 152.352 299.582 151.393 298.722 150.818L293.094 147.066L292.472 155.164L295.394 156.963C295.881 157.263 296.439 157.419 297.011 157.419C298.711 157.419 300.097 156.033 300.097 154.333V153.385Z" fill="black"/>
<path d="M323.162 92.8387H327.775V97.4516H323.162V92.8387Z" fill="black"/>
<path d="M313.936 92.8387H318.548V97.4516H313.936V92.8387Z" fill="black"/>
<path d="M304.709 92.8387H309.322V97.4516H304.709V92.8387Z" fill="black"/>
<path d="M297.791 196.629H302.404V201.242H297.791V196.629Z" fill="black"/>
<path d="M290.871 208.161H295.484V212.774H290.871V208.161Z" fill="black"/>
</g>
<defs>
<filter id="filter0_d" x="-60" y="-45" width="651" height="342" filterUnits="userSpaceOnUse" color-interpolation-filters="sRGB">
<feFlood flood-opacity="0" result="BackgroundImageFix"/>
<feColorMatrix in="SourceAlpha" type="matrix" values="0 0 0 0 0 0 0 0 0 0 0 0 0 0 0 0 0 0 127 0"/>
<feOffset dy="15"/>
<feGaussianBlur stdDeviation="30"/>
<feColorMatrix type="matrix" values="0 0 0 0 0.967646 0 0 0 0 0.967646 0 0 0 0 0.967646 0 0 0 1 0"/>
<feBlend mode="normal" in2="BackgroundImageFix" result="effect1_dropShadow"/>
<feBlend mode="normal" in="SourceGraphic" in2="effect1_dropShadow" result="shape"/>
</filter>
<radialGradient id="paint0_radial" cx="0" cy="0" r="1" gradientUnits="userSpaceOnUse" gradientTransform="translate(265.5 -102.384) rotate(90) scale(324.384 775.891)">
<stop stop-color="#A3FFEC"/>
<stop offset="1" stop-color="#67CABC"/>
</radialGradient>
<radialGradient id="paint1_radial" cx="0" cy="0" r="1" gradientUnits="userSpaceOnUse" gradientTransform="translate(83.5 -223.662) rotate(90) scale(445.662)">
<stop stop-color="#A3FFEC"/>
<stop offset="1" stop-color="#67CABC"/>
</radialGradient>
<radialGradient id="paint2_radial" cx="0" cy="0" r="1" gradientUnits="userSpaceOnUse" gradientTransform="translate(426.5 -5.66238) rotate(90) scale(445.662)">
<stop stop-color="#A3FFEC"/>
<stop offset="1" stop-color="#67CABC"/>
</radialGradient>
</defs>
</svg>
