<svg width="20" height="21" viewBox="0 0 20 21" fill="none" xmlns="http://www.w3.org/2000/svg">
<path fill-rule="evenodd" clip-rule="evenodd" d="M19.4341 10.8933L19.7434 11.314C20.2135 11.9572 20.0114 12.8686 19.3104 13.2521L18.8527 13.5036C18.3578 13.7799 18.0898 14.3408 18.1929 14.9016L18.2877 15.4129C18.4321 16.1964 17.8547 16.9304 17.0589 16.9758L16.5393 17.0047C15.9702 17.0377 15.4836 17.4294 15.3352 17.9779L15.1991 18.481C14.9888 19.2521 14.1517 19.6645 13.4135 19.3593L12.931 19.1614C12.4073 18.9428 11.8011 19.0871 11.4259 19.516L11.0836 19.9078C10.5599 20.5098 9.62794 20.5181 9.09598 19.9243L8.74959 19.5366C8.36609 19.1119 7.7599 18.9758 7.23619 19.2026L6.75784 19.4088C6.02382 19.7222 5.18258 19.3263 4.9599 18.5593L4.81557 18.0562C4.65887 17.5078 4.16815 17.1243 3.59908 17.0995L3.07949 17.0789C2.27949 17.0459 1.69392 16.3201 1.82588 15.5325L1.91248 15.017C2.00732 14.4562 1.73516 13.8954 1.23206 13.6274L0.770209 13.3799C0.0650546 13.0047 -0.149378 12.0975 0.312477 11.4459L0.613508 11.0212C0.943405 10.5593 0.935158 9.93663 0.601137 9.47478L0.291859 9.05416C-0.178244 8.41086 0.0238175 7.49952 0.720725 7.11189L1.17846 6.86034C1.6733 6.58405 1.94134 6.02323 1.83825 5.4624L1.74341 4.95106C1.59908 4.16756 2.17639 3.43354 2.97227 3.38818L3.49186 3.35931C4.06093 3.32632 4.54753 2.93457 4.69598 2.38612L4.83207 1.88302C5.04237 1.11189 5.87949 0.699518 6.61763 1.00467L7.10011 1.20261C7.62382 1.42117 8.23 1.27684 8.60526 0.847971L8.94753 0.456219C9.47124 -0.145843 10.4032 -0.15409 10.9393 0.443848L11.2857 0.831477C11.6692 1.25622 12.2754 1.3923 12.7991 1.1655L13.2774 0.959312C14.0114 0.645909 14.8527 1.04179 15.0754 1.8088L15.2197 2.31189C15.3764 2.86034 15.8671 3.24385 16.4362 3.26859L16.9558 3.28921C17.7558 3.3222 18.3413 4.04797 18.2094 4.8356L18.1228 5.35106C18.0279 5.91189 18.3001 6.47271 18.8032 6.74076L19.2651 6.98818C19.9702 7.36344 20.1846 8.27065 19.7228 8.9222L19.4218 9.34694C19.0919 9.8088 19.1001 10.4315 19.4341 10.8933ZM11.0465 14.481C11.6114 14.3243 12.098 14.0191 12.4733 13.5655C13.5084 12.3078 13.1125 10.4645 11.6568 9.64385C11.2595 9.4239 10.8439 9.25279 10.4257 9.08062C10.3577 9.05265 10.2898 9.02466 10.2218 8.99643C9.94134 8.88096 9.66918 8.74488 9.43413 8.55519C8.96402 8.18405 9.05475 7.57787 9.6032 7.33869C9.75578 7.27271 9.92072 7.24797 10.0857 7.23972C10.7207 7.20673 11.3228 7.3222 11.896 7.59849C12.1846 7.73869 12.2795 7.69333 12.3743 7.39643C12.4548 7.15174 12.5253 6.90203 12.5954 6.65318C12.6152 6.58329 12.6349 6.51347 12.6547 6.44385C12.7166 6.22941 12.6383 6.08921 12.4362 5.99849C12.0692 5.83766 11.6898 5.71807 11.2939 5.65622C10.7785 5.57849 10.7784 5.57382 10.7744 5.06644L10.7743 5.05416C10.7723 4.68714 10.7712 4.50364 10.679 4.41189C10.5867 4.32014 10.4032 4.32014 10.0362 4.32014C10.0005 4.32014 9.96471 4.31968 9.92897 4.31922C9.85749 4.3183 9.78602 4.31739 9.71454 4.32014C9.36815 4.32838 9.31042 4.39024 9.30217 4.73663V5.20261C9.29812 5.65634 9.29805 5.65636 8.8797 5.80871C8.8722 5.81143 8.86457 5.81421 8.85681 5.81704C7.79289 6.20467 7.1331 6.93045 7.06299 8.09333C7.00114 9.12426 7.53722 9.81704 8.38258 10.3243C8.7414 10.5407 9.12774 10.6962 9.51446 10.8518C9.68774 10.9215 9.86108 10.9912 10.0321 11.0665C10.2465 11.1614 10.4527 11.2727 10.6341 11.4212C11.1661 11.8583 11.0671 12.5882 10.4362 12.8645C10.098 13.0129 9.73928 13.05 9.3764 13.0047C8.81145 12.9346 8.27124 12.7861 7.76402 12.5222C7.46712 12.3696 7.38052 12.4109 7.27743 12.7325C7.20656 12.9483 7.14577 13.1692 7.0852 13.3891C7.06823 13.4508 7.05128 13.5124 7.03413 13.5737C6.93103 13.9531 6.96815 14.0438 7.32691 14.217C7.78464 14.4397 8.27536 14.5552 8.77846 14.6335C9.17021 14.6954 9.18258 14.7119 9.1867 15.1201V15.1203C9.1867 15.3017 9.1867 15.4872 9.19083 15.6727C9.19495 15.9036 9.30629 16.0397 9.54547 16.0438C9.81763 16.0521 10.0898 16.0521 10.362 16.0438C10.5846 16.0397 10.7001 15.9201 10.7001 15.6933C10.7001 15.6096 10.7015 15.5255 10.7028 15.4412C10.7056 15.2721 10.7084 15.1024 10.7001 14.9346C10.6877 14.6789 10.7991 14.5469 11.0465 14.481Z" fill="#67CABC"/>
</svg>
