<svg width="160" height="160" viewBox="0 0 160 160" fill="none" xmlns="http://www.w3.org/2000/svg">
<circle cx="80" cy="80" r="80" fill="#F6FCFB"/>
<path d="M65.2115 109.152C67.0874 106.776 68.4202 103.778 70.4105 98.3904L79.4832 101.742C77.5089 107.086 75.736 111.431 72.8021 115.146C70.1559 118.497 66.7925 121.068 62.1663 123.683L62.1768 123.702L56.9799 126.537C56.0888 127.022 54.9725 126.694 54.4865 125.803C54.2318 125.336 54.2008 124.807 54.3573 124.34C53.5481 124.592 52.6482 124.243 52.235 123.467C51.9042 122.847 51.9739 122.119 52.3537 121.582C51.7271 121.55 51.133 121.197 50.8205 120.602C50.3502 119.705 50.6959 118.596 51.5927 118.126L55.415 116.122L53.869 115.707C52.8908 115.445 52.3103 114.44 52.5724 113.462C52.8345 112.483 53.84 111.903 54.8181 112.165L60.1544 113.595C62.5073 112.045 64.0271 110.651 65.2115 109.152Z" fill="#242448"/>
<path d="M57.73 116.39C57.6549 116.294 57.5155 116.276 57.4188 116.351C57.322 116.426 57.3045 116.566 57.3797 116.663C58.0491 117.525 58.6759 118.039 59.45 118.248C60.2153 118.455 61.0881 118.353 62.2223 118.073C62.3412 118.043 62.4138 117.923 62.3844 117.804C62.355 117.685 62.2347 117.613 62.1158 117.642C60.9945 117.919 60.2158 117.996 59.5658 117.82C58.9245 117.647 58.3719 117.217 57.73 116.39Z" fill="#111129"/>
<path d="M55.9533 119.286C55.9704 119.165 55.886 119.053 55.7646 119.036C55.6433 119.019 55.5311 119.103 55.514 119.224C55.4798 119.467 55.4681 119.672 55.4922 119.863L53.02 121.197C52.8598 121.284 52.6869 121.345 52.5077 121.377L52.3248 121.41C52.2042 121.432 52.1243 121.548 52.1462 121.668C52.1681 121.789 52.2836 121.869 52.4041 121.847L52.5871 121.814C52.8122 121.773 53.0294 121.697 53.2307 121.588L55.622 120.297C55.6758 120.408 55.7441 120.516 55.826 120.628C55.8982 120.727 56.0369 120.749 56.1359 120.676C56.2349 120.604 56.2566 120.466 56.1845 120.367C56.0499 120.182 55.9802 120.043 55.9474 119.895C55.9139 119.743 55.9144 119.562 55.9533 119.286Z" fill="#111129"/>
<path d="M54.9163 124.339L57.4159 122.99C57.5802 123.108 57.764 123.183 57.9842 123.246C58.1021 123.279 58.2248 123.211 58.2583 123.093C58.2918 122.975 58.2235 122.853 58.1057 122.819C57.886 122.757 57.7455 122.69 57.6282 122.593C57.5085 122.495 57.3975 122.352 57.2583 122.11C57.1971 122.004 57.0614 121.968 56.9553 122.029C56.8492 122.09 56.8128 122.226 56.874 122.332C56.9455 122.456 57.0154 122.566 57.0885 122.662L54.7055 123.948C54.5453 124.035 54.3724 124.095 54.1933 124.128L54.0103 124.161C53.8898 124.183 53.8098 124.299 53.8317 124.419C53.8537 124.54 53.9691 124.62 54.0897 124.598L54.2727 124.564C54.4977 124.523 54.7149 124.447 54.9163 124.339Z" fill="#111129"/>
<path d="M75.8837 119.012L64.437 125.623C63.0777 126.408 62.097 127.713 61.7213 129.237C61.3457 130.762 61.6074 132.373 62.4462 133.7L66.9477 140.843H64.2629V142.883L78.472 142.872V140.843H78.4086L78.4861 140.836L75.4045 132.61L81.6527 129.002L75.8837 119.012Z" fill="#242448"/>
<rect x="35.8945" y="140.395" width="16.8595" height="2.39583" rx="1.06481" fill="#242448"/>
<path d="M44.4132 132.187C44.5357 132.187 44.635 132.286 44.635 132.409V136.136C44.635 136.258 44.5357 136.358 44.4132 136.358C44.2906 136.358 44.1913 136.258 44.1913 136.136V132.409C44.1913 132.286 44.2906 132.187 44.4132 132.187Z" fill="#67CABC"/>
<path d="M40.0855 134.115C40.1721 134.029 40.3126 134.029 40.3992 134.115L43.0345 136.751C43.1211 136.837 43.1211 136.978 43.0345 137.064C42.9479 137.151 42.8074 137.151 42.7208 137.064L40.0855 134.429C39.9988 134.342 39.9988 134.202 40.0855 134.115Z" fill="#67CABC"/>
<path d="M48.4004 134.115C48.4871 134.029 48.6275 134.029 48.7141 134.115C48.8008 134.202 48.8008 134.342 48.7141 134.429L46.0789 137.064C45.9922 137.151 45.8518 137.151 45.7651 137.064C45.6785 136.978 45.6785 136.837 45.7651 136.751L48.4004 134.115Z" fill="#67CABC"/>
<path d="M77.8703 130.575L68.3436 95.0207C58.9215 83.4807 54.6766 76.0451 48.2198 61.7458L47.2041 57.9551L96.483 44.7508L97.5337 48.6722C99.5087 64.4164 99.5673 72.9112 96.7084 87.4203L106.235 122.974L77.8703 130.575Z" fill="#5D5D8D"/>
<path d="M105.465 120.099C105.891 121.687 99.8862 124.676 92.0535 126.774C84.2208 128.873 77.5261 129.287 77.1006 127.699L77.8765 130.595C78.3533 132.159 85.0243 131.74 92.8237 129.65C100.656 127.551 106.661 124.562 106.236 122.974L107.111 126.242L105.465 120.099Z" fill="#242448"/>
<path d="M97.48 90.2959C97.7121 91.1622 91.5506 93.5659 83.7179 95.6646C75.8852 97.7634 69.3474 98.7625 69.1152 97.8962L76.3303 124.823C76.7558 126.411 83.4505 125.997 91.2832 123.899C99.1159 121.8 105.121 118.811 104.695 117.223L97.48 90.2959Z" fill="#242448"/>
<path d="M98.775 95.1277C98.7616 95.1417 98.7459 95.1572 98.7275 95.1742C98.5898 95.3015 98.357 95.4614 98.0213 95.6496C97.3549 96.0232 96.3504 96.4714 95.0749 96.9647C92.5279 97.9496 88.9435 99.098 84.9267 100.174C80.91 101.251 77.2316 102.048 74.5333 102.469C73.1821 102.679 72.0881 102.793 71.3241 102.803C70.9394 102.808 70.6578 102.786 70.4749 102.745C70.4503 102.739 70.4288 102.733 70.4102 102.728L70.6037 103.45C70.8146 103.474 71.0601 103.483 71.3327 103.48C72.1443 103.469 73.2753 103.35 74.6375 103.137C77.3664 102.712 81.0693 101.908 85.1018 100.828C89.1344 99.7473 92.7431 98.5919 95.319 97.5957C96.6049 97.0984 97.6442 96.6367 98.3522 96.2398C98.5899 96.1065 98.7981 95.9763 98.9685 95.85L98.775 95.1277Z" fill="#111129"/>
<path d="M99.9307 99.4407C99.9172 99.4548 99.9014 99.4705 99.8828 99.4877C99.7451 99.615 99.5123 99.7749 99.1766 99.9631C98.5102 100.337 97.5057 100.785 96.2302 101.278C93.6832 102.263 90.0988 103.411 86.082 104.488C82.0652 105.564 78.3869 106.362 75.6886 106.782C74.3374 106.993 73.2433 107.107 72.4794 107.117C72.0946 107.121 71.813 107.099 71.6302 107.058C71.6058 107.052 71.5845 107.047 71.566 107.041L71.7595 107.764C71.9703 107.788 72.2156 107.797 72.4879 107.793C73.2996 107.783 74.4305 107.663 75.7928 107.451C78.5216 107.026 82.2246 106.222 86.2571 105.141C90.2896 104.061 93.8984 102.905 96.4742 101.909C97.7601 101.412 98.7994 100.95 99.5075 100.553C99.7454 100.42 99.9537 100.29 100.124 100.163L99.9307 99.4407Z" fill="#111129"/>
<path d="M101.227 104.277C101.213 104.291 101.197 104.307 101.179 104.324C101.041 104.451 100.808 104.611 100.473 104.799C99.8061 105.173 98.8016 105.621 97.5261 106.115C94.9791 107.1 91.3947 108.248 87.3779 109.324C83.3611 110.4 79.6827 111.198 76.9845 111.619C75.6333 111.829 74.5392 111.943 73.7753 111.953C73.3905 111.958 73.1089 111.936 72.9261 111.894C72.9017 111.889 72.8804 111.883 72.8619 111.878L73.0554 112.6C73.2662 112.624 73.5115 112.633 73.7838 112.63C74.5955 112.619 75.7264 112.499 77.0887 112.287C79.8175 111.862 83.5205 111.058 87.553 109.978C91.5855 108.897 95.1943 107.742 97.7701 106.746C99.056 106.248 100.095 105.787 100.803 105.39C101.041 105.256 101.25 105.126 101.42 105L101.227 104.277Z" fill="#111129"/>
<path d="M102.663 109.637C102.649 109.651 102.634 109.666 102.615 109.683C102.478 109.811 102.245 109.97 101.909 110.159C101.243 110.532 100.238 110.98 98.9626 111.474C96.4156 112.459 92.8312 113.607 88.8144 114.683C84.7976 115.76 81.1193 116.557 78.421 116.978C77.0698 117.188 75.9758 117.302 75.2118 117.312C74.8271 117.317 74.5455 117.295 74.3626 117.254C74.3379 117.248 74.3165 117.242 74.2978 117.237L74.4914 117.959C74.7023 117.983 74.9478 117.992 75.2204 117.989C76.032 117.978 77.1629 117.859 78.5252 117.646C81.254 117.221 84.957 116.417 88.9895 115.337C93.0221 114.256 96.6308 113.101 99.2066 112.105C100.493 111.607 101.532 111.146 102.24 110.749C102.478 110.616 102.686 110.485 102.856 110.359L102.663 109.637Z" fill="#111129"/>
<path d="M103.958 114.472C103.945 114.487 103.929 114.502 103.91 114.52C103.772 114.647 103.54 114.807 103.204 114.995C102.538 115.369 101.533 115.817 100.258 116.31C97.7105 117.295 94.1261 118.443 90.1093 119.52C86.0926 120.596 82.4142 121.394 79.716 121.814C78.3647 122.025 77.2707 122.139 76.5067 122.149C76.122 122.153 75.8404 122.131 75.6575 122.09C75.6333 122.085 75.6122 122.079 75.5938 122.074L75.7874 122.796C75.998 122.82 76.2431 122.829 76.5153 122.825C77.3269 122.815 78.4579 122.695 79.8201 122.483C82.549 122.058 86.2519 121.254 90.2845 120.173C94.317 119.093 97.9257 117.937 100.502 116.941C101.787 116.444 102.827 115.982 103.535 115.585C103.773 115.452 103.981 115.321 104.152 115.195L103.958 114.472Z" fill="#111129"/>
<path d="M48.2182 61.737L47.2061 57.9596C47.4204 58.5188 58.5535 56.0347 72.1242 52.3985C85.7314 48.7524 96.637 45.3285 96.4835 44.7507L97.4994 48.5414C97.6524 49.1193 86.7463 52.5433 73.1393 56.1893C59.5313 59.8355 48.3744 62.3232 48.2197 61.7457C48.2189 61.7428 48.2185 61.74 48.2182 61.737Z" fill="#242448"/>
<ellipse cx="71.8444" cy="51.3528" rx="25.5086" ry="1.08259" transform="rotate(-15 71.8444 51.3528)" fill="#FEE020"/>
<path d="M87.3866 91.3191C87.2319 90.7416 87.5746 90.148 88.1522 89.9932L91.2893 89.1527C91.8668 88.9979 92.4604 89.3406 92.6152 89.9182L93.7912 94.3072C93.9378 94.8544 93.6378 95.4221 93.1031 95.6092L90.029 96.6851C89.4346 96.8931 88.7887 96.5518 88.6257 95.9435L87.3866 91.3191Z" fill="#111129"/>
<path d="M92.1016 90.6162L92.7551 90.4411L93.8759 94.6239C93.9726 94.9849 93.7584 95.3559 93.3975 95.4526V95.4526L92.1016 90.6162Z" fill="#060613"/>
<path d="M86.9575 89.7189C86.8835 89.4428 87.0369 89.1567 87.3079 89.0657L91.4206 87.6835C91.7166 87.584 92.0351 87.7549 92.1159 88.0565L92.87 90.8708C92.9434 91.1444 92.7934 91.4283 92.526 91.5218L88.4272 92.9563C88.13 93.0604 87.8071 92.8897 87.7256 92.5855L86.9575 89.7189Z" fill="#E85355"/>
<path d="M87.0356 89.4879C86.9616 89.2118 87.115 88.9258 87.386 88.8347L91.4988 87.4525C91.7947 87.353 92.1133 87.5239 92.1941 87.8255L92.9482 90.6399C93.0215 90.9135 92.8715 91.1973 92.6041 91.2909L88.5054 92.7254C88.2081 92.8294 87.8852 92.6587 87.8037 92.3546L87.0356 89.4879Z" fill="#FF8F91"/>
<path d="M83.667 49.1744L84.2306 47.0711C85.0604 46.8712 85.8595 46.6816 86.6243 46.5032L86.1016 48.4539C85.3226 48.6875 84.5098 48.928 83.667 49.1744Z" fill="white"/>
<path d="M75.1865 51.5695L75.8263 49.1817C77.315 48.7946 78.7596 48.4254 80.147 48.0769L79.535 50.3611C78.137 50.7559 76.6834 51.1599 75.1865 51.5695Z" fill="white"/>
<path d="M75.8336 69.3519C75.7636 69.6375 75.9382 69.9258 76.2238 69.9959C77.3614 70.2751 78.1438 70.5391 78.7883 70.9043C79.4237 71.2642 79.9537 71.739 80.5562 72.4811C80.7415 72.7093 81.0768 72.7441 81.3051 72.5588C81.5333 72.3734 81.5681 72.0381 81.3828 71.8099C80.7226 70.9967 80.0954 70.421 79.3132 69.9778C78.5401 69.5398 77.6445 69.2481 76.4776 68.9618C76.192 68.8917 75.9037 69.0664 75.8336 69.3519Z" fill="#060613"/>
<path d="M64.1148 73.2638C64.3456 73.0817 64.3852 72.7469 64.203 72.516C64.0209 72.2852 63.6862 72.2457 63.4553 72.4278C62.5551 73.1379 61.8972 73.7793 61.4356 74.5632C60.972 75.3505 60.7318 76.2381 60.5899 77.4C60.5543 77.6919 60.762 77.9574 61.0539 77.993C61.3457 78.0287 61.6112 77.821 61.6469 77.5291C61.7794 76.4438 61.9922 75.7164 62.3532 75.1035C62.7162 74.487 63.2543 73.9426 64.1148 73.2638Z" fill="#060613"/>
<path d="M81.4465 76.1516C81.808 77.5007 81.4103 78.7795 80.5583 79.0078C79.7062 79.2361 78.7224 78.3275 78.3609 76.9784C77.9995 75.6293 78.3971 74.3506 79.2492 74.1223C80.1013 73.894 81.085 74.8025 81.4465 76.1516Z" fill="#060613"/>
<path d="M65.7522 80.357C66.1137 81.7061 65.716 82.9848 64.8639 83.2131C64.0119 83.4414 63.0281 82.5328 62.6666 81.1837C62.3051 79.8346 62.7028 78.5559 63.5549 78.3276C64.4069 78.0993 65.3907 79.0079 65.7522 80.357Z" fill="#060613"/>
<path d="M67.5822 86.3559C67.3024 86.2656 67.0023 86.4192 66.912 86.699C66.8216 86.9788 66.9752 87.2789 67.255 87.3692C70.4156 88.3897 72.8382 88.7549 75.0235 88.1779C77.2151 87.5994 79.069 86.1001 81.1576 83.6342C81.3477 83.4098 81.3198 83.0739 81.0955 82.8838C80.8711 82.6938 80.5351 82.7216 80.3451 82.946C78.3053 85.3543 76.6271 86.6533 74.7517 87.1484C72.87 87.6452 70.6904 87.3595 67.5822 86.3559Z" fill="#060613"/>
<path d="M63.8013 21.0751C64.3428 20.93 64.8993 21.2514 65.0444 21.7928L69.9478 40.0926C70.0929 40.6341 69.7716 41.1906 69.2301 41.3357C68.6887 41.4807 68.1322 41.1594 67.9871 40.618L63.0837 22.3182C62.9386 21.7767 63.2599 21.2202 63.8013 21.0751Z" fill="#FEE020"/>
<path d="M47.8336 31.9387C48.2299 31.5424 48.8725 31.5424 49.2689 31.9387L60.7515 43.4214C61.1479 43.8177 61.1479 44.4604 60.7515 44.8567C60.3552 45.2531 59.7126 45.2531 59.3162 44.8567L47.8336 33.3741C47.4372 32.9777 47.4372 32.3351 47.8336 31.9387Z" fill="#FEE020"/>
<path d="M38.6753 45.6007C38.1339 45.4556 37.5774 45.777 37.4323 46.3184C37.2872 46.8598 37.6085 47.4163 38.15 47.5614L50.6984 50.9238C51.2399 51.0689 51.7964 50.7475 51.9415 50.2061C52.0865 49.6647 51.7652 49.1082 51.2238 48.9631L38.6753 45.6007Z" fill="#FEE020"/>
<path d="M83.0613 22.4997C82.5199 22.3546 81.9634 22.6759 81.8183 23.2173L77.6154 38.9029C77.4703 39.4444 77.7916 40.0009 78.333 40.146C78.8745 40.291 79.431 39.9697 79.5761 39.4283L83.779 23.7427C83.9241 23.2013 83.6028 22.6448 83.0613 22.4997Z" fill="#FEE020"/>
<path d="M97.8233 29.752C98.2196 29.3556 98.8622 29.3556 99.2586 29.752C99.6549 30.1483 99.6549 30.7909 99.2586 31.1873L90.0725 40.3734C89.6761 40.7698 89.0335 40.7698 88.6371 40.3734C88.2408 39.9771 88.2408 39.3344 88.6371 38.9381L97.8233 29.752Z" fill="#FEE020"/>
<path d="M110.998 109.663L111.162 109.968L111.182 109.957L113.299 113.82C113.776 114.691 114.87 115.01 115.741 114.533C116.612 114.055 116.931 112.962 116.454 112.091L114.577 108.666L116.873 112.61C117.372 113.469 118.474 113.76 119.333 113.26C120.191 112.76 120.482 111.659 119.983 110.8L118.26 107.84L119.875 110.233C120.441 111.073 121.581 111.294 122.421 110.728C123.26 110.161 123.481 109.021 122.915 108.182L119.841 103.627L113.841 92.4933C111.898 88.8884 107.703 87.1274 103.77 88.2653L98.8979 89.6743C96.0733 90.4913 94.4458 93.4434 95.2628 96.2681C96.0798 99.0927 99.0319 100.72 101.856 99.9032L105.215 98.9319L108.645 105.296L106.956 110.105C106.621 111.06 107.123 112.107 108.079 112.443C109.034 112.778 110.081 112.275 110.416 111.32L110.998 109.663Z" fill="#5D5D8D"/>
<path d="M110.303 107.93L111.146 109.882" stroke="#242448" stroke-width="0.443672" stroke-linecap="round"/>
<path d="M93.5 120L102.751 142.783L102.751 142.794H116.948V140.753H114.228L104.178 115.635L93.5 120Z" fill="#242448"/>
</svg>
