<svg width="69" height="69" viewBox="0 0 69 69" fill="none" xmlns="http://www.w3.org/2000/svg">
<circle opacity="0.0585938" cx="34.5" cy="34.5" r="34.5" fill="#67CABC"/>
<path d="M55 26.0414H15V16.411C15 15.6317 15.6317 15 16.411 15H53.589C54.3683 15 55 15.6317 55 16.411V26.0414Z" fill="#B1B7BC"/>
<rect x="17.0703" y="26.0414" width="35.8621" height="27.5793" fill="#E7ECED"/>
<path d="M41.2076 23.2827H28.7938C27.2703 23.2827 26.0352 22.0476 26.0352 20.5241C26.0352 19.0007 27.2703 17.7655 28.7938 17.7655H41.2076C42.731 17.7655 43.9662 19.0007 43.9662 20.5241C43.9662 22.0476 42.731 23.2827 41.2076 23.2827Z" fill="#424A60"/>
<rect x="17.0703" y="50.1724" width="35.8621" height="3.44828" fill="#57ABC1"/>
<rect x="25.3438" y="31.5517" width="19.3103" height="9.65517" fill="white"/>
<path d="M28.1037 35.6897H32.2416C32.623 35.6897 32.9313 35.3814 32.9313 35C32.9313 34.6186 32.623 34.3104 32.2416 34.3104H28.1037C27.7223 34.3104 27.4141 34.6186 27.4141 35C27.4141 35.3814 27.7223 35.6897 28.1037 35.6897Z" fill="#C7CAC7"/>
<path d="M35.0022 35.6897C35.1815 35.6897 35.3608 35.6138 35.4918 35.4897C35.6159 35.3586 35.6918 35.1793 35.6918 35C35.6918 34.82 35.6159 34.6407 35.4918 34.5103C35.2297 34.2552 34.7677 34.2552 34.5125 34.5103C34.3877 34.6407 34.3125 34.82 34.3125 35C34.3125 35.1862 34.3877 35.3586 34.5125 35.4897C34.6428 35.6138 34.8153 35.6897 35.0022 35.6897Z" fill="#C7CAC7"/>
<path d="M41.896 37.069H30.8615C30.4802 37.069 30.1719 37.3772 30.1719 37.7586C30.1719 38.14 30.4802 38.4483 30.8615 38.4483H41.896C42.2774 38.4483 42.5857 38.14 42.5857 37.7586C42.5857 37.3772 42.2774 37.069 41.896 37.069Z" fill="#C7CAC7"/>
<path d="M27.6141 37.269C27.4892 37.3993 27.4141 37.5786 27.4141 37.7586C27.4141 37.9379 27.4892 38.1172 27.6141 38.2483C27.7444 38.3724 27.9168 38.4483 28.1037 38.4483C28.2899 38.4483 28.4623 38.3724 28.5934 38.2483C28.7175 38.1172 28.7934 37.9379 28.7934 37.7586C28.7934 37.5786 28.7175 37.3993 28.5934 37.269C28.3382 37.0138 27.8761 37.0138 27.6141 37.269Z" fill="#C7CAC7"/>
<rect x="17.0703" y="26.0345" width="35.8621" height="3.44828" fill="#D7D7E2"/>
</svg>
