<svg width="160" height="160" viewBox="0 0 160 160" fill="none" xmlns="http://www.w3.org/2000/svg">
<circle cx="80" cy="80" r="80" fill="#F6FCFB"/>
<path d="M88.0939 80.6343L77.2929 83.5284L78.9775 68.2134L88.0939 80.6343Z" stroke="#BDD2DB" stroke-width="0.595186"/>
<path d="M87.6236 101.022L78.0373 87.6968C77.9765 87.6123 78.019 87.4931 78.1196 87.4662L89.3453 84.4582C89.4458 84.4313 89.5422 84.5133 89.5318 84.6168L87.8924 100.95C87.8787 101.086 87.7036 101.133 87.6236 101.022Z" fill="#BDD2DB"/>
<path d="M82.3636 86.8913C83.0326 86.2258 84.3261 85.8792 85.2382 86.1211" stroke="#002E4F" stroke-width="1.19037" stroke-linecap="round"/>
<circle cx="71.4618" cy="47.5253" r="4.5823" transform="rotate(-15 71.4618 47.5253)" fill="#32C0AC"/>
<circle cx="81.4937" cy="85.9103" r="31.847" transform="rotate(-15 81.4937 85.9103)" fill="#32C0AC"/>
<circle cx="70.9608" cy="47.4225" r="4.5823" transform="rotate(-15 70.9608 47.4225)" fill="#21CDB4"/>
<circle cx="80.6363" cy="85.0536" r="31.847" transform="rotate(-15 80.6363 85.0536)" fill="#21CDB4"/>
<circle cx="81.4937" cy="85.9104" r="24.5153" transform="rotate(-15 81.4937 85.9104)" fill="#E1E8EB"/>
<circle cx="80.6314" cy="85.0361" r="24.5153" transform="rotate(-15 80.6314 85.0361)" fill="#F3F8FB"/>
<path d="M75.8877 67.3311L84.9901 101.302" stroke="#E1ECF1" stroke-width="1.37469"/>
<path d="M73.609 69.4418L75.0107 66.6894C75.2577 66.2044 75.8703 66.0403 76.3267 66.3368L78.9168 68.0196C79.5821 68.4519 79.4211 69.468 78.6547 69.6733L74.6629 70.7429C73.8965 70.9483 73.249 70.1489 73.609 69.4418Z" fill="#E1ECF1"/>
<path d="M81.6612 99.9407L83.6863 96.4331L87.1939 98.4582L88.5577 103.548L85.0502 101.523L83.025 105.031L81.6612 99.9407Z" fill="#E1ECF1"/>
<circle cx="80.6319" cy="85.036" r="0.91646" transform="rotate(-15 80.6319 85.036)" fill="#F3F8FB" stroke="#E1ECF1" stroke-width="0.91646"/>
<ellipse cx="68.7979" cy="82.9715" rx="1.78556" ry="2.38074" transform="rotate(-15 68.7979 82.9715)" fill="#002E4F"/>
<ellipse cx="89.9268" cy="77.3104" rx="1.78556" ry="2.38074" transform="rotate(-15 89.9268 77.3104)" fill="#002E4F"/>
<path d="M64.7317 80.442C66.8594 79.2753 67.7557 78.3775 68.8867 76.4018" stroke="#002E4F" stroke-width="1.19037" stroke-linecap="round"/>
<path d="M92.1829 73.0863C90.0323 71.7437 88.7982 71.4516 86.5645 71.6649" stroke="#002E4F" stroke-width="1.19037" stroke-linecap="round"/>
<ellipse cx="69.5116" cy="85.6303" rx="3.27352" ry="1.04158" transform="rotate(-15 69.5116 85.6303)" fill="#F3F8FB"/>
<ellipse cx="90.6396" cy="79.9704" rx="3.27352" ry="1.04158" transform="rotate(-15 90.6396 79.9704)" fill="#F3F8FB"/>
<path d="M92.5677 87.2551C92.3213 87.9235 92.0086 88.2075 91.2285 88.5943C91.5013 88.6439 92.0915 88.7431 92.2701 88.7431C92.4933 88.7431 93.1629 88.5199 93.2373 88.4455C93.2968 88.386 93.2621 87.8255 93.2373 87.5527L92.5677 87.2551Z" fill="#21CDB4"/>
<path fill-rule="evenodd" clip-rule="evenodd" d="M99.1128 140.97C92.2394 130.776 89.4179 123.994 86.0548 113.745L98.7791 109.57C101.665 118.366 106.953 129.589 113.323 139.036L99.1128 140.97ZM70.2417 112.06C70.5923 111.258 70.9524 110.436 71.3201 109.588L83.6059 114.917C83.1997 115.853 82.8193 116.725 82.463 117.542C80.3484 122.389 79.0815 125.294 78.3161 128.167C77.5217 131.15 77.4424 133.623 77.9837 139.036L64.4765 140.967C63.8273 134.475 64.0496 129.699 65.3756 124.72C66.4241 120.784 68.1692 116.796 70.2417 112.06Z" fill="#21CDB4"/>
<rect x="61.4678" y="139.036" width="16.5164" height="1.93436" fill="#21CDB4"/>
<rect x="99.1143" y="139.036" width="16.5164" height="1.93436" fill="#21CDB4"/>
<path d="M41.2334 105.705L37.1564 100.394C35.0958 101.975 34.136 104.606 34.6937 107.143C35.2515 109.68 37.2263 111.665 39.7603 112.237L41.2334 105.705ZM57.2439 116.18C60.8513 116.994 64.4352 114.729 65.2488 111.121C66.0624 107.514 63.7975 103.93 60.1901 103.117L57.2439 116.18ZM50.9201 89.8291L37.1564 100.394L45.3104 111.017L59.0741 100.452L50.9201 89.8291ZM39.7603 112.237L57.2439 116.18L60.1901 103.117L42.7065 99.1734L39.7603 112.237Z" fill="#21CDB4"/>
<path d="M97.1106 84.0944C93.5572 85.1185 91.5068 88.8293 92.5309 92.3827C93.5549 95.936 97.2657 97.9865 100.819 96.9624L97.1106 84.0944ZM120.392 84.3534L122.246 90.7873C125.131 89.9557 127.11 87.3047 127.087 84.3019C127.064 81.299 125.045 78.6787 122.147 77.8916L120.392 84.3534ZM100.819 96.9624L122.246 90.7873L118.537 77.9194L97.1106 84.0944L100.819 96.9624ZM122.147 77.8916L110.094 74.6181L106.584 87.5416L118.637 90.8151L122.147 77.8916Z" fill="#21CDB4"/>
<circle cx="59.5344" cy="113.294" r="6.54705" fill="#21CDB4"/>
<path d="M63.3281 118.575C64.2468 117.661 64.2826 117.048 63.7001 115.822" stroke="#002E4F" stroke-width="0.595186" stroke-linecap="round"/>
<path d="M66.0056 115.227C66.2243 113.597 65.9531 112.892 64.8896 111.954" stroke="#002E4F" stroke-width="0.595186" stroke-linecap="round"/>
<path d="M90.7344 85.1823C90.2643 84.4414 90.432 83.4773 91.0637 82.8682V82.8682C91.9742 81.9903 93.4321 82.2139 94.2282 83.1968C95.0003 84.1501 95.873 84.8873 97.2694 85.7443L94.4238 88.488C92.6468 87.5239 91.6842 86.6796 90.7344 85.1823Z" fill="#21CDB4"/>
<path d="M87.5901 93.5605C86.5922 93.8518 85.5471 93.2789 85.2558 92.281V92.281C84.9645 91.283 85.5374 90.2379 86.5353 89.9466L93.7178 87.8502L94.7726 91.464L87.5901 93.5605Z" fill="#21CDB4"/>
<path d="M92.9489 95.8569C91.9669 96.1698 90.9173 95.6273 90.6045 94.6453V94.6453C90.2917 93.6634 90.8341 92.6138 91.8161 92.301L97.3843 90.5271L98.5171 94.0831L92.9489 95.8569Z" fill="#21CDB4"/>
<path d="M94.8549 98.8752C93.8774 99.1973 92.8238 98.6661 92.5016 97.6885V97.6885C92.1795 96.711 92.7108 95.6574 93.6883 95.3352L99.2408 93.5053L100.407 97.0452L94.8549 98.8752Z" fill="#21CDB4"/>
<path d="M62.0668 35.0571C62.7048 37.4384 65.1526 38.8516 67.5339 38.2136C69.9152 37.5755 71.3284 35.1278 70.6904 32.7464L62.0668 35.0571ZM56.2949 9.49167C53.9135 10.1298 52.5003 12.5775 53.1384 14.9588C53.7765 17.3401 56.2242 18.7533 58.6055 18.1153L56.2949 9.49167ZM70.6904 32.7464L70.5363 32.1715L61.9127 34.4822L62.0668 35.0571L70.6904 32.7464ZM78.4274 18.5037L77.8594 16.3837L69.2358 18.6944L69.8039 20.8144L78.4274 18.5037ZM62.8703 7.72978L56.2949 9.49167L58.6055 18.1153L65.181 16.3534L62.8703 7.72978ZM77.8594 16.3837C76.11 9.85489 69.3992 5.98038 62.8703 7.72978L65.181 16.3534C66.9472 15.8801 68.7626 16.9282 69.2358 18.6944L77.8594 16.3837ZM71.3254 30.8047C76.6834 29.3691 79.8631 23.8617 78.4274 18.5037L69.8039 20.8144C69.9634 21.4097 69.6101 22.0216 69.0147 22.1811L71.3254 30.8047ZM70.5363 32.1715C70.3768 31.5762 70.7301 30.9643 71.3254 30.8047L69.0147 22.1811C63.6567 23.6168 60.477 29.1242 61.9127 34.4822L70.5363 32.1715Z" fill="#002E4F"/>
<path d="M91.5996 92.3888L93.0876 91.9424" stroke="#002E4F" stroke-width="0.595186" stroke-linecap="round"/>
<path d="M93.0137 95.885L93.8321 95.5874" stroke="#002E4F" stroke-width="0.595186" stroke-linecap="round"/>
<path d="M91.2285 88.5933C91.9857 88.217 92.2784 87.9198 92.5677 87.2541C92.8607 86.7653 93.1078 86.5595 93.7581 86.3613" stroke="#002E4F" stroke-width="0.595186" stroke-linecap="round"/>
<path d="M57.6748 115.972C58.1195 116.176 58.2809 116.345 58.3444 116.791" stroke="#002E4F" stroke-width="0.595186" stroke-linecap="round"/>
<path d="M57.748 115.973C58.1256 115.692 58.3377 115.706 58.7152 115.825" stroke="#002E4F" stroke-width="0.595186" stroke-linecap="round"/>
<path d="M41.7529 102.432L46.812 103.473" stroke="#002E4F" stroke-width="0.595186" stroke-linecap="round"/>
<path d="M109.827 80.336L116.077 78.6992" stroke="#002E4F" stroke-width="0.595186" stroke-linecap="round"/>
<path d="M80.1367 87.665C81.1397 86.6671 83.0791 86.1475 84.4466 86.5101" stroke="#002E4F" stroke-width="1.78477" stroke-linecap="round"/>
</svg>
