<svg width="69" height="69" viewBox="0 0 69 69" fill="none" xmlns="http://www.w3.org/2000/svg">
<circle opacity="0.0585938" cx="34.5" cy="34.5" r="34.5" fill="#67CABC"/>
<path d="M28.5234 22.3734H48.3374V42.8107H28.5234L28.5234 22.3734Z" fill="#52B8D9"/>
<path fill-rule="evenodd" clip-rule="evenodd" d="M28.5262 43.1533H48.3402C48.5302 43.1533 48.6828 42.9997 48.6828 42.8107V22.3734C48.6828 22.184 48.5296 22.0308 48.3402 22.0308H28.5262C28.3372 22.0308 28.1836 22.184 28.1836 22.3734V42.8107C28.1836 42.9997 28.3372 43.1533 28.5262 43.1533ZM47.9976 42.4681H28.8688V22.716H47.9976V42.4681Z" fill="#63312D"/>
<path d="M24.5273 22.3734H44.3413V42.8107H24.5273L24.5273 22.3734Z" fill="#82D9FF"/>
<path d="M25.8978 23.7439H44.3413V22.3734H24.5273V42.8114H25.8978V23.7439Z" fill="#CAF4FF"/>
<path fill-rule="evenodd" clip-rule="evenodd" d="M24.5262 43.1533H44.3395C44.5296 43.1533 44.6821 42.9997 44.6828 42.8107V22.3734C44.6828 22.184 44.5296 22.0308 44.3402 22.0308H24.5262C24.3372 22.0308 24.1836 22.184 24.1836 22.3734V42.8107C24.1836 42.9997 24.3372 43.1533 24.5262 43.1533ZM43.9976 42.4681H24.8688V22.716H43.9976V42.4681Z" fill="#63312D"/>
<path d="M37.011 28.9225L36.1498 29.5867L35.289 28.9225L34.4291 29.5867L33.5719 28.9225L32.7133 29.5867L31.8555 28.9225V22.3734H37.011V28.9225Z" fill="#F8F3F3"/>
<path fill-rule="evenodd" clip-rule="evenodd" d="M34.2221 29.858C34.284 29.9052 34.3579 29.9293 34.4318 29.9293C34.5058 29.9293 34.5797 29.9052 34.6416 29.8573L35.2911 29.3558L35.9435 29.8587C36.0676 29.954 36.2389 29.9534 36.3621 29.858L37.2229 29.1939C37.3062 29.129 37.3558 29.0289 37.3558 28.9225V22.3724C37.3558 22.1834 37.2022 22.0298 37.0131 22.0298H31.8582C31.6692 22.0298 31.5156 22.1834 31.5156 22.3724V28.9225C31.5156 29.0289 31.5648 29.129 31.6485 29.1939L32.5057 29.858C32.6298 29.9534 32.8018 29.9534 32.9252 29.858L33.5746 29.3565L34.2221 29.858ZM35.5008 28.6518C35.4386 28.604 35.3643 28.5806 35.2911 28.5806C35.2178 28.5806 35.1438 28.6047 35.0823 28.6518L34.4325 29.1537L33.7844 28.6518C33.6603 28.5568 33.4883 28.5568 33.3649 28.6518L32.7154 29.1537L32.2008 28.7549V22.716H36.6705V28.7549L36.1526 29.1544L35.5008 28.6518Z" fill="#63312D"/>
<path d="M53.2606 37.7742C52.6329 36.8759 51.412 36.6273 50.4829 37.2085L41.5234 42.81H38.7099C40.0295 42.81 41.0992 41.7404 41.0992 40.4208C41.0992 39.1009 40.0295 38.0312 38.7099 38.0312H30.8215C30.8215 38.0312 28.9729 35.2214 25.2761 35.2214C21.5786 35.2214 19.8047 37.8833 19.8047 37.8833V48.1838H43.0528L52.8373 40.577C53.7019 39.9049 53.8883 38.6726 53.2606 37.7742Z" fill="#F9DD9D"/>
<path fill-rule="evenodd" clip-rule="evenodd" d="M19.8035 48.5263H43.0517C43.1283 48.5263 43.2019 48.5009 43.2621 48.4534L53.0457 40.8483C54.0558 40.0638 54.2729 38.6274 53.5412 37.5791C52.8088 36.5306 51.3841 36.2408 50.3007 36.9177L41.4243 42.4681H40.5172C41.0837 41.9672 41.4413 41.2355 41.4413 40.4214C41.4413 38.9151 40.2154 37.6899 38.7095 37.6899H30.9967C30.5339 37.0746 28.6469 34.8801 25.275 34.8801C21.439 34.8801 19.5951 37.5791 19.5185 37.6942C19.4807 37.7504 19.4609 37.816 19.4609 37.8839V48.1837C19.4609 48.3728 19.6142 48.5263 19.8035 48.5263ZM42.9339 47.8411H20.1468V37.9964C20.472 37.5701 22.1694 35.5653 25.2756 35.5653C28.7339 35.5653 30.5175 38.1944 30.5353 38.2212C30.5985 38.3169 30.7066 38.3751 30.821 38.3751H38.7101C39.8387 38.3751 40.7568 39.2935 40.7568 40.4214C40.7568 41.55 39.8387 42.4681 38.7101 42.4681C38.5211 42.4681 38.3675 42.6216 38.3675 42.8107C38.3675 42.9997 38.5211 43.1533 38.7101 43.1533H41.5236C41.5882 43.1533 41.6511 43.1356 41.7053 43.1014L50.6644 37.4988C51.4403 37.0144 52.4571 37.2215 52.9801 37.9709C53.5027 38.7207 53.3478 39.7466 52.6264 40.307L42.9339 47.8411Z" fill="#63312D"/>
<path d="M31.1367 42.4674H38.7107V43.1526H31.1367L31.1367 42.4674Z" fill="#63312D"/>
<path d="M19.8051 49.7215H14.3438V35.2217H19.8051V49.7215Z" fill="#F7A085"/>
<path fill-rule="evenodd" clip-rule="evenodd" d="M14.3426 50.0644H19.804C19.9937 50.0644 20.1466 49.9112 20.1466 49.7218V35.222C20.1466 35.0326 19.993 34.8794 19.804 34.8794H14.3426C14.1536 34.8794 14 35.0326 14 35.222V49.7218C14 49.9112 14.1536 50.0644 14.3426 50.0644ZM19.4614 49.3792H14.6852V35.5646H19.4614V49.3792Z" fill="#63312D"/>
</svg>
