<svg width="160" height="160" viewBox="0 0 160 160" fill="none" xmlns="http://www.w3.org/2000/svg">
<circle cx="80" cy="80" r="80" fill="#F6FCFB"/>
<path d="M79.1709 13.5449V7.06152" stroke="#67CABC" stroke-width="2.0474" stroke-linecap="round"/>
<path d="M95.8345 22.3948L100.419 17.8103" stroke="#67CABC" stroke-width="2.0474" stroke-linecap="round"/>
<path d="M62.2563 22.3948L57.6719 17.8103" stroke="#67CABC" stroke-width="2.0474" stroke-linecap="round"/>
<circle cx="80.364" cy="102.351" r="27.0427" fill="#32C0AC"/>
<circle cx="79.6824" cy="101.669" r="27.0427" fill="#67CABC"/>
<circle cx="80.364" cy="102.351" r="22.0095" fill="#E1E8EB"/>
<circle cx="79.6814" cy="101.669" r="22.0095" fill="#F3F8FB"/>
<path d="M84.0393 93.9049L75.2397 93.9049L79.6395 82.6026L84.0393 93.9049Z" stroke="#BDD2DB" stroke-width="0.341233"/>
<path d="M79.5597 109.049L75.0339 97.0914C75.0128 97.0356 75.0541 96.9759 75.1137 96.9759L84.1653 96.9759C84.225 96.9759 84.2662 97.0356 84.2451 97.0914L79.7193 109.049C79.6915 109.123 79.5876 109.123 79.5597 109.049Z" fill="#BDD2DB"/>
<path d="M69.7861 97.7009C74.0942 103.417 85.2696 103.843 90.9426 97.7009" stroke="#242448" stroke-width="1.0237" stroke-linecap="round"/>
<path d="M65.0088 92.1135C67.4916 90.5242 68.8815 90.6038 71.3643 92.1135" stroke="#242448" stroke-width="1.0237" stroke-linecap="round"/>
<path d="M87.7861 92.1135C90.2689 90.5242 91.6588 90.6038 94.1416 92.1135" stroke="#242448" stroke-width="1.0237" stroke-linecap="round"/>
<path d="M71.0668 24.9727L70.9834 53.1243C70.982 53.5954 71.3628 53.9785 71.8339 53.9799L86.5069 54.0234C86.978 54.0248 87.3611 53.644 87.3625 53.1728L87.4459 25.0212C87.4473 24.5501 87.0665 24.167 86.5954 24.1656L71.9224 24.1222C71.4513 24.1208 71.0682 24.5016 71.0668 24.9727Z" fill="#1A1A43"/>
<path d="M70.727 24.6299L70.6435 52.7815C70.6422 53.2527 71.023 53.6357 71.4941 53.6371L86.1671 53.6806C86.6382 53.682 87.0213 53.3012 87.0227 52.8301L87.1061 24.6785C87.1075 24.2073 86.7267 23.8243 86.2555 23.8229L71.5826 23.7794C71.1114 23.778 70.7284 24.1588 70.727 24.6299Z" fill="#242448"/>
<rect x="72.0889" y="25.1472" width="2.72986" height="6.82466" rx="1.36493" transform="rotate(0.169776 72.0889 25.1472)" fill="#1A1A43"/>
<rect x="72.5371" y="46.9873" width="13.564" height="4.0948" rx="0.853082" transform="rotate(0.169776 72.5371 46.9873)" fill="white"/>
<rect x="73.6426" y="48.4402" width="4.1801" height="1.0237" rx="0.51185" transform="rotate(0.169776 73.6426 48.4402)" fill="#67CABC"/>
<rect x="78.334" y="48.4539" width="1.19432" height="1.0237" rx="0.51185" transform="rotate(0.169776 78.334 48.4539)" fill="#67CABC"/>
<rect x="80.3809" y="48.4595" width="3.75356" height="1.0237" rx="0.51185" transform="rotate(0.169776 80.3809 48.4595)" fill="#67CABC"/>
<circle cx="78.0764" cy="49.3056" r="0.170616" transform="rotate(0.169776 78.0764 49.3056)" fill="#67CABC"/>
<path d="M79.7382 49.5249L80.1678 48.5025" stroke="#67CABC" stroke-width="0.170616" stroke-linecap="round"/>
<rect x="71.75" y="24.8047" width="2.72986" height="6.82466" rx="1.36493" transform="rotate(0.169776 71.75 24.8047)" fill="#31315C"/>
<circle cx="73.1111" cy="26.1733" r="0.682466" transform="rotate(0.169776 73.1111 26.1733)" fill="#1A1A43"/>
<circle cx="73.1043" cy="28.2209" r="0.682466" transform="rotate(0.169776 73.1043 28.2209)" fill="#9191A2"/>
<circle cx="73.0974" cy="30.2682" r="0.682466" transform="rotate(0.169776 73.0974 30.2682)" fill="#1A1A43"/>
<path d="M87.2869 98.5804H77.3571L82.322 85.8311L87.2869 98.5804Z" stroke="#BDD2DB" stroke-width="0.595186"/>
<path d="M82.1828 116.111L76.9981 102.413C76.9613 102.316 77.0332 102.212 77.1373 102.212H87.5067C87.6108 102.212 87.6827 102.316 87.6459 102.413L82.4612 116.111C82.4127 116.239 82.2314 116.239 82.1828 116.111Z" fill="#BDD2DB"/>
<path d="M80.9219 102.698C81.6552 102.277 82.8553 102.277 83.5886 102.698" stroke="#002E4F" stroke-width="1.19037" stroke-linecap="round"/>
<circle cx="80.615" cy="66.0959" r="4.1062" fill="#32C0AC"/>
<circle cx="80.3955" cy="101.647" r="28.5381" fill="#32C0AC"/>
<circle cx="80.2039" cy="65.8906" r="4.1062" fill="#21CDB4"/>
<path d="M106.427 71.2991C106.307 71.6794 106.08 71.7689 105.702 71.7256C105.631 71.7967 105.574 71.9645 105.574 72.0668C105.574 72.1692 106.2 72.3086 106.513 72.3654L106.427 71.2991Z" fill="#21CDB4"/>
<path d="M102.849 71.5373C103.252 70.8873 104.106 70.6871 104.756 71.0902L109.887 74.2717L108.427 76.6256L103.296 73.4442C102.646 73.0411 102.446 72.1874 102.849 71.5373V71.5373Z" fill="#21CDB4"/>
<path d="M107.731 64.9369C108.68 64.8821 109.494 65.6069 109.548 66.5558L109.908 72.7842L106.472 72.9828L106.112 66.7544C106.057 65.8055 106.782 64.9918 107.731 64.9369V64.9369Z" fill="#21CDB4"/>
<path d="M110.918 63.977C111.866 63.9221 112.68 64.6469 112.735 65.5958L113.14 72.6041L109.704 72.8026L109.299 65.7944C109.244 64.8455 109.969 64.0318 110.918 63.977V63.977Z" fill="#21CDB4"/>
<path d="M114.072 65.0307C115.02 64.9589 115.846 65.669 115.918 66.6167L116.39 72.8377L112.958 73.0979L112.486 66.8769C112.414 65.9291 113.124 65.1026 114.072 65.0307V65.0307Z" fill="#21CDB4"/>
<path d="M52.9643 71.2976C53.0843 71.6779 53.312 71.7675 53.6894 71.7241C53.7605 71.7952 53.8174 71.963 53.8174 72.0654C53.8174 72.1678 53.1918 72.3071 52.879 72.364L52.9643 71.2976Z" fill="#21CDB4"/>
<path d="M56.5424 71.5359C56.1393 70.8858 55.2855 70.6857 54.6355 71.0887L49.505 74.2702L50.9647 76.6242L56.0952 73.4427C56.7452 73.0396 56.9454 72.1859 56.5424 71.5359V71.5359Z" fill="#21CDB4"/>
<path d="M51.6605 64.9352C50.7116 64.8804 49.8979 65.6052 49.8431 66.5541L49.4832 72.7825L52.9195 72.9811L53.2794 66.7527C53.3343 65.8037 52.6095 64.9901 51.6605 64.9352V64.9352Z" fill="#21CDB4"/>
<path d="M48.474 63.9755C47.5251 63.9207 46.7114 64.6455 46.6566 65.5944L46.2516 72.6026L49.6879 72.8012L50.0929 65.7929C50.1477 64.844 49.4229 64.0303 48.474 63.9755V63.9755Z" fill="#21CDB4"/>
<path d="M45.3196 65.0295C44.3718 64.9577 43.5453 65.6677 43.4734 66.6155L43.0019 72.8365L46.4341 73.0967L46.9056 66.8757C46.9775 65.9279 46.2674 65.1013 45.3196 65.0295V65.0295Z" fill="#21CDB4"/>
<path d="M57.4531 105.081C48.4147 94.0376 46.9753 86.7131 48.1119 72.4929" stroke="#21CDB4" stroke-width="10.1517"/>
<path d="M101.947 105.081C110.986 94.0376 112.425 86.7131 111.289 72.4929" stroke="#21CDB4" stroke-width="10.1517"/>
<circle cx="79.8516" cy="100.707" r="28.5381" fill="#21CDB4"/>
<circle cx="80.3949" cy="101.647" r="21.9682" fill="#E1E8EB"/>
<circle cx="79.852" cy="100.691" r="21.9682" fill="#F3F8FB"/>
<path d="M79.8516 84.2656L79.8516 115.781" stroke="#E1ECF1" stroke-width="1.37469"/>
<path d="M77.5328 85.405L79.1706 83.5853C79.5347 83.1807 80.169 83.1808 80.533 83.5853L82.1708 85.405C82.7016 85.9948 82.2831 86.9346 81.4896 86.9346L78.214 86.9346C77.4206 86.9346 77.002 85.9948 77.5328 85.405Z" fill="#E1ECF1"/>
<path d="M77.2852 113.83L79.8515 111.264L82.4179 113.83L82.4179 118.552L79.8515 115.986L77.2852 118.552L77.2852 113.83Z" fill="#E1ECF1"/>
<circle cx="79.852" cy="100.691" r="0.773629" fill="#F3F8FB" stroke="#E1ECF1" stroke-width="0.91646"/>
<path d="M107.73 64.9365C108.679 64.8817 109.493 65.6065 109.548 66.5554L109.712 69.7639" stroke="#242448" stroke-width="0.341233" stroke-linecap="round"/>
<path d="M110.919 63.9778C111.868 63.9229 112.682 64.6477 112.736 65.5966L112.869 69.9354" stroke="#242448" stroke-width="0.341233" stroke-linecap="round"/>
<path d="M107.707 72.5356C109.57 72.6386 110.394 73.1254 111.333 75.0096" stroke="#242448" stroke-width="0.341233" stroke-linecap="round"/>
<path d="M51.6611 64.9348C50.7122 64.88 49.8985 65.6048 49.8437 66.5537L49.68 69.7621" stroke="#242448" stroke-width="0.341233" stroke-linecap="round"/>
<path d="M48.4727 63.9763C47.5237 63.9215 46.71 64.6463 46.6552 65.5952L46.5226 69.9339" stroke="#242448" stroke-width="0.341233" stroke-linecap="round"/>
<path d="M51.6846 72.5342C49.8212 72.6371 48.9979 73.124 48.059 75.0081" stroke="#242448" stroke-width="0.341233" stroke-linecap="round"/>
<path d="M70.8535 93.175C74.714 98.2968 84.7282 98.6791 89.8118 93.175" stroke="#242448" stroke-width="1.0237" stroke-linecap="round"/>
<path d="M66.5713 88.1683C68.7961 86.7441 70.0416 86.8154 72.2664 88.1683" stroke="#242448" stroke-width="1.0237" stroke-linecap="round"/>
<path d="M86.9834 88.1683C89.2082 86.7441 90.4537 86.8154 92.6785 88.1683" stroke="#242448" stroke-width="1.0237" stroke-linecap="round"/>
<path d="M71.8333 124.361L68.165 151.787" stroke="#21CDB4" stroke-width="11.9432"/>
<path d="M88.1276 124.361L91.7959 151.787" stroke="#21CDB4" stroke-width="11.9432"/>
<rect x="59.9756" y="150.721" width="14.1612" height="2.21801" fill="#21CDB4"/>
<rect x="85.9092" y="150.721" width="14.1612" height="2.21801" fill="#21CDB4"/>
</svg>
