<svg width="69" height="69" viewBox="0 0 69 69" fill="none" xmlns="http://www.w3.org/2000/svg">
<circle opacity="0.0585938" cx="34.5" cy="34.5" r="34.5" fill="#67CABC"/>
<path fill-rule="evenodd" clip-rule="evenodd" d="M29.1789 19.9156L35.3206 26.0572C36.556 27.2926 37.2364 28.9376 37.2363 30.689C37.2363 32.4404 36.5559 34.0854 35.3206 35.3208C34.0853 36.5561 32.4403 37.2365 30.6889 37.2365C28.9374 37.2365 27.2924 36.5561 26.057 35.3208L19.9154 29.1792C17.3615 26.6252 17.3615 22.4696 19.9154 19.9156C21.1509 18.6803 22.7958 18 24.5473 18C26.2987 18 27.9436 18.6803 29.1789 19.9156ZM33.0175 28.3603L26.8758 22.2188C25.5919 20.9347 23.5026 20.9347 22.2185 22.2188C20.9345 23.5029 20.9345 25.5921 22.2185 26.8762L25.2893 29.947V29.947L28.3601 33.0177C29.644 34.3017 31.7334 34.3017 33.0176 33.0177C34.3015 31.7337 34.3015 29.6444 33.0175 28.3603Z" fill="#4ACFD9"/>
<path fill-rule="evenodd" clip-rule="evenodd" d="M44.941 35.679L51.0826 41.8207C52.318 43.0561 52.9983 44.701 52.9983 46.4524C52.9983 48.2038 52.3179 49.8488 51.0825 51.0842C49.8472 52.3196 48.2022 52.9999 46.4508 52.9999C44.6994 52.9999 43.0544 52.3195 41.819 51.0842L35.6775 44.9426C34.442 43.7072 33.7617 42.0622 33.7617 40.3107C33.7617 38.5593 34.4421 36.9144 35.6775 35.679C36.9128 34.4436 38.5578 33.7633 40.3092 33.7633C42.0607 33.7633 43.7056 34.4436 44.941 35.679ZM41.0514 45.7103L44.1222 48.7811C45.4063 50.0652 47.4955 50.0652 48.7795 48.7811C50.0635 47.497 50.0635 45.4077 48.7795 44.1237L42.6379 37.9821C41.3538 36.6981 39.2646 36.6981 37.9806 37.9821C36.6965 39.2661 36.6965 41.3555 37.9806 42.6395L41.0514 45.7103Z" fill="#4ACFD9"/>
<path d="M42.6908 40.3877L29.5887 27.2855C28.9536 26.6505 27.9206 26.6505 27.2857 27.2855C26.9781 27.5931 26.8086 28.002 26.8086 28.4371C26.8086 28.8722 26.9781 29.2812 27.2856 29.5887L40.3877 42.6907C40.6953 42.9983 41.1042 43.1677 41.5393 43.1677C41.9743 43.1677 42.3833 42.9983 42.6908 42.6907C42.9984 42.3832 43.1679 41.9743 43.1679 41.5392C43.1678 41.1042 42.9984 40.6953 42.6908 40.3877Z" fill="#0295AA"/>
<path d="M41.3359 29.9138C41.197 29.9138 41.058 29.8608 40.952 29.7548C40.74 29.5428 40.74 29.1991 40.952 28.9871L43.9919 25.9472C44.2039 25.7352 44.5477 25.7352 44.7596 25.9472C44.9716 26.1592 44.9716 26.503 44.7596 26.7149L41.7197 29.7548C41.6137 29.8608 41.4748 29.9138 41.3359 29.9138Z" fill="#FD6A33"/>
<path d="M39.0194 28.9544C38.7195 28.9544 38.4766 28.7114 38.4766 28.4115V24.1124C38.4766 23.8126 38.7195 23.5696 39.0194 23.5696C39.3193 23.5696 39.5622 23.8126 39.5622 24.1124V28.4115C39.5622 28.7114 39.3193 28.9544 39.0194 28.9544Z" fill="#FD6A33"/>
<path d="M46.5958 32.23H42.2967C41.9969 32.23 41.7539 31.987 41.7539 31.6871C41.7539 31.3873 41.9969 31.1443 42.2967 31.1443H46.5958C46.8957 31.1443 47.1386 31.3873 47.1386 31.6871C47.1386 31.9869 46.8956 32.23 46.5958 32.23Z" fill="#FD6A33"/>
</svg>
