<svg width="69" height="69" viewBox="0 0 69 69" fill="none" xmlns="http://www.w3.org/2000/svg">
<circle opacity="0.0585938" cx="34.5" cy="34.5" r="34.5" fill="#67CABC"/>
<path d="M55 35C55 46.0834 46.0834 55 35 55C23.9166 55 15 46.0834 15 35C15 23.9166 23.9166 15 35 15C46.0834 15 55 23.9166 55 35Z" fill="#55C0EB"/>
<path d="M16.5 42.1666C16.5 42.0833 16.5 42.0833 16.5 42.0833C16.5834 42.0833 16.5834 42.1666 16.5 42.1666C16.6666 42.25 16.6666 42.1666 16.75 42.0833C16.75 42.0833 16.6666 42.0833 16.6666 41.9999C16.6666 41.8333 16.75 41.7499 16.9166 41.6666C16.9166 41.7499 16.9166 41.8332 17 41.8332C17.0834 41.9166 17.1666 41.9998 17.25 41.9998C17.3334 41.9165 17.4166 41.8332 17.5 41.7498C17.6666 41.8332 17.8334 41.9998 18 42.0832C18.0834 42.1666 18.4166 42.1666 18.5 42.0832C18.5 42.0832 18.5 41.9998 18.5834 41.9998C18.5834 41.9998 18.5834 41.9165 18.6667 41.9165C18.75 41.8334 18.75 41.8333 18.75 41.75C18.75 41.6666 18.75 41.6666 18.75 41.5833C18.8334 41.6667 18.9166 41.8334 18.9166 41.9167C19 42.1667 19.0833 42.1667 19.3333 42.1667C19.5833 42.1667 19.7499 42.0834 19.9999 42.1667C20.0833 42.1667 20.0833 42.1667 20.1666 42.1667C20.3332 42.1667 20.4166 42.0833 20.4999 42.0833C20.7499 42.0833 20.8333 42 20.9999 41.8333C21.0833 41.75 21.1666 41.75 21.2499 41.75C21.3333 41.75 21.4166 41.75 21.5833 41.75C21.7499 41.8333 21.9999 41.8333 22.1666 42C22.25 42.0833 22.3333 42.0834 22.4166 42.1666C22.5833 42.1666 22.6666 42.0833 22.8333 42.0833C23.0833 42.0833 23.2499 41.9166 23.4166 41.8333C23.5834 41.7499 23.6666 41.6666 23.75 41.5833C23.8334 41.4999 23.9166 41.4166 24.0834 41.4999H24.1667C24.2501 41.4999 24.4167 41.4999 24.5001 41.4999C24.8334 41.4999 25.0834 41.4166 25.2501 41.1666C25.3334 41.0832 25.3334 40.9999 25.2501 40.9166C25.1667 40.8332 25.1667 40.7499 25.1667 40.5832C25.1667 40.4998 25.1667 40.4166 25.1667 40.4166C25.1667 40.2499 25.0834 40.1666 25.0001 40.0832C24.9167 39.9998 24.8334 39.9166 24.8334 39.7498C24.7501 39.6665 24.7501 39.5832 24.6668 39.4998C24.7502 39.4165 24.6668 39.3332 24.6668 39.1665C24.6668 39.0831 24.5834 38.9998 24.5834 38.9165C24.5001 38.7498 24.3334 38.9165 24.1668 38.8331C24.1668 38.8331 24.1668 38.8331 24.1668 38.7498C24.2502 38.7498 24.3334 38.7498 24.4168 38.7498C24.4168 38.6664 24.3334 38.6664 24.3334 38.5831C24.2501 38.4998 24.2501 38.4998 24.1668 38.4165C24.2502 38.4165 24.2502 38.4165 24.2502 38.4165C24.3335 38.4165 24.5002 38.4998 24.5002 38.2498V38.1665C24.5835 38.0831 24.6668 37.9165 24.5835 37.8331C24.5835 37.5831 24.5002 37.3331 24.3335 37.1665C24.2502 37.0831 24.0835 36.9998 24.1669 36.8331V36.75V36.6666C24.2502 36.5 24.1669 36.3333 24.0835 36.25C24.1669 36.1666 24.1669 36.0834 24.0835 35.9166C24.0002 35.8333 24.0002 35.75 24.1669 35.75C24.0835 35.6666 23.9169 35.5833 23.8335 35.5C23.7502 35.4166 23.7502 35.4166 23.6669 35.3333C23.5835 35.25 23.5835 35.1667 23.5835 35.1667C23.5002 35.0834 23.4169 35.0834 23.5002 34.9167V34.8333C23.5002 34.75 23.4168 34.6667 23.4168 34.5833C23.4168 34.5833 23.4168 34.5834 23.3334 34.6667C23.1668 34.5834 23.0834 34.5833 23.0001 34.7501C23.0001 34.7501 22.9167 34.7501 22.9167 34.8334C22.9167 34.8334 22.9167 34.8334 22.9167 34.7501C22.9167 34.6667 23.0001 34.6667 23.0001 34.5834C23.0834 34.5001 23.1667 34.5001 23.1667 34.4168C23.2501 34.4168 23.2501 34.4168 23.3334 34.4168C23.3334 34.3334 23.3334 34.2501 23.25 34.2501C23.1666 34.2501 23.0834 34.1668 23 34.1668C22.9166 34.1668 22.8334 34.0834 22.75 34.0001C22.6666 34.0001 22.6666 34.0001 22.5834 34.0001C22.5 34.0001 22.5 34.0001 22.4167 34.0001C22.3334 34.0001 22.2501 34.0001 22.2501 34.0001C22.2501 33.9168 22.2501 33.8335 22.2501 33.8335C22.2501 33.6669 22.1667 33.6669 22.0834 33.5835C21.8334 33.5835 21.6668 33.5835 21.6668 33.4169C21.6668 33.3335 21.6668 33.1669 21.7502 33.0002C21.7502 32.9169 21.8335 32.8336 21.8335 32.8336C21.9169 32.7502 22.0002 32.6669 22.1669 32.6669C22.3335 32.5836 22.3335 32.5003 22.2502 32.3336C22.1669 32.1669 22.0002 32.0836 21.9169 31.9169L21.75 31.75C21.9166 31.6666 22.0834 31.5834 22.25 31.5C22.3334 31.4166 22.5 31.4166 22.5834 31.3333L22.6666 31.25C22.5833 31.1666 22.5833 31.0833 22.5 31.0833C22.3334 30.9167 22.1666 30.9167 22 31.0833C21.9166 31.0833 21.8334 31.0833 21.75 31.0833C21.6666 31 21.6666 30.9167 21.5834 30.8333C21.4167 30.75 21.4167 30.5833 21.4167 30.4167C21.5001 30.1667 21.5834 29.9167 21.7501 29.7501C21.8334 29.7501 21.8334 29.6667 21.9167 29.5834C22 29.5001 22.0001 29.5001 22.1667 29.5001H22.25C22.25 29.5001 22.25 29.4167 22.3334 29.4167C22.4166 29.3333 22.5 29.25 22.5 29.25C22.5834 29.3334 22.6666 29.25 22.75 29.25C22.8334 29.4166 22.9166 29.4166 23 29.3333C23.0834 29.3333 23.0834 29.4167 23.0834 29.4167C23.1667 29.5001 23.3334 29.5834 23.3334 29.7501C23.3334 29.9167 23.5 30.0001 23.5834 30.0834C23.5834 30.0001 23.6667 30.0001 23.6667 29.9168L23.5834 29.8334C23.5834 29.8334 23.6667 29.8334 23.6667 29.9168C23.7501 30.0001 23.9167 30.0834 24.0001 30.2501C24.0834 30.3335 24.0834 30.4168 24.0834 30.5001C24.0834 30.5835 24.1668 30.5835 24.1668 30.6668C24.3334 30.7501 24.3334 30.9168 24.2502 31.0834C24.1668 31.1668 24.0835 31.2501 24.0835 31.3334C24.0002 31.5001 24.0002 31.5834 24.0002 31.7501C24.0835 31.8334 24.1668 31.8334 24.2502 31.7501C24.3335 31.6667 24.4168 31.5834 24.4168 31.5834C24.5002 31.4168 24.5834 31.2501 24.6668 31.0834C24.7502 31.0001 25.0002 30.9168 25.0834 30.9168C25.1668 30.9168 25.2501 30.9168 25.4168 31.0001H25.5002C25.6668 31.0835 25.7502 31.0835 25.9168 31.1668L26.0002 31.0834C26.0835 31.0834 26.0835 31.0834 26.1668 31.1668C26.1668 31.1668 26.1668 31.0834 26.0834 31.0834C26.1668 31.0834 26.1668 31.1668 26.2501 31.1668C26.3334 31.0001 26.4167 30.9168 26.5001 30.7501C26.5834 30.6668 26.6667 30.6668 26.6667 30.5835C26.6667 30.6669 26.5834 30.7501 26.5001 30.7501C26.4167 30.8335 26.4167 30.8335 26.3334 30.9168C26.5001 30.8334 26.6668 30.8334 26.7501 30.6668V30.7501C26.9167 30.7501 27.0001 30.7501 27.0834 30.5835C27.1668 30.6669 27.2501 30.6669 27.3334 30.7501C27.2501 30.7501 27.2501 30.6668 27.1668 30.6668C27.3334 30.7501 27.5002 30.8334 27.5834 31.0001C27.5834 30.9168 27.6668 30.8335 27.6668 30.8335C27.7502 30.7501 27.9168 30.6669 28.0834 30.7501C28.1668 30.7501 28.1668 30.7501 28.2501 30.7501C28.3334 30.8335 28.4167 30.9168 28.5834 30.8335H28.6668C28.7502 30.9169 28.9168 31.0001 29.0002 31.0001C29.0002 31.0001 28.9168 31.0001 28.9168 31.0835C28.9168 31.0835 28.8334 31.0835 28.7502 31.0001C28.5835 31.0001 28.5002 31.0835 28.5835 31.2501C28.9169 31.1668 29.0835 31.4168 29.3335 31.5001V31.4168C29.3335 31.3334 29.3335 31.2501 29.1669 31.2501C29.0835 31.2501 29.0835 30.9168 29.0835 30.8335C29.1669 30.7501 29.1669 30.5835 29.2502 30.5835C29.1668 30.5001 29.1668 30.4169 29.1668 30.3335L29.2502 30.4169C29.3335 30.4169 29.4168 30.5002 29.5002 30.4169C29.5835 30.3335 29.5835 30.2502 29.5002 30.1669C29.4168 30.0835 29.3335 30.0002 29.1668 29.9169C29.0002 29.8335 28.8334 29.8335 28.5834 29.7502C28.7501 29.7502 29.0001 29.7502 29.1668 29.7502C29.1668 29.7502 29.1668 29.7502 29.2502 29.7502C29.3335 29.7502 29.3335 29.7502 29.4168 29.7502C29.5002 29.7502 29.5834 29.7502 29.6668 29.7502C29.8334 29.9169 30.0002 30.0836 30.1668 30.3336C30.2502 30.4169 30.4168 30.5836 30.5002 30.5836C30.6668 30.5836 30.8335 30.5836 30.9168 30.7502C31.0002 30.8336 31.1668 30.8336 31.2502 30.7502L31.3335 30.6669C31.4169 30.6669 31.4169 30.5835 31.4169 30.5002C31.4169 30.4169 31.3335 30.4169 31.3335 30.3336L31.4169 30.2502C31.3335 30.1669 31.2502 30.1669 31.1669 30.1669C31.1669 30.0835 31.1669 30.0835 31.2502 30.0835C31.3336 30.0835 31.3336 30.1669 31.4169 30.1669C31.3335 30.0002 31.3335 29.8335 31.2502 29.6669C31.3336 29.5835 31.3336 29.5835 31.2502 29.5002V29.4169C31.2502 29.3335 31.2502 29.2502 31.2502 29.1669C31.3336 29.1669 31.4169 29.1669 31.4169 29.1669C31.5002 29.0835 31.5002 29.0002 31.5002 28.9169C31.5002 28.8335 31.5836 28.8335 31.5836 28.7502H31.5H31.5834C31.5834 28.7502 31.5834 28.6669 31.5 28.6669L31.5834 28.5835C31.5834 28.5001 31.6667 28.5001 31.6667 28.4169C31.6667 28.3336 31.7501 28.2502 31.7501 28.0835V28C31.6667 28 31.5834 28 31.5001 28.0833C31.4167 28.1667 31.3334 28.1667 31.2501 28.1667H31.1667C31.0834 28.1667 31.0001 28.1667 30.9167 28.1667C30.9167 28.0833 30.9167 28.0001 31.0001 27.8333C30.9167 27.75 30.9167 27.75 30.8334 27.6667C30.9168 27.6667 30.9168 27.6667 31.0001 27.6667C31.0834 27.5833 31.2501 27.5001 31.1667 27.3333L31.2501 27.4167L31.5001 27.1667L31.4167 27.0833C31.4167 27 31.4167 27 31.3334 26.9167C31.25 26.8333 31.25 26.8334 31.3334 26.7501C31.3334 26.6667 31.4167 26.5834 31.4167 26.5001C31.5001 26.4167 31.5001 26.1667 31.3334 26.1667C31.25 26.1667 31.1667 26.0834 31.1667 26.0001C31.1667 25.9167 31.0834 25.8334 31.0834 25.8334L31 25.75C30.8334 25.75 30.75 25.8334 30.8334 26C30.5834 26 30.5 26.25 30.4167 26.3333C30.3334 26.4167 30.2501 26.5 30.0834 26.4167C30 26.3333 29.9167 26.4167 29.9167 26.5001C29.9167 26.6667 29.8334 26.8334 29.7501 27.0001C29.6667 27.0834 29.5834 27.1667 29.5834 27.2501L29.6668 27.3334C29.6668 27.3334 29.6668 27.3334 29.5834 27.3334H29.5C29.3334 27.4168 29.25 27.3334 29.0834 27.3334C29 27.3334 29 27.3334 28.9167 27.3334C28.7501 27.5001 28.6667 27.6668 28.5001 27.9168H28.4167C28.4167 27.9168 28.3334 28.0001 28.3334 28.0834C28.25 28.0001 28.25 27.9168 28.1667 28.0001C28.1667 27.9167 28.0834 27.9167 28.0834 27.8334C28.3334 27.6668 28.3334 27.5834 28.3334 27.5001L28.4167 27.4167C28.4167 27.3333 28.4167 27.2501 28.5001 27.2501C28.6667 27.0834 28.7501 27.0001 28.9167 26.8334C28.8334 26.7501 28.8334 26.6668 28.7501 26.5834C28.6667 26.5001 28.5834 26.4168 28.5834 26.4168C28.5834 26.2501 28.5001 26.1668 28.5001 26.0834V26C28.5001 25.6666 28.5001 25.4166 28.1667 25.25C28.2501 25.1666 28.3334 25 28.4167 24.9166C28.5001 24.8333 28.5001 24.75 28.4167 24.6666C28.4167 24.6666 28.3334 24.5 28.4167 24.5C28.5834 24.3333 28.7501 24.25 28.9167 24.1666C29.0001 24.0833 29.0834 24.0833 29.1667 24C29.3334 24.0833 29.5834 24 29.7501 23.9166C29.8334 24 29.9167 24 30.0001 24C30.0834 24 30.0834 23.9166 30.1667 23.8333C30.1667 23.9167 30.2501 23.9167 30.3334 23.8333C30.4167 23.8333 30.4167 23.75 30.5 23.8333C30.5 23.9167 30.6666 23.9167 30.6666 23.9167C30.8333 23.9167 30.9166 23.8333 31.0833 23.8333C30.9999 23.6667 30.8333 23.5 30.9166 23.25C30.9166 23.3333 31 23.5 31 23.5833C31 23.5833 31 23.6667 31.0834 23.6667C31.1667 23.7501 31.5 23.6667 31.5 23.6667V23.5833V23.5H31.5834L31.6667 23.5833C31.5 23.75 31.75 23.75 31.75 23.8333C31.75 23.75 31.8334 23.75 31.8334 23.6667C31.8334 23.7501 31.8334 23.8333 31.8334 23.9167C32 23.9167 32.1667 23.9167 32.3334 23.9167C32.4167 23.9167 32.4167 23.8333 32.5 23.7501C32.5834 23.6667 32.5834 23.5001 32.6666 23.4167C32.8333 23.5001 32.9166 23.5833 32.9166 23.3333H33C32.9166 23.25 32.9166 23.0833 33 23V22.9166C32.9166 22.8333 32.8334 22.6666 32.75 22.5833C32.6666 22.6666 32.5 22.7499 32.5834 22.9166C32.5 22.9166 32.5 23 32.4167 23C32.3334 23 32.3334 22.9166 32.2501 22.9166C32.0834 23 32.0001 23 31.8334 23.0833C31.7501 23.1666 31.6668 23.1666 31.5834 23.0833C31.5834 22.9999 31.6668 22.9166 31.6668 22.8333C31.6668 22.7499 31.7502 22.6666 31.9168 22.7499C32.0002 22.6666 32.0002 22.4999 32.0834 22.4166C32.0834 22.3332 32.0834 22.3332 32.0001 22.3332C31.9167 22.3332 31.9167 22.4166 31.8334 22.4166C31.6668 22.4166 31.6668 22.4999 31.5834 22.4999C31.6668 22.3333 31.7501 22.2499 31.7501 22.1666C31.7501 22.0832 31.7501 22.0832 31.8334 22.0832V22C31.8334 21.9166 31.7501 21.8333 31.7501 21.8333C31.8334 21.8333 31.9167 21.75 32.0001 21.75C32.0001 21.75 32.0001 21.75 32.0834 21.75C32.0834 21.6666 32.0834 21.5 32.1668 21.4166C32.1668 21.3333 32.2502 21.25 32.3334 21.1666V21.0833C32.3334 20.9999 32.4168 20.9166 32.4168 20.9166C32.4168 20.8333 32.4168 20.8333 32.5002 20.75C32.4168 20.8333 32.3335 20.8333 32.1668 20.9166C32.0834 20.8333 31.9168 20.9166 31.8334 21.1666H31.75C31.6666 21.1666 31.5834 21.25 31.5834 21.4166C31.5834 21.5833 31.5 21.75 31.6667 21.8333C31.5834 21.8333 31.5001 21.9166 31.3334 21.9999C31.4167 21.9999 31.4167 22.0833 31.5 22.0833C31.4166 22.2499 31.1666 22.2499 31 22.0833C30.9166 22.1666 30.8334 22.2499 30.75 22.3333C30.6666 22.0833 30.9166 22.0833 31 21.9999H30.9166C31 21.8333 30.9166 21.7499 30.75 21.6666C30.75 21.7499 30.6666 21.8332 30.6666 21.9166L30.75 22C30.75 22 30.6666 22 30.5834 22.0833C30.5834 21.9167 30.5834 21.8333 30.5834 21.75L30.5 21.8333C30.4166 21.75 30.25 21.5833 30.1666 21.5C30 21.1666 29.9166 21.1666 30 21C30 20.9166 30 20.8333 29.9166 20.75C29.8333 20.75 29.8333 20.5 29.9166 20.4166C30.0833 20.1666 30 20.1666 29.8333 20.0833C29.8333 20.0833 29.7499 20.0833 29.7499 19.9999C29.6666 19.9999 29.5833 19.9999 29.4999 19.9999C29.4999 20.2499 29.4999 20.2499 29.6666 20.1666C29.6666 20.2499 29.7499 20.2499 29.7499 20.2499C29.8333 20.2499 29.9166 20.2499 29.9166 20.2499C29.8332 20.3333 29.7499 20.3333 29.5832 20.2499C29.4998 20.1666 29.3332 20.2499 29.3332 20.3333C29.3332 20.4166 29.25 20.5 29.25 20.5C29.25 20.5 29.1666 20.5 29.0834 20.5C29.0834 20.4166 29.0834 20.4166 29.0834 20.4166C29.1667 20.4166 29.25 20.4166 29.1667 20.3333C29.1667 20.2499 29.1667 20.2499 29.1667 20.1666V20.0833C29.1667 19.9999 29.1667 19.9166 29.0834 19.8333C28.75 19.75 28.5834 19.5 28.5 19.25C28.6666 19.1666 28.6666 19.25 28.8334 19.3333C28.8334 19.1667 28.9167 19.0833 28.9167 19L28.8334 18.9166C28.75 18.9166 28.75 18.8333 28.75 18.8333C28.6666 18.5833 28.5 18.3333 28.5 17.9999C28.5 17.9166 28.4166 17.8333 28.3334 17.7499C28.3334 17.7499 28.25 17.7499 28.1667 17.7499C28.0834 17.7499 28.0834 17.7499 28.0001 17.6666C28.0834 17.5832 28.1667 17.4999 28.2501 17.3332C28.0834 17.3332 28.0001 17.4166 27.9167 17.4166H27.8334C27.8334 17.4166 27.75 17.3332 27.8334 17.3332C27.8334 17.2498 27.9167 17.0832 28 16.9998C28 16.9165 28.0834 16.8332 28.0834 16.7498C28.0834 16.7498 28.0834 16.7498 28 16.7498C28 16.8332 28 16.8332 27.9166 16.9165C27.8333 16.9165 27.75 16.9998 27.6666 16.8331C27.6666 16.8331 27.5833 16.7498 27.5 16.7498C27.75 16.7498 27.75 16.7498 27.75 16.6664C27.5 16.583 27.25 16.583 27.0834 16.4998C25.75 17.0831 24.5834 17.7498 23.4167 18.5831C23.4167 18.7498 23.4167 18.8331 23.4167 18.9998C23.4167 18.9998 23.5001 18.9998 23.5001 19.0831C23.5001 19.0831 23.5001 18.9998 23.5834 18.9998C23.5834 18.9998 23.5834 18.9164 23.5834 18.8331H23.6668C23.6668 18.9165 23.6668 19.0831 23.6668 19.1665C23.7502 19.0831 23.7502 18.9998 23.8334 18.9165C23.8334 18.9998 23.8334 18.9998 23.7501 19.0831C23.7501 19.1665 23.6667 19.1665 23.6667 19.2498C23.6667 19.4164 23.6667 19.4998 23.5834 19.5831C23.5834 19.5831 23.5834 19.6665 23.5 19.6665C23.5 19.7498 23.4166 19.8331 23.4166 19.9165V20C23.3333 20 23.3333 20 23.25 20.0833L23.3334 20.1667C23.3334 20.1667 23.3334 20.2501 23.3334 20.3333C23.3334 20.3333 23.3334 20.4167 23.4167 20.4167C23.4167 20.4167 23.3334 20.4167 23.2501 20.4167C23.3334 20.4167 23.3334 20.5001 23.4167 20.5001C23.2501 20.7501 23.1667 20.8334 23.1667 20.8334C23.1667 20.8334 23.1667 20.9168 23.0834 20.9168C23.0834 21.0834 23.0834 21.2501 23 21.4168C23 21.4168 23 21.4168 23 21.5001C23 21.5835 22.9166 21.8335 22.9166 21.8335C22.75 21.9169 22.8333 21.9169 22.9166 22.0001C22.9166 22.0001 22.9166 22.0835 22.9166 22.1668C22.75 22.0001 22.75 21.9168 22.6666 21.7501V21.8335C22.5833 21.8335 22.5833 21.9169 22.5833 21.9169C22.5833 22.0002 22.6666 22.0835 22.5833 22.2502C22.5833 22.3336 22.5833 22.5002 22.5833 22.6669C22.4999 22.6669 22.2499 23.0835 22.2499 23.1669C22.1666 23.1669 22.1666 23.1669 22.0833 23.2502C21.9166 23.3336 21.8333 23.4169 21.6666 23.5836C21.5833 23.6669 21.5 23.7502 21.4166 23.8336C21.3333 23.9169 21.25 24.0002 21.1666 24.0836L21.0833 24.1669C20.9999 24.2503 20.9999 24.3336 20.9999 24.3336C20.9166 24.5002 20.9166 24.5836 20.9999 24.6669L20.9166 24.7503C20.9166 24.8337 20.8332 25.0003 20.8332 25.0837C20.8332 25.167 20.8332 25.167 20.8332 25.2503C20.7498 25.3337 20.8332 25.4169 20.8332 25.5003C20.8332 25.6669 20.9166 25.8337 20.8332 25.9169C20.8332 26.0836 20.6666 26.2503 20.6666 26.4169C20.5832 26.5003 20.5832 26.6669 20.5832 26.7503C20.5832 26.8337 20.5832 26.9169 20.5832 26.9169C20.5832 27.0003 20.4998 27.0003 20.4998 27.0003L20.4165 26.9169C20.4165 27.0003 20.4165 27.1669 20.4165 27.2503C20.4998 27.4169 20.4165 27.5003 20.3331 27.5837L20.2498 27.667C20.2498 27.8337 20.2498 28.0004 20.2498 28.167C20.3331 28.167 20.4164 28.0837 20.4164 28.0004C20.4164 27.9171 20.4164 27.8337 20.4164 27.8337C20.583 27.5837 20.583 27.3337 20.6664 27.0837V27C20.6664 26.75 20.7498 26.5833 20.9164 26.4166C20.9164 26.5833 21.083 26.6666 20.9164 26.8333C20.833 26.9166 20.833 27.0833 20.7498 27.1666V27.25C20.7498 27.4166 20.7498 27.5834 20.7498 27.75C20.7498 27.8334 20.7498 27.9166 20.6664 27.9166C20.6664 27.9166 20.6664 28 20.6664 28.0833V28.1666C20.6664 28.3333 20.583 28.5 20.583 28.6666C20.583 28.8333 20.4997 29 20.333 29.0833C20.2497 29.1666 20.1664 29.1666 20.2497 29.2499C20.2497 29.4166 20.2497 29.6666 20.4163 29.8333V29.9166C20.4163 30 20.4997 30.1666 20.4997 30.25C20.4997 30.3334 20.583 30.5 20.583 30.5833C20.7497 30.6667 20.833 30.8333 20.9164 30.8333C21.083 30.9167 21.1664 31 21.1664 31.25C21.1664 31.6666 21.333 31.9166 21.4998 32.1666C21.4998 32.25 21.4998 32.25 21.4164 32.3333C21.4164 32.4999 21.4164 32.5833 21.333 32.6666V32.8333C21.4164 32.9166 21.4164 32.9999 21.4164 33.0833C21.4164 33.1666 21.4164 33.2499 21.4998 33.3333C21.4998 33.4166 21.5831 33.4166 21.5831 33.4999C21.5831 33.5833 21.5831 33.5833 21.5831 33.6666H21.6665C21.6665 33.4999 21.6665 33.4999 21.9998 33.5832C21.9998 33.6666 21.9998 33.7498 21.9998 33.7498C21.9165 33.8332 21.8332 33.9998 21.8332 34.0832C21.7498 34.1666 21.5832 34.2498 21.5832 34.4166C21.4998 34.4166 21.4166 34.4166 21.3332 34.3332C21.1666 34.4166 20.9166 34.3332 20.6666 34.4166C20.5832 34.4999 20.4999 34.4999 20.4999 34.5832L20.5833 34.6666C20.4999 34.7499 20.4999 34.7499 20.3333 34.6666C20.2499 34.6666 20.0833 34.8332 20.0833 34.9166C20.0833 35.1666 19.9999 35.4166 19.9166 35.6666C19.8333 35.8332 19.8333 35.9166 19.75 36.0832C19.75 36.1666 19.6666 36.2498 19.5834 36.3332V36.4166C19.5834 36.6666 19.5834 36.8332 19.6667 37.0832C19.7501 37.3332 19.8334 37.5832 19.5834 37.7498C19.3334 37.9998 19 38.2498 18.75 38.4165C18.6666 38.4998 18.5834 38.5831 18.4166 38.5831C18.0833 38.7498 17.8333 38.9165 17.5833 39.1665C17.5833 39.1665 17.5833 39.2498 17.4999 39.2498C17.2499 39.3332 16.9999 39.4998 16.7499 39.5832C16.5833 39.6666 16.3333 39.7498 16.2499 39.9166L16.1666 40C16.0833 40 16.0833 40.0833 16 40.0833C16.1666 40.5833 16.3334 41.1667 16.5 41.6667C16.4166 42.1666 16.4166 42.1666 16.5 42.1666Z" fill="#F3F3F3"/>
<path d="M54.5821 31.0834C54.3321 31.25 54.3321 31.25 54.0821 31.1667C54.0821 31.1667 53.9988 31.1667 53.9988 31.0834C53.8321 31 53.8321 31 53.7488 31.1667C53.4988 31.1667 53.4987 31.0001 53.4154 30.8334C53.4154 31 53.332 31.0834 53.332 31.1667C53.332 31.2501 53.2487 31.4167 53.2487 31.5001C53.1653 31.4167 53.1653 31.4167 53.1653 31.4167C53.082 31.4167 52.9987 31.3334 52.9987 31.1667C52.9987 31.0834 52.9153 31.0834 52.9153 31.0001C52.832 30.9167 52.9153 30.8335 52.9153 30.8335C52.9987 30.7501 52.9987 30.6668 52.9987 30.5835V30.5C53.082 30.3334 52.9987 30.25 52.832 30.0834C52.7488 30 52.5821 29.9167 52.4988 30C52.4154 29.9167 52.2487 29.8334 52.1654 29.8334C52.082 29.75 51.9988 29.8334 51.9988 29.9167C51.9988 30.0001 51.9988 30.0834 51.9988 30.0834C51.9988 30.1667 51.9987 30.25 51.9154 30.25C51.6654 30.3334 51.4988 30.25 51.332 30.1667C51.2487 30.0833 51.1654 30.0833 51.2487 29.9167C50.832 29.75 50.582 29.75 50.332 29.9167C50.4154 29.9167 50.4154 30 50.4987 30C50.4153 30 50.4153 30.0834 50.332 30.0834C50.332 30 50.332 29.9167 50.332 29.8334C50.332 29.75 50.2487 29.6667 50.2487 29.6667C50.2487 29.7501 50.1653 29.8334 50.1653 29.8334C50.082 29.8334 49.9987 29.8334 49.9153 29.6667C49.832 29.6667 49.7487 29.6667 49.7487 29.5834C49.6653 29.6667 49.6653 29.6667 49.6653 29.8334C49.832 29.75 49.832 29.75 49.832 29.8334C49.7486 29.8334 49.6653 29.9167 49.582 29.9167C49.582 30.0001 49.332 30.0834 49.082 30.0834C49.1653 30 49.2486 29.9167 49.332 29.8334C49.4153 29.8334 49.4986 29.8334 49.4986 29.75C49.4986 29.6667 49.582 29.5834 49.6652 29.5834C49.7486 29.4167 49.8319 29.25 49.9986 29.25C49.9986 29.25 49.9986 29.25 50.082 29.25C50.1653 29.1667 50.2486 29.0834 50.2486 29C50.332 28.9167 50.332 28.8334 50.332 28.75C50.332 28.6667 50.2486 28.5834 50.332 28.4167V28.3333C50.332 28.2499 50.2486 28.1667 50.2486 28.1667C50.2486 28.1667 50.2486 28.1667 50.1652 28.25C50.1652 28.1667 50.1652 28.0834 50.0819 28.0834C49.9152 27.9167 49.8319 27.75 49.5819 27.8334H49.4988C49.4154 27.8334 49.3321 27.8334 49.3321 27.9167C49.2488 28.0001 49.1655 28.0834 49.0821 28.0001C49.1655 27.9167 49.1655 27.9167 49.2488 27.8335C49.3321 27.6668 49.3321 27.6668 49.1654 27.5835C49.082 27.5835 49.082 27.5835 48.9988 27.5001H48.9154C48.9154 27.4167 48.9988 27.4167 48.9988 27.3335C49.0821 27.2501 49.0821 27.1668 48.9988 27.0835C48.9154 27.0835 48.9154 27.0001 48.8321 27.0001C48.7488 26.9167 48.5821 27.0001 48.5821 27.0835C48.4988 27.1668 48.4155 27.3335 48.3321 27.4168C48.3321 27.5002 48.2488 27.5835 48.2488 27.6668C48.2488 27.7502 48.2488 27.7502 48.2488 27.8335C48.0821 27.8335 47.9988 27.8335 47.8321 27.9168C47.9155 28.0002 47.9987 28.0835 47.9155 28.2502C47.8321 28.1668 47.8321 28.1668 47.7488 28.0835C47.4988 28.1669 47.4988 28.2502 47.4155 28.3335C47.3321 28.3335 47.3321 28.4169 47.2488 28.4169C47.2488 28.4169 47.1655 28.4169 47.1655 28.3335C47.2488 28.2502 47.1655 28.2502 47.0821 28.2502C46.9988 28.2502 46.9155 28.2502 46.7488 28.2502C46.6654 28.2502 46.6654 28.2502 46.5821 28.2502L46.6655 28.3335C46.5821 28.3335 46.5821 28.3335 46.5821 28.4169C46.4155 28.5003 46.2487 28.5003 46.1655 28.5835C46.0821 28.5835 45.9155 28.6669 45.9155 28.7502C45.8321 28.8335 45.7488 28.9168 45.6655 28.8335L45.7488 28.9169C45.7488 29.0003 45.6655 29.0835 45.6655 29.1669C45.5821 29.1669 45.5821 29.0835 45.4988 29.0835C45.4155 29.2502 45.5822 29.1669 45.5822 29.2502L45.4988 29.3335C45.4988 29.4169 45.5822 29.4169 45.5822 29.5002C45.5822 29.5835 45.4988 29.6668 45.4155 29.6668C45.1655 29.6668 44.9155 29.7502 44.6655 29.8335C44.4989 29.8335 44.4155 30.0835 44.4989 30.1668C44.4989 30.2502 44.5823 30.2502 44.5823 30.3335C44.5823 30.4168 44.5823 30.5001 44.7489 30.5835C44.8323 30.6668 44.9989 30.7501 45.0823 30.8335V30.9168C44.9989 31.0835 45.0823 31.2502 45.0823 31.4168C45.0823 31.5002 45.0823 31.5835 44.9989 31.5835V31.6668C44.9155 31.6668 44.8323 31.5835 44.9155 31.5002C44.9155 31.3335 44.8322 31.1668 44.9989 31.0002C44.9989 31.0002 44.9989 30.9168 45.0823 30.8335H44.9988C44.8321 30.8335 44.7487 30.8335 44.6654 30.6669C44.582 30.5003 44.4154 30.5003 44.1654 30.5003C44.082 30.5003 44.082 30.5003 44.082 30.5836L44.1654 30.667C43.9987 30.8336 43.9987 30.8336 43.9154 30.667C43.832 30.7503 43.9154 30.8336 43.9154 30.8336C43.9987 30.917 44.082 31.0003 44.1654 31.0003C44.1654 31.0836 44.1654 31.0836 44.2488 31.1669C44.0821 31.0835 43.9154 31.0003 43.7488 31.0003C43.7488 30.9169 43.7488 30.8336 43.7488 30.7503C43.7488 30.6669 43.7488 30.5836 43.7488 30.5003C43.8321 30.3336 43.7487 30.1669 43.6654 30.0836V30.167C43.7487 30.3336 43.6654 30.5003 43.4988 30.5836C43.4154 30.667 43.4154 30.7503 43.4154 30.917C43.4987 31.0003 43.4988 31.0836 43.4988 31.167C43.4988 31.2503 43.5821 31.2503 43.4988 31.3336C43.4154 31.5836 43.4154 31.7503 43.4988 32.0836C43.5821 32.0836 43.6654 32.0836 43.7488 32.0836C43.8321 32.0836 43.9154 32.0836 43.9988 32.0836C44.1654 32.167 44.1654 32.3336 44.2488 32.417C44.2488 32.5003 44.1654 32.5836 44.1654 32.5836C44.1654 32.5836 44.2488 32.667 44.332 32.7503C44.1654 32.7503 44.1654 32.7503 44.1654 32.6669C44.2487 32.5003 44.1654 32.3335 43.9988 32.1669C43.9154 32.1669 43.9154 32.1669 43.8321 32.2503C43.5821 32.3336 43.5821 32.3336 43.6655 32.5836C43.6655 32.667 43.6655 32.7503 43.6655 32.8336C43.6655 32.917 43.5821 33.0003 43.5821 33.0836C43.5821 33.0836 43.5821 33.167 43.4988 33.167C43.4154 33.2503 43.3321 33.3336 43.2488 33.417C43.1654 33.417 43.0821 33.417 43.0821 33.417C42.9988 33.417 42.9155 33.3336 42.9988 33.2503C43.0821 33.3337 43.1654 33.417 43.2488 33.3337C43.2488 33.2503 43.2488 33.0837 43.2488 33.0837C43.4154 33.0837 43.3321 32.9171 43.4154 32.8337C43.4987 32.6671 43.4988 32.5003 43.4988 32.4171V32.3337C43.2488 32.0837 43.4987 31.8337 43.4154 31.5837C43.4154 31.4171 43.4988 31.2503 43.332 31.0837C43.2487 31.0003 43.2487 30.9171 43.332 30.8337C43.4154 30.6671 43.4154 30.5003 43.4154 30.4171C43.4154 30.4171 43.4154 30.3337 43.332 30.3337C43.1654 30.3337 42.9987 30.2503 42.832 30.2503C42.832 30.3337 42.7487 30.417 42.7487 30.5003C42.7487 30.7503 42.6653 31.0003 42.4153 31.0837L42.332 31.1671C42.332 31.2504 42.332 31.2504 42.332 31.3337C42.332 31.3337 42.4153 31.3337 42.4153 31.4171C42.4153 31.5837 42.332 31.7504 42.332 32.0004C42.4986 32.0004 42.582 32.0838 42.582 32.1671C42.582 32.2504 42.6653 32.2504 42.6653 32.3337C42.6653 32.4171 42.582 32.5003 42.582 32.5837C42.4986 32.5003 42.4153 32.3337 42.332 32.3337C42.082 32.1671 41.832 31.9171 41.4986 31.9171C41.4152 31.9171 41.332 31.9171 41.2486 32.0004C41.2486 32.0004 41.2486 32.0838 41.2486 32.1671C41.2486 32.2503 41.332 32.3337 41.2486 32.4171C41.1652 32.4171 41.082 32.5004 41.1652 32.5837C41.1652 32.5837 41.0819 32.5837 41.0819 32.6671V32.5837C41.0819 32.5003 41.0819 32.4171 40.9985 32.3337C40.9152 32.4171 40.8319 32.5003 40.7485 32.5003C40.6652 32.5003 40.6652 32.5837 40.5819 32.5837C40.4152 32.5837 40.2485 32.5837 40.1652 32.8337C40.0819 32.7503 40.0819 32.6671 40.0819 32.6671C40.0819 32.5837 40.0819 32.5004 40.0819 32.5004C40.0819 32.5838 39.9985 32.5838 39.9985 32.6671C39.8319 32.5837 39.9152 32.7504 39.9152 32.7504C39.8318 32.7504 39.7485 32.7504 39.7485 32.8338C39.5819 32.9171 39.4152 33.0004 39.3319 33.0838C39.2485 33.1671 39.1652 33.1671 39.1652 33.3338C39.1652 33.5004 39.0819 33.5004 38.9986 33.5838C38.9152 33.5838 38.832 33.5004 38.832 33.5004C38.6653 33.3338 38.6653 33.1671 38.9153 33.0838C38.9153 32.7504 38.7487 32.7504 38.332 32.7504C38.4986 32.8338 38.4986 33.0004 38.4986 33.0838C38.4986 33.1671 38.4986 33.1671 38.4986 33.2504V33.3338C38.582 33.4171 38.582 33.5004 38.582 33.5838C38.582 33.6671 38.582 33.7504 38.4986 33.8338L38.4154 33.75C38.332 33.6667 38.1654 33.6667 38.082 33.75C37.9987 33.8334 37.9154 33.9167 37.832 33.9167C37.6654 34 37.6654 34.0833 37.7487 34.1667C37.7487 34.25 37.832 34.3333 37.832 34.4167C37.582 34.3333 37.4154 34.25 37.1654 34.1667C37.1654 34.25 37.1654 34.3333 37.1654 34.3333C37.1654 34.4167 37.2487 34.4167 37.332 34.4999C37.332 34.5833 37.332 34.5833 37.4154 34.6666C37.332 34.7499 37.1654 34.6666 37.082 34.5832C36.9987 34.4999 36.9154 34.4999 36.9154 34.4166C36.9154 34.3333 36.832 34.2499 36.832 34.1666V34.0832C36.832 33.9999 36.9154 33.9166 36.832 33.8332C36.6654 33.6666 36.582 33.5832 36.4154 33.4166C36.4154 33.4166 36.4987 33.4166 36.4987 33.4999C36.6654 33.5833 36.7488 33.6666 36.9154 33.7499C37.082 33.8333 37.2488 33.8333 37.4154 33.9166C37.4988 33.9166 37.6654 33.9166 37.7487 33.9166C37.9154 33.8332 37.9987 33.7499 37.9987 33.5832C37.9987 33.3332 37.9154 33.1666 37.5821 33.0832C37.4987 33.0832 37.4988 32.9999 37.4155 32.9999C37.3321 32.9165 37.2488 32.8332 37.0821 32.6665L36.9987 32.5832C36.8321 32.5832 36.5821 32.4998 36.4987 32.4165C36.4987 32.4165 36.4988 32.3332 36.4154 32.3332C36.4154 32.3332 36.4987 32.3332 36.4987 32.4165C36.4987 32.3332 36.4987 32.3332 36.3321 32.2499C36.3321 32.2499 36.3321 32.3332 36.2487 32.3332H35.9987C35.9154 32.2499 35.9154 32.1666 35.8321 32.0832C35.9987 32.1666 36.0821 32.0832 36.1655 31.9166C36.0821 31.8332 35.9155 31.7499 35.8321 31.6666C35.8321 31.7499 35.7487 31.8332 35.7487 31.8332C35.7487 31.7499 35.7487 31.6666 35.7487 31.5832C35.7487 31.5832 35.6654 31.5832 35.6654 31.4999C35.582 31.6665 35.582 31.7499 35.4987 31.8332C35.4987 31.7499 35.4987 31.6666 35.4987 31.5832C35.4154 31.7499 35.3321 31.8332 35.2487 31.9999C35.3321 31.9165 35.3321 31.7499 35.4154 31.6665C35.332 31.6665 35.332 31.5832 35.2487 31.5832L35.1654 31.6665C35.2488 31.7499 35.1654 31.8332 35.082 31.8332C34.9987 31.9167 34.9988 32 34.9154 32C34.832 32 34.7487 31.9167 34.6654 31.9167C34.6654 32 34.7488 32.0833 34.7488 32.0833C34.5821 31.9999 34.4988 32.0833 34.4988 32.2499C34.4988 32.1666 34.4988 32.0833 34.4988 32.0833L34.4154 32.1667C34.2487 32.0833 34.332 32.25 34.2488 32.25H34.1654C34.1654 32.3334 34.1654 32.3334 34.1654 32.4167C34.082 32.3333 33.9987 32.3333 33.9154 32.25C33.9154 32.3334 33.832 32.4167 33.832 32.5C33.9154 32.5 33.9154 32.5 33.9987 32.5C34.082 32.6667 33.9153 32.6667 33.832 32.75C33.9154 32.75 33.9154 32.75 33.9987 32.8334H33.832V33C33.832 32.9167 33.7487 32.9167 33.7487 32.9167C33.7487 33 33.7487 33.0833 33.6653 33.0833C33.6653 33.0833 33.6653 33.1667 33.582 33.1667C33.4986 33.1667 33.4986 33.25 33.4153 33.3333C33.4153 33.3333 33.4153 33.4167 33.332 33.4167C33.1653 33.5 33.2486 33.75 33.082 33.8333C32.9986 33.9167 32.9986 33.9167 32.9986 33.9999V34.0833V34.1667C32.9152 34.1667 32.832 34.25 32.9152 34.4167C32.7486 34.4167 32.7486 34.5833 32.6652 34.75C32.6652 34.8334 32.7486 34.8334 32.7486 34.9167C32.6652 34.9167 32.6652 34.8333 32.582 34.9167C32.4986 34.9167 32.4153 35 32.332 35.0833C32.2486 35.1667 32.1653 35.1667 32.1653 35.2499C32.1653 35.2499 32.2487 35.2499 32.2487 35.3333C32.1653 35.4167 32.082 35.4167 32.082 35.4999C31.9987 35.4999 31.9987 35.5833 31.9154 35.6666C31.9154 35.6666 31.9988 35.6666 31.9988 35.7499C31.9154 35.7499 31.8321 35.9166 31.9154 35.9166C31.9154 35.9166 31.9154 35.9999 31.9988 35.9999C32.0821 35.9999 32.2488 35.9999 32.3321 35.9999C32.3321 35.9999 32.3321 36.0833 32.2488 36.0833C32.1654 35.9999 32.0821 36.0833 31.9988 36.0833C31.9154 36.0833 31.9154 36.1667 31.9988 36.2499V36.4166C32.1654 36.2499 32.1654 36.2499 32.2488 36.2499C32.1654 36.3333 32.0821 36.4166 32.0821 36.4999C31.9988 36.4999 31.9987 36.5833 31.9155 36.5833C31.9988 36.5833 31.9988 36.5833 32.0821 36.5833C32.0821 36.6667 31.9988 36.6667 31.9988 36.7499V36.8333C32.0821 36.9167 32.1654 36.9999 32.2488 37.0833C32.2488 37.0833 32.3321 37.0833 32.4154 36.9999C32.582 36.9166 32.582 36.7499 32.7488 36.7499V36.6666C32.7488 36.5832 32.7488 36.5832 32.7488 36.4999C32.7488 36.5833 32.8321 36.7499 32.8321 36.8333C32.9155 37.0833 32.9155 37.2499 33.0821 37.4999C33.1655 37.5833 33.0821 37.7499 32.9988 37.7499C32.9154 37.7499 32.9154 37.8333 32.8321 37.8333C32.9155 37.9167 32.9988 37.9999 32.9988 38.0833C32.9988 37.9999 33.0821 37.9167 33.0821 37.8333C33.1655 37.9999 33.2488 37.9167 33.3321 37.9167C33.4155 37.75 33.4155 37.75 33.5821 37.6667H33.6655C33.7488 37.4167 33.7488 37.25 33.8321 37C33.8321 36.9167 33.9155 36.75 33.9988 36.75C34.0821 36.75 34.0821 36.6667 34.0821 36.6667C33.9988 36.6667 33.9155 36.6667 33.8321 36.6667C33.8321 36.6667 33.8321 36.6667 33.8321 36.5833C33.9155 36.5833 33.9988 36.6667 34.0821 36.5833C34.1655 36.5833 34.2488 36.4999 34.2488 36.4167C34.2488 36.25 34.0821 36.1667 33.9154 36.25C33.9154 36 33.9988 35.8334 33.9988 35.5834C34.0821 35.4167 34.1654 35.25 34.4154 35.1667C34.4987 35.0834 34.582 35.0001 34.6654 34.9167C34.6654 34.9167 34.6654 34.8334 34.6654 34.7501C34.582 34.5835 34.6654 34.5001 34.7488 34.4167C34.7488 34.3334 34.8321 34.3334 34.9154 34.2501C34.9988 34.2501 35.082 34.2501 35.1654 34.2501C35.1654 34.2501 35.1654 34.2501 35.1654 34.1667L35.2487 34.2501C35.2487 34.3335 35.3321 34.4167 35.3321 34.5001L35.2487 34.5835C35.1654 34.7501 35.0821 34.9168 34.9154 35.0835C34.9154 35.1668 34.832 35.1668 34.7488 35.1668C34.6654 35.2502 34.5821 35.3335 34.5821 35.5002C34.5821 35.6669 34.6655 35.8335 34.5821 36.0002C34.5821 36.0835 34.5821 36.1668 34.6655 36.1668C34.7488 36.2502 34.8321 36.2502 34.9155 36.3335H34.9987C35.0821 36.3335 35.1654 36.2501 35.2487 36.2501C35.4154 36.1667 35.6654 36.1667 35.8321 36.0835C35.7487 36.1668 35.8321 36.2501 35.9155 36.2501C35.9988 36.2501 35.9988 36.2501 36.0821 36.3335C35.9155 36.4168 35.8321 36.4168 35.6655 36.5001C35.4988 36.5001 35.3321 36.4167 35.0821 36.5001C34.9987 36.5835 34.9155 36.5835 34.9987 36.6667C34.9987 36.7501 34.9988 36.9167 35.1654 36.8334C35.1654 37 35.1654 37.1667 35.082 37.25C34.9154 37.25 34.9154 37.0834 34.7487 37C34.6653 37 34.6653 37.0834 34.582 37.0834C34.4987 37.25 34.4154 37.4167 34.4987 37.5834C34.4987 37.6667 34.4987 37.75 34.4987 37.9167C34.332 37.8334 34.332 37.9167 34.2487 38.0001C34.2487 38.0835 34.1653 38.0835 34.082 38.0835C34.082 38.0835 34.082 38.0001 33.9987 37.9168C33.832 37.9168 33.332 38.0835 33.2487 38.2502C33.1653 38.1668 33.1653 38.1668 33.082 38.1668C33.082 38.0835 33.082 38.0835 33.082 38.0002C32.9154 38.0835 32.7487 38.1668 32.582 38.2502C32.582 38.1668 32.582 38.1668 32.582 38.1668C32.4987 38.1668 32.4154 38.1668 32.4154 38.0835C32.332 38.0001 32.332 37.9168 32.332 37.7501C32.4154 37.8335 32.4154 37.8335 32.4154 37.8335H32.4988C32.4988 37.7501 32.4988 37.7501 32.4988 37.6668C32.4154 37.6668 32.4154 37.6668 32.3321 37.7502C32.3321 37.6668 32.4155 37.6668 32.4155 37.5835C32.4155 37.5003 32.4988 37.5002 32.5821 37.4169C32.4155 37.4169 32.4155 37.3335 32.4155 37.2503C32.4155 37.1669 32.4155 37.0836 32.4155 37.0003C32.3321 37.0836 32.2488 37.1669 32.1655 37.1669C31.9988 37.3335 31.9155 37.5003 32.0821 37.7503V37.8336C32.0821 37.917 32.0821 38.0836 32.0821 38.167C32.0821 38.2503 31.9988 38.2503 31.9988 38.3336C31.9154 38.2503 31.8321 38.2503 31.7488 38.3336C31.7488 38.3336 31.7487 38.3336 31.6654 38.3336C31.4987 38.3336 31.4987 38.3336 31.4154 38.5003V38.5836V38.417C31.4154 38.5003 31.332 38.667 31.2488 38.8336C31.1654 38.8336 31.0821 38.917 30.9154 39.0003L30.832 39.0836C30.832 39.167 30.7487 39.2503 30.6654 39.3336C30.6654 39.3336 30.582 39.3336 30.582 39.417C30.4987 39.5003 30.4154 39.5003 30.332 39.417H30.2487C30.2487 39.5003 30.2487 39.5836 30.3321 39.667C30.2487 39.667 30.1655 39.667 30.0821 39.667C29.9155 39.5836 29.8321 39.667 29.7487 39.667C29.7487 39.8336 29.8321 39.8336 29.9154 39.8336C30.082 39.8336 30.1654 39.917 30.1654 40.0836C30.1654 40.0836 30.1654 40.167 30.2487 40.167C30.4154 40.2503 30.3321 40.3336 30.3321 40.417C30.3321 40.5003 30.3321 40.5836 30.3321 40.5836C30.3321 40.8336 30.2487 40.917 29.9987 40.8336C29.7487 40.8336 29.4154 40.7503 29.1654 40.7503C29.082 40.7503 28.9988 40.8336 28.9154 40.9169V41.0003V41.0836C28.9988 41.3336 28.9154 41.5836 28.832 41.8336C28.832 41.917 28.832 42.0003 28.9154 42.0003C28.9154 42.0836 28.9154 42.1669 28.9154 42.2503H28.9987C29.1654 42.2503 29.3321 42.1669 29.4154 42.4169C29.4154 42.5003 29.4987 42.5003 29.582 42.4169C29.6654 42.3335 29.7487 42.3335 29.9154 42.3335C30.1654 42.4169 30.2487 42.1669 30.332 42.0835C30.4154 42.0835 30.4154 41.9169 30.4987 41.8335C30.4153 41.7502 30.4153 41.6669 30.4987 41.5835C30.582 41.4169 30.7487 41.2502 30.9153 41.1669C30.9987 41.0835 31.082 41.0835 30.9987 40.9169C30.9987 40.8335 30.9987 40.7503 31.082 40.7503C31.1654 40.7503 31.2487 40.7503 31.4154 40.7503C31.4987 40.7503 31.4988 40.7503 31.582 40.7503C31.7487 40.6669 31.832 40.5836 31.9154 40.5003C31.9987 40.4169 31.9988 40.4169 32.082 40.5003C32.1654 40.5003 32.2487 40.5836 32.2487 40.6669C32.2487 40.7503 32.332 40.8335 32.4153 40.9169C32.4153 40.9169 32.4987 41.0003 32.582 41.0003C32.7486 41.0836 32.832 41.1669 32.9986 41.3336C33.082 41.417 33.1652 41.417 33.1652 41.5003C33.1652 41.5836 33.2486 41.6669 33.2486 41.7503C33.1652 41.8336 32.9986 41.9169 32.832 41.9169C32.7486 41.9169 32.7486 41.9169 32.6653 41.9169C32.6653 41.9169 32.6653 42.0003 32.7487 42.0003C32.832 42.0836 32.9153 42.0836 32.9987 42.1669C33.082 42.1669 33.082 42.1669 33.082 42.0835C33.082 42.0002 33.082 41.9169 33.082 41.8335H33.1654C33.1654 41.7502 33.2488 41.6669 33.2488 41.6669C33.3321 41.5835 33.3321 41.5835 33.2488 41.5003C33.2488 41.5003 33.2488 41.4169 33.2488 41.3336H33.3321C33.4155 41.3336 33.4155 41.417 33.4988 41.417C33.4154 41.167 33.2488 41.167 33.0821 41.0836V41C32.8321 41 32.7487 40.9167 32.6655 40.75C32.6655 40.6667 32.5821 40.5834 32.4988 40.5C32.3322 40.4167 32.4155 40.3334 32.4155 40.1667C32.4155 40.1667 32.4988 40.0833 32.5821 40.0833C32.5821 40.1667 32.6655 40.2499 32.6655 40.3333C32.7488 40.2499 32.7488 40.2499 32.7488 40.1667C32.8322 40.25 32.8322 40.3333 32.9155 40.4167C32.9155 40.5 32.9988 40.5833 32.9988 40.5833C33.0822 40.5833 33.1655 40.6667 33.2488 40.7499C33.3322 40.8333 33.4988 40.9166 33.4988 40.9999C33.4988 41.1666 33.4988 41.3333 33.5822 41.4166C33.5822 41.4999 33.6655 41.5832 33.7488 41.6666C33.8322 41.7499 33.8322 41.8332 33.9155 41.9166C33.8321 42.0832 33.9988 42.2499 34.1655 42.2499C34.1655 42.1666 34.1655 42.1666 34.1655 42.0833H34.2488C34.2488 42.0833 34.2488 41.9999 34.1655 41.9167C34.2488 41.9167 34.2488 42 34.3321 42V41.9167H34.4155C34.3321 41.75 34.2488 41.6667 34.1655 41.6667C34.1655 41.5833 34.1655 41.5 34.1655 41.5C34.1655 41.4167 34.1655 41.4167 34.1655 41.3334C34.2488 41.3334 34.3321 41.3334 34.3321 41.4167C34.3321 41.4167 34.3321 41.3334 34.3321 41.2501C34.4988 41.0835 34.5821 41.2501 34.7488 41.2501C34.7488 41.3335 34.6654 41.5001 34.6654 41.5835L34.7488 41.5001C34.7488 41.5835 34.7488 41.5835 34.7488 41.5835V41.6668H34.6654V41.7502C34.7487 41.7502 34.7488 41.8335 34.832 41.9168C34.9154 42.0002 34.9154 42.0835 35.082 42.0835C35.082 42.0835 35.1654 42.0835 35.1654 42.1668C35.332 42.2502 35.332 42.2502 35.4154 42.0835C35.4988 42.0835 35.4987 42.1668 35.582 42.1668C35.7487 42.2502 35.832 42.2502 35.9987 42.1668H36.082C36.1654 42.1668 36.1654 42.1668 36.2487 42.1668C36.2487 42.2502 36.2487 42.3335 36.2487 42.3335C36.2487 42.4168 36.2487 42.5001 36.2487 42.5835C36.1653 42.7501 36.082 42.9168 35.9987 43.1668C35.9153 43.3335 35.7487 43.4168 35.582 43.3335C35.4987 43.2501 35.4154 43.2501 35.332 43.2501C35.2487 43.2501 35.1654 43.3335 35.082 43.3335C34.9987 43.3335 34.9154 43.3335 34.9154 43.3335C34.7488 43.3335 34.582 43.2501 34.4988 43.2501C34.3321 43.2501 34.2488 43.1667 34.0821 43.0835C34.0821 43.0835 34.0821 43.0835 33.9988 43.0001C33.9154 43.0001 33.9154 42.9167 33.8321 42.9167C33.7488 42.9167 33.5821 42.9167 33.4988 43.0001C33.4154 43.0835 33.4154 43.1667 33.4154 43.2501C33.4154 43.2501 33.4154 43.3335 33.332 43.3335C33.2487 43.3335 33.1654 43.4168 33.1654 43.3335C32.9987 43.3335 32.9154 43.2501 32.7488 43.1668C32.6654 43.1668 32.6654 43.0835 32.6654 43.0835C32.582 42.9168 32.4154 42.8335 32.2488 42.8335C31.9988 42.8335 31.8321 42.6668 31.6654 42.5835C31.7487 42.5001 31.832 42.5001 31.832 42.4168C31.9154 42.3335 31.9154 42.2502 31.9154 42.2502C31.832 42.1668 31.832 42.0835 31.9154 42.0002V41.9168C31.832 41.9168 31.832 41.9168 31.7488 42.0002C31.7488 41.8335 31.6654 41.9168 31.5821 41.9168C31.4988 42.0002 31.4155 42.0002 31.2488 41.9168C31.1654 41.9168 31.0821 41.9168 30.9154 41.9168H30.832C30.582 41.8335 30.332 41.9168 30.082 42.0002C29.832 42.0835 29.6654 42.2502 29.332 42.2502H29.2487C29.1654 42.2502 29.0821 42.2502 29.0821 42.1668C28.9987 42.0835 28.9155 42.0835 28.9155 42.1668C28.8321 42.3335 28.7488 42.5002 28.5821 42.5835C28.4155 42.6668 28.2487 42.9168 28.2487 43.0835C28.2487 43.2501 28.1654 43.3335 28.0821 43.4168C27.9155 43.5835 27.6655 43.5835 27.5821 43.8335C27.5821 43.8335 27.5821 43.8335 27.4987 43.9168C27.4987 43.9168 27.4987 44.0002 27.4154 44.0002C27.332 44.2502 27.1654 44.4168 27.082 44.6668C27.082 44.7502 26.9987 44.8335 27.082 44.9168C27.1654 45.0002 27.1654 45.0835 27.082 45.1668V45.2502C27.082 45.3335 27.082 45.5002 27.082 45.5835C27.082 45.6669 26.9987 45.7502 26.9987 45.7502C26.9987 45.8335 26.9153 45.9168 26.832 46.0002C26.9154 46.0835 26.9987 46.1668 26.9987 46.3335C26.9987 46.4169 27.082 46.5002 27.1653 46.5002H27.2487C27.332 46.6668 27.4987 46.7502 27.582 46.9168C27.582 46.9168 27.6654 47.0002 27.6654 47.0835C27.6654 47.1668 27.7487 47.2501 27.832 47.3335C27.9987 47.4168 28.1654 47.5835 28.332 47.6668C28.4987 47.7502 28.6654 47.9168 28.9154 47.7502C29.082 47.6668 29.332 47.6668 29.4987 47.7502C29.5821 47.7502 29.6654 47.7502 29.7487 47.7502C29.9987 47.5835 30.2488 47.5002 30.5821 47.5002C30.7487 47.5002 30.8321 47.5835 30.9155 47.7502C30.9155 47.8335 30.9988 47.9168 31.0821 47.8335C31.1655 47.8335 31.2488 47.8335 31.3321 47.8335C31.4988 47.8335 31.6655 48.0002 31.6655 48.1669C31.6655 48.2503 31.6655 48.3335 31.5821 48.5003C31.5821 48.5836 31.4988 48.6669 31.4988 48.7503C31.4988 48.7503 31.4988 48.8336 31.4988 48.9169C31.5821 49.0835 31.7487 49.2503 31.9154 49.4169C31.9987 49.5003 32.082 49.5835 32.082 49.6669C32.1654 49.7503 32.1654 49.9169 32.1654 50.0003C32.1654 50.0836 32.1654 50.1669 32.1654 50.2503C32.1654 50.3336 32.1654 50.4169 32.2488 50.4169C32.3321 50.5003 32.3321 50.7503 32.2488 50.7503C32.0821 50.9169 31.9988 51.1669 31.9988 51.3336C31.9154 51.5836 31.9154 51.7503 32.0821 51.917C32.3321 52.2503 32.4155 52.667 32.4988 53.0836C32.4988 53.2503 32.4987 53.417 32.6654 53.5836C32.832 53.667 32.832 53.8336 32.9154 54.0003C32.9987 54.0836 32.9988 54.2503 33.082 54.3336C33.1654 54.417 33.1654 54.5003 33.082 54.5836C33.082 54.5836 33.082 54.667 33.1654 54.667C33.582 54.667 33.9988 54.7503 34.332 54.7503C34.4154 54.7503 34.4987 54.7503 34.582 54.7503C34.6654 54.667 34.7487 54.667 34.832 54.667C35.082 54.5003 35.2487 54.2503 35.332 54.0003C35.4154 53.917 35.4154 53.8337 35.4987 53.7503C35.6653 53.5837 35.6653 53.417 35.6653 53.2503C35.6653 53.0837 35.6653 53.0837 35.7487 53.0837C35.832 53.0837 35.9153 53.0003 35.9153 53.0003C35.9987 53.0003 36.082 52.917 36.082 52.8337C36.082 52.6671 36.1653 52.4171 35.9986 52.2503C35.9152 52.167 35.9152 52.0837 36.082 52.0003C36.1653 51.917 36.2486 51.8337 36.332 51.8337C36.4153 51.7503 36.4153 51.6671 36.4986 51.6671C36.6652 51.5837 36.832 51.5004 36.9152 51.3337C36.9986 51.2503 36.9986 51.1671 36.9986 51.0837C36.9986 50.9171 36.9152 50.7503 36.9986 50.5837C36.9986 50.5003 36.9986 50.4171 36.9986 50.4171C36.9152 50.2504 36.832 50.1671 36.832 50.0004C36.832 50.0004 36.832 49.9171 36.832 49.8338C36.7486 49.7504 36.7486 49.6671 36.832 49.5838C36.832 49.5004 36.9153 49.4171 36.9153 49.3338C36.9987 49.0004 37.2487 48.9171 37.4987 48.6671C37.6653 48.5005 37.832 48.4171 37.9987 48.2505C38.2487 48.0005 38.4987 47.7505 38.582 47.4171C38.582 47.4171 38.582 47.3338 38.6654 47.3338C38.832 47.1671 38.832 47.0004 38.832 46.7504C38.832 46.6671 38.7487 46.6671 38.6654 46.6671C38.582 46.6671 38.4987 46.7504 38.4987 46.7504C38.3321 46.7504 38.2487 46.8338 38.0821 46.8338C37.9987 46.8338 37.8321 46.8338 37.7487 46.9171C37.7487 46.9171 37.6654 46.9171 37.6654 46.8338C37.5821 46.75 37.4987 46.75 37.4987 46.6667C37.5821 46.5834 37.5821 46.5834 37.4987 46.5001C37.4154 46.4167 37.3321 46.3335 37.2487 46.2501C37.1654 46.1667 37.1654 46.1667 37.0821 46.0835C36.9155 46.0001 36.8321 45.9168 36.8321 45.8335C36.8321 45.7501 36.7488 45.5835 36.6655 45.5835C36.4988 45.5001 36.4988 45.3335 36.4988 45.1668C36.4988 45.0835 36.4155 44.9168 36.3322 44.8335C36.2488 44.7501 36.0822 44.6668 36.1655 44.5001C36.0822 44.4167 35.9989 44.3335 35.9989 44.1667C35.9155 44.0001 35.8323 43.7501 35.6655 43.5834C35.6655 43.5834 35.6655 43.5 35.6655 43.4167C35.7489 43.5001 35.7489 43.5834 35.8322 43.6667C35.8322 43.7501 35.9155 43.7501 35.9988 43.7501C35.9988 43.6667 36.0822 43.6667 36.0822 43.5835C36.0822 43.5835 36.1655 43.6668 36.1655 43.7501C36.2489 43.9167 36.4155 44.1667 36.4989 44.3335C36.4989 44.3335 36.4989 44.4168 36.5823 44.4168C36.7489 44.5002 36.8323 44.6668 36.8323 44.8335C36.8323 45.0001 36.8323 45.0835 36.9989 45.1668C37.0823 45.1668 37.0823 45.3335 37.1655 45.3335C37.2489 45.4168 37.2489 45.5001 37.3322 45.5835C37.4155 45.6668 37.4155 45.8335 37.4988 45.9168C37.5822 46.0835 37.5822 46.2502 37.5822 46.4168L37.6655 46.5002C37.7489 46.5002 37.8322 46.5002 37.9155 46.4168C37.9155 46.4168 37.9989 46.4168 37.9989 46.3335C38.0823 46.3335 38.1655 46.2501 38.2489 46.2501C38.3323 46.1667 38.4989 46.1667 38.5823 46.0835C38.6656 46.0001 38.8323 46.0001 38.9156 45.9168L38.999 45.8335C39.0823 45.7501 39.0823 45.7501 39.1656 45.6668C39.3323 45.5835 39.499 45.6668 39.5823 45.5002H39.6656C39.749 45.4168 39.8323 45.3335 39.9156 45.2502V45.1668C39.9156 45.0835 39.9156 45.0835 39.999 45.0002C40.1656 44.9168 40.1656 44.8335 40.249 44.6668V44.5835C40.1656 44.5001 39.999 44.3335 39.8323 44.3335C39.749 44.3335 39.6657 44.1668 39.6657 44.0835C39.6657 44.0001 39.6657 44.0001 39.6657 43.9168C39.5823 44.0835 39.4157 44.1668 39.3323 44.2502L39.249 44.3335C39.1656 44.3335 38.999 44.3335 38.9156 44.3335L38.8323 44.2502C38.8323 44.1668 38.8323 44.1668 38.8323 44.0835V44C38.8323 44.0834 38.7489 44.0834 38.7489 44.1667C38.6655 44.0833 38.6655 44 38.6655 43.9167C38.6655 43.9167 38.6655 43.8333 38.5822 43.8333C38.4988 43.7499 38.4155 43.6667 38.3322 43.5833C38.2488 43.4167 38.2488 43.3333 38.3322 43.1667C38.4155 43.1667 38.4988 43.25 38.5822 43.25C38.6655 43.3334 38.7488 43.4167 38.7488 43.5834C38.7488 43.5834 38.7488 43.6667 38.8322 43.6667C38.9155 43.7501 39.0822 43.8334 39.1655 43.8334C39.2489 43.9167 39.4989 43.9167 39.5822 43.8334C39.6655 43.75 39.7488 43.75 39.7488 43.8334C39.7488 44 39.9155 44 39.9988 44C40.0822 44 40.1655 44 40.2488 44C40.3322 44 40.4155 44.0834 40.5822 44C40.8322 44 41.0822 44 41.3322 44H41.4155C41.4989 44.0834 41.6655 44.25 41.7489 44.3334C41.8323 44.4167 41.9155 44.4167 41.9989 44.4167H42.0823C41.9989 44.4167 41.9156 44.5001 41.8323 44.5001C41.9156 44.5835 41.9989 44.5835 41.9989 44.6667C42.1655 44.8334 42.3323 44.7501 42.4155 44.5834C42.4155 44.5834 42.4155 44.5 42.4989 44.5C42.4989 44.5834 42.4989 44.6667 42.4989 44.75C42.4989 44.8334 42.4989 44.9167 42.4989 44.9167C42.4989 45.1667 42.4989 45.4167 42.6655 45.6667C42.8322 46 42.9989 46.4167 43.1655 46.75C43.1655 46.8334 43.2489 46.8334 43.2489 46.9167C43.3323 47 43.3323 47 43.4155 46.9167C43.4155 46.8333 43.4989 46.8333 43.4989 46.8333C43.4989 46.8333 43.4989 46.8333 43.5823 46.7499C43.5823 46.6666 43.6656 46.6666 43.7489 46.5833C43.7489 46.4167 43.9155 46.1667 43.8323 45.9167C43.8323 45.9167 43.8323 45.8333 43.8323 45.75L43.9156 45.6667C43.999 45.5833 44.0823 45.5833 44.1656 45.5C44.4156 45.3334 44.5823 45.1667 44.8323 45C44.9156 44.9167 44.9989 44.9167 44.9989 44.8334C44.9989 44.6667 45.0823 44.6667 45.1655 44.5834C45.3322 44.6667 45.4155 44.5834 45.4989 44.5834C45.5823 44.5834 45.5823 44.5 45.6655 44.4167C45.7489 44.4167 45.8322 44.5001 45.8322 44.5834C45.9155 44.6667 45.9155 44.8334 45.9988 44.9167C46.0822 45.0001 46.1655 45.0834 46.2488 45.2501C46.3322 45.3335 46.2488 45.5001 46.2488 45.6667C46.3322 45.7501 46.5822 45.6667 46.6655 45.5001C46.8321 45.5001 46.8321 45.6667 46.8321 45.8335C46.8321 45.9168 46.8321 46.0001 46.9155 46.0835C46.9988 46.2501 46.9988 46.5001 46.9988 46.6668C46.9988 46.8335 46.9988 46.9168 46.9155 47.0002C46.9988 47.0835 46.9988 47.0835 47.0821 47.0835C47.2488 47.2502 47.3321 47.4169 47.3321 47.5835C47.3321 47.8335 47.5821 48.0002 47.8321 48.1669C47.8321 48.1669 47.9155 48.1669 47.9988 48.1669C47.9988 48.0835 47.9988 48.0835 47.9988 48.0003C47.9988 47.9169 47.9154 47.8336 47.9154 47.7503C47.9154 47.5003 47.7488 47.3336 47.582 47.2503C47.4154 47.2503 47.4154 47.1669 47.4154 47.0836C47.4154 47.0003 47.4154 46.8336 47.2488 46.8336C47.2488 46.7503 47.2488 46.667 47.2488 46.667C47.2488 46.5003 47.3321 46.3336 47.3321 46.167L47.4155 46.0836C47.4155 46.0836 47.4988 46.0836 47.4988 46.167V46.2503C47.6655 46.2503 47.7488 46.2503 47.8322 46.3337C47.9155 46.5003 47.9988 46.5837 48.1655 46.5837C48.2489 46.5837 48.2489 46.6671 48.2489 46.7503C48.2489 46.8337 48.2489 46.8337 48.2489 46.917C48.3323 46.8336 48.3323 46.8336 48.4155 46.7503C48.4989 46.667 48.4989 46.5837 48.6655 46.5837C48.8322 46.5837 48.9989 46.5003 48.9989 46.2503C48.9989 46.0837 48.9989 45.917 48.9155 45.7503C48.9155 45.667 48.8322 45.667 48.8322 45.5837C48.6655 45.4171 48.5822 45.3337 48.4155 45.1671C48.4155 45.1671 48.4155 45.0837 48.4155 45.0004C48.4989 44.8338 48.5822 44.6671 48.8322 44.5838C48.9155 44.5838 48.9988 44.5838 49.0822 44.5838C49.1655 44.6671 49.1655 44.7504 49.1655 44.8338C49.1655 44.6671 49.1655 44.6671 49.3322 44.5838C49.4155 44.5838 49.4155 44.5838 49.4988 44.5838C49.5822 44.5838 49.6655 44.5838 49.6655 44.5004C49.7488 44.5004 49.7488 44.4171 49.8321 44.5004C49.8321 44.5004 49.8321 44.5004 49.9155 44.5004C49.9988 44.5004 50.0821 44.4171 50.1655 44.4171C50.2488 44.4171 50.2488 44.3337 50.3321 44.3337C50.4155 44.2503 50.4988 44.1671 50.5821 44.0837C50.7488 44.0003 50.8321 43.9171 50.8321 43.7503C50.9988 43.5837 51.1655 43.3337 51.2488 43.0837C51.1654 43.0837 51.1654 43.0003 51.0821 43.0003C51.1655 43.0003 51.1655 42.917 51.2488 42.917L51.1654 42.8336L51.2488 42.7503C51.1654 42.6669 51.0821 42.5836 51.0821 42.5003C50.9988 42.3336 50.9988 42.1669 50.8321 42.1669C50.9155 42.0835 50.9155 42.0835 50.9155 42.0003C50.9988 41.9169 51.0821 41.9169 51.0821 41.9169C51.0821 41.8335 51.2488 41.8335 51.3321 41.7503C51.3321 41.7503 51.4155 41.7503 51.4155 41.6669H51.3321C51.1655 41.5835 51.0821 41.5835 50.9988 41.6669H50.9154C50.832 41.5835 50.832 41.5835 50.7488 41.5003C50.7488 41.5003 50.6654 41.4169 50.6654 41.3336L50.7488 41.2503C50.8321 41.2503 50.8321 41.2503 50.9154 41.1669C50.9987 41.0835 51.1654 40.9169 51.2488 40.8335H51.3321C51.3321 40.8335 51.3321 40.9169 51.3321 41.0002C51.3321 41.0835 51.2488 41.0835 51.2488 41.1668C51.3321 41.2502 51.3321 41.2502 51.2488 41.3335C51.3321 41.2501 51.4154 41.2501 51.4988 41.1668C51.5821 41.1668 51.6654 41.0835 51.6654 41.0835C51.7487 41.0835 51.832 41.1668 51.9154 41.1668C51.9154 41.2502 51.832 41.3335 51.832 41.5002L51.9154 41.5835C52.082 41.5002 52.1654 41.5835 52.1654 41.7502C52.1654 41.7502 52.082 41.7502 52.082 41.8335C52.332 42.0002 52.082 42.1669 52.1654 42.3335C52.2487 42.2502 52.4154 42.2502 52.4988 42.1669C52.6654 42.0835 52.6654 42.0003 52.6654 41.8335C52.6654 41.6669 52.4987 41.5002 52.4154 41.3335C52.332 41.2502 52.332 41.1669 52.4154 41.0835C52.582 41.0002 52.7487 40.9169 52.6654 40.7502C52.6654 40.7502 52.6654 40.6668 52.7488 40.6668C52.8321 40.5835 52.9154 40.4168 53.0821 40.3335C53.1655 40.3335 53.1655 40.4168 53.2488 40.4168C53.4154 40.5002 53.5821 40.3335 53.6654 40.2502C53.832 40.0835 53.9987 39.8335 54.1654 39.5835C54.332 38.9169 54.4988 38.2502 54.582 37.5002C54.4987 37.4168 54.4154 37.4168 54.332 37.4168C54.332 37.5002 54.332 37.5002 54.332 37.5835C54.2487 37.5835 54.1654 37.5835 54.1654 37.5835C54.1654 37.5001 54.1654 37.5001 54.1654 37.4168C54.1654 37.5002 54.082 37.5002 54.082 37.5002C54.082 37.4168 54.082 37.3335 54.082 37.3335C53.9987 37.3335 53.9154 37.3335 53.832 37.2502C53.832 37.1668 53.832 37.1668 53.832 37.1668C54.082 36.9168 54.332 36.5835 54.6654 36.3335L54.7488 36.2501C54.7488 36.1667 54.8321 36.1667 54.8321 36.0835C54.8321 35.5835 54.9155 35.0835 54.9155 34.5835C54.9987 33.6667 54.8321 32.3334 54.5821 31.0834Z" fill="#F3F3F3"/>
<path d="M52.5 42H17.5C16.0834 42 15 40.9166 15 39.5V30.5C15 29.0834 16.0834 28 17.5 28H52.5C53.9166 28 55 29.0834 55 30.5V39.4166C55 40.8334 53.9166 42 52.5 42Z" fill="#415A6B"/>
<path d="M22.9166 38.25H21L18.75 31.75H20.5834L21.8334 35.6666L23.0834 31.75H25L26.25 35.6666L27.5 31.75H29.4166L27.1666 38.25H25.25L24.0834 34.75L22.9166 38.25Z" fill="white"/>
<path d="M33.7513 38.25H31.918L29.668 31.75H31.5013L32.7513 35.6666L34.0013 31.75H35.8347L37.0847 35.6666L38.3347 31.75H40.2513L38.0013 38.25H36.0847L35.0013 34.75L33.7513 38.25Z" fill="white"/>
<path d="M44.6654 38.25H42.832L40.582 31.75H42.4987L43.7487 35.6666L44.9988 31.75H46.7488L47.9988 35.6666L49.2487 31.75H51.1654L48.9154 38.25H46.9988L45.8321 34.75L44.6654 38.25Z" fill="white"/>
</svg>
