<svg width="160" height="160" viewBox="0 0 160 160" fill="none" xmlns="http://www.w3.org/2000/svg">
<circle cx="80" cy="80" r="80" fill="#F6FCFB"/>
<path d="M99.0458 44.9206L94.1211 43.2L95.4198 62.6808L95.4721 62.6905C98.5672 63.2663 101.729 62.0976 103.705 59.6471C105.401 57.5439 106.005 54.7637 105.335 52.1463L105.202 51.6262C104.401 48.5015 102.091 45.9845 99.0458 44.9206Z" fill="#21CDB4"/>
<path d="M97.5879 61.3514L94.5938 60.4375L95.9056 79.0555L97.7478 79.2566C100.741 79.5835 103.623 78.0147 104.973 75.3229C105.882 73.5102 105.986 71.3984 105.258 69.5054L104.655 67.9355C103.438 64.77 100.831 62.3413 97.5879 61.3514Z" fill="#21CDB4"/>
<path d="M97.575 77.4107L95.7744 76.9668L96.2467 93.0772L97.3268 93.202C100.08 93.5202 102.738 92.0801 103.974 89.5998C104.628 88.2883 104.826 86.796 104.536 85.3594L104.361 84.4921C103.66 81.0174 101.017 78.2592 97.575 77.4107Z" fill="#21CDB4"/>
<path d="M24.8325 137.936C11.4335 125.173 2.45613 107.81 0.433594 88.38L65.3809 42.4243L96.8873 86.9512L24.8325 137.936Z" fill="#21CDB4"/>
<path d="M37.5683 44.0263C35.6223 54.7989 33.0414 60.8811 26.9424 71.7717L48.7845 55.5967C49.3875 51.9619 48.9671 49.9912 48.535 46.931C48.3742 45.7922 48.0549 44.6787 47.5512 43.6448L45.95 40.358C44.8719 38.1452 41.8931 37.4341 40.2337 39.252C39.0667 40.5303 38.2148 41.9258 37.5683 44.0263Z" fill="#21CDB4"/>
<path fill-rule="evenodd" clip-rule="evenodd" d="M104.185 89.1772C104.418 89.2936 104.513 89.5771 104.397 89.8106C103.135 92.3408 100.494 93.8609 97.6974 93.7074C97.4369 93.6931 97.2374 93.4704 97.2517 93.21C97.266 92.9495 97.4887 92.75 97.7491 92.7643C100.171 92.8972 102.459 91.5805 103.551 89.3891C103.668 89.1556 103.951 89.0608 104.185 89.1772Z" fill="#002E4F"/>
<path fill-rule="evenodd" clip-rule="evenodd" d="M105.185 74.9008C105.418 75.0178 105.512 75.3015 105.395 75.5347C103.957 78.4029 100.886 80.0744 97.6966 79.7262L96.7755 79.6256C96.5163 79.5973 96.329 79.3642 96.3573 79.1049C96.3856 78.8456 96.6188 78.6583 96.878 78.6866L97.7991 78.7872C100.597 79.0926 103.289 77.6267 104.551 75.1112C104.668 74.8781 104.952 74.7839 105.185 74.9008Z" fill="#002E4F"/>
<path fill-rule="evenodd" clip-rule="evenodd" d="M104.001 59.2795C104.204 59.4432 104.236 59.7405 104.072 59.9435C101.987 62.5293 98.6513 63.7624 95.3856 63.1548L95.3856 63.1548L95.3332 63.1451C95.0768 63.0974 94.9076 62.8508 94.9553 62.5944C95.003 62.338 95.2496 62.1688 95.506 62.2165L95.5583 62.2262C95.5583 62.2262 95.5583 62.2262 95.5583 62.2262C98.4827 62.7703 101.47 61.666 103.337 59.3506C103.501 59.1476 103.798 59.1157 104.001 59.2795Z" fill="#002E4F"/>
<path fill-rule="evenodd" clip-rule="evenodd" d="M50.9093 77.675C51.1702 77.675 51.3816 77.8865 51.3816 78.1473C51.3816 84.3414 48.8967 89.956 44.8704 94.0471C44.6874 94.233 44.3884 94.2354 44.2025 94.0525C44.0166 93.8695 44.0142 93.5705 44.1972 93.3846C48.0566 89.463 50.4371 84.0836 50.4371 78.1473C50.4371 77.8865 50.6485 77.675 50.9093 77.675Z" fill="#002E4F"/>
<path d="M48.5164 32.5022L53.3753 110.274C53.4566 111.575 54.5777 112.565 55.8792 112.483L96.4148 109.951C97.7163 109.869 98.7056 108.748 98.6242 107.447L93.7653 29.6752C93.684 28.3736 92.563 27.3844 91.2614 27.4657L50.7259 29.9983C49.4243 30.0796 48.4351 31.2006 48.5164 32.5022Z" fill="#1A1A43"/>
<path d="M47.5154 31.6187L52.3743 109.39C52.4556 110.692 53.5767 111.681 54.8783 111.6L95.4138 109.067C96.7154 108.986 97.7046 107.865 97.6233 106.563L92.7644 28.7917C92.683 27.4901 91.562 26.5009 90.2604 26.5822L49.7249 29.1147C48.4233 29.196 47.4341 30.3171 47.5154 31.6187Z" fill="#242448"/>
<rect x="51.374" y="32.7971" width="7.5562" height="18.8905" rx="3.7781" transform="rotate(-3.575 51.374 32.7971)" fill="#1A1A43"/>
<rect x="56.5576" y="93.041" width="37.5449" height="11.3343" rx="2.36131" transform="rotate(-3.575 56.5576 93.041)" fill="white"/>
<rect x="59.8711" y="96.8557" width="11.5704" height="2.83357" rx="1.41679" transform="rotate(-3.575 59.8711 96.8557)" fill="#67CABC"/>
<rect x="72.834" y="96.0459" width="3.30584" height="2.83357" rx="1.41679" transform="rotate(-3.575 72.834 96.0459)" fill="#67CABC"/>
<rect x="78.4902" y="95.6924" width="10.3898" height="2.83357" rx="1.41679" transform="rotate(-3.575 78.4902 95.6924)" fill="#67CABC"/>
<circle cx="72.2742" cy="98.4468" r="0.472262" transform="rotate(-3.575 72.2742 98.4468)" fill="#67CABC"/>
<path fill-rule="evenodd" clip-rule="evenodd" d="M77.9854 95.6239C78.1086 95.6664 78.1741 95.8009 78.1315 95.9241L77.1298 98.8258C77.0873 98.9491 76.9529 99.0145 76.8296 98.972C76.7063 98.9294 76.6409 98.795 76.6834 98.6717L77.6851 95.77C77.7277 95.6468 77.8621 95.5813 77.9854 95.6239Z" fill="#67CABC"/>
<rect x="50.373" y="31.9133" width="7.5562" height="18.8905" rx="3.7781" transform="rotate(-3.575 50.373 31.9133)" fill="#31315C"/>
<circle cx="54.3791" cy="35.4485" r="1.88905" transform="rotate(-3.575 54.3791 35.4485)" fill="#1A1A43"/>
<circle cx="54.7327" cy="41.1047" r="1.88905" transform="rotate(-3.575 54.7327 41.1047)" fill="#9191A2"/>
<circle cx="55.0862" cy="46.7605" r="1.88905" transform="rotate(-3.575 55.0862 46.7605)" fill="#1A1A43"/>
<path d="M107.006 99.7669L124.238 98.8711C125.734 98.7933 126.721 100.405 125.972 101.702L116.58 117.969C115.831 119.266 113.942 119.217 113.261 117.883L105.421 102.512C104.8 101.293 105.64 99.838 107.006 99.7669Z" fill="#242448"/>
<path d="M123.578 103.976L145.255 116.491C146.158 117.013 146.468 118.168 145.946 119.072L141.342 127.047C140.82 127.95 139.665 128.26 138.761 127.738L117.085 115.223L123.578 103.976Z" fill="#242448"/>
</svg>
